<?xml version="1.0" encoding="UTF-8"?><svg xmlns="http://www.w3.org/2000/svg" class="" enable-background="new 0 0 183 113.913" height="113.913px" id="Layer_1" version="1.1" viewBox="0 0 183 113.913" width="183px" x="0px" xml:space="preserve" y="0px"><path d="M182.876,108.774c0,2.769-2.245,5.015-5.015,5.015H4.891c-2.77,0-5.015-2.246-5.015-5.015V4.893   c0-2.77,2.245-5.015,5.015-5.015H177.86c2.77,0,5.015,2.245,5.015,5.015L182.876,108.774L182.876,108.774z" fill="#0D67B4"/><rect fill="#FFFFFF" height="21.662" width="183" x="-0.124" y="38.956"/><rect fill="#1F1F1F" height="24.032" width="183" x="-0.124" y="8.915"/><path d="M47.551,83.102" fill="#0D67B4"/><path d="M157.243,51.533v-3.881h-1.504v-0.914c0.21,0.006,0.414-0.01,0.611-0.047   c0.197-0.037,0.373-0.102,0.53-0.197c0.157-0.094,0.289-0.218,0.398-0.372s0.18-0.345,0.214-0.573h0.965v5.984   C158.457,51.533,157.243,51.533,157.243,51.533z" fill="#1F1F1F"/><path d="M160.294,46.896c0.091-0.294,0.228-0.55,0.411-0.77c0.182-0.219,0.412-0.39,0.688-0.513   c0.276-0.122,0.594-0.184,0.953-0.184c0.273,0,0.534,0.043,0.782,0.128s0.466,0.208,0.654,0.368c0.188,0.159,0.338,0.356,0.449,0.59   c0.111,0.234,0.166,0.496,0.166,0.787c0,0.302-0.049,0.561-0.145,0.778c-0.097,0.217-0.225,0.409-0.385,0.577   c-0.16,0.168-0.341,0.321-0.543,0.458c-0.203,0.137-0.406,0.272-0.612,0.406c-0.205,0.134-0.404,0.278-0.598,0.431   c-0.194,0.154-0.365,0.334-0.513,0.539h2.829v1.043h-4.393c0-0.348,0.049-0.65,0.15-0.906c0.099-0.257,0.234-0.486,0.406-0.688   c0.171-0.202,0.372-0.389,0.603-0.56s0.474-0.345,0.731-0.521c0.131-0.091,0.27-0.184,0.419-0.278   c0.148-0.094,0.283-0.198,0.406-0.312c0.122-0.114,0.225-0.242,0.307-0.384c0.083-0.143,0.124-0.305,0.124-0.488   c0-0.291-0.084-0.517-0.253-0.68c-0.168-0.162-0.383-0.244-0.645-0.244c-0.177,0-0.326,0.042-0.449,0.124   c-0.123,0.083-0.221,0.191-0.295,0.325s-0.127,0.282-0.158,0.445c-0.032,0.162-0.047,0.323-0.047,0.483h-1.163   C160.164,47.507,160.203,47.19,160.294,46.896z" fill="#1F1F1F"/><path d="M166.979,47.969c0.148-0.011,0.286-0.044,0.414-0.098s0.234-0.132,0.316-0.235   c0.083-0.102,0.124-0.239,0.124-0.41c0-0.257-0.086-0.453-0.257-0.59c-0.172-0.137-0.368-0.205-0.59-0.205   c-0.307,0-0.54,0.101-0.697,0.304c-0.156,0.202-0.232,0.457-0.226,0.765h-1.154c0.011-0.308,0.067-0.589,0.167-0.842   c0.099-0.253,0.239-0.472,0.419-0.654c0.179-0.182,0.395-0.323,0.645-0.423c0.251-0.099,0.53-0.15,0.838-0.15   c0.24,0,0.479,0.036,0.718,0.107c0.24,0.071,0.455,0.178,0.646,0.32c0.19,0.143,0.346,0.316,0.466,0.522   c0.119,0.205,0.179,0.442,0.179,0.709c0,0.291-0.07,0.547-0.209,0.77c-0.14,0.222-0.349,0.373-0.628,0.453v0.017   c0.331,0.074,0.59,0.234,0.778,0.479c0.188,0.245,0.282,0.538,0.282,0.88c0,0.313-0.061,0.593-0.184,0.838   c-0.123,0.245-0.286,0.45-0.492,0.615c-0.205,0.165-0.442,0.291-0.71,0.376s-0.547,0.128-0.838,0.128   c-0.336,0-0.642-0.049-0.918-0.145c-0.277-0.097-0.512-0.238-0.706-0.423s-0.343-0.412-0.449-0.68s-0.156-0.576-0.15-0.923h1.154   c0.006,0.159,0.032,0.312,0.077,0.457c0.046,0.145,0.111,0.271,0.197,0.376c0.085,0.105,0.192,0.19,0.32,0.252   s0.281,0.094,0.458,0.094c0.273,0,0.504-0.084,0.692-0.252s0.282-0.398,0.282-0.688c0-0.228-0.044-0.402-0.133-0.522   c-0.088-0.12-0.2-0.206-0.338-0.261c-0.137-0.054-0.286-0.085-0.449-0.094c-0.162-0.008-0.318-0.013-0.466-0.013v-0.855   C166.692,47.98,166.831,47.98,166.979,47.969z" fill="#1F1F1F"/><path d="M173.279,56.323h-20.676V40.751h20.676V56.323z M153.854,54.621h18.174V42.453h-18.174V54.621z" fill="#E90000"/><g><path d="M128.243,51.533v-3.881h-1.504v-0.914c0.21,0.006,0.414-0.01,0.611-0.047    c0.197-0.037,0.373-0.102,0.53-0.197c0.157-0.094,0.289-0.218,0.398-0.372s0.18-0.345,0.214-0.573h0.965v5.984    C129.457,51.533,128.243,51.533,128.243,51.533z" fill="#1F1F1F"/><path d="M131.294,46.896c0.091-0.294,0.228-0.55,0.411-0.77c0.182-0.219,0.412-0.39,0.688-0.513    c0.276-0.122,0.594-0.184,0.953-0.184c0.273,0,0.534,0.043,0.782,0.128s0.466,0.208,0.654,0.368    c0.188,0.159,0.338,0.356,0.449,0.59c0.111,0.234,0.166,0.496,0.166,0.787c0,0.302-0.049,0.561-0.145,0.778    c-0.097,0.217-0.225,0.409-0.385,0.577c-0.16,0.168-0.341,0.321-0.543,0.458c-0.203,0.137-0.406,0.272-0.612,0.406    c-0.205,0.134-0.404,0.278-0.598,0.431c-0.194,0.154-0.365,0.334-0.513,0.539h2.829v1.043h-4.393c0-0.348,0.049-0.65,0.15-0.906    c0.099-0.257,0.234-0.486,0.406-0.688c0.171-0.202,0.372-0.389,0.603-0.56s0.474-0.345,0.731-0.521    c0.131-0.091,0.27-0.184,0.419-0.278c0.148-0.094,0.283-0.198,0.406-0.312c0.122-0.114,0.225-0.242,0.307-0.384    c0.083-0.143,0.124-0.305,0.124-0.488c0-0.291-0.084-0.517-0.253-0.68c-0.168-0.162-0.383-0.244-0.645-0.244    c-0.177,0-0.326,0.042-0.449,0.124c-0.123,0.083-0.221,0.191-0.295,0.325c-0.074,0.134-0.127,0.282-0.158,0.445    c-0.032,0.162-0.047,0.323-0.047,0.483h-1.163C131.164,47.507,131.203,47.19,131.294,46.896z" fill="#1F1F1F"/><path d="M137.979,47.969c0.148-0.011,0.286-0.044,0.414-0.098s0.234-0.132,0.316-0.235    c0.083-0.102,0.124-0.239,0.124-0.41c0-0.257-0.086-0.453-0.257-0.59c-0.172-0.137-0.368-0.205-0.59-0.205    c-0.307,0-0.54,0.101-0.697,0.304c-0.156,0.202-0.232,0.457-0.226,0.765h-1.154c0.011-0.308,0.067-0.589,0.167-0.842    c0.099-0.253,0.239-0.472,0.419-0.654c0.179-0.182,0.395-0.323,0.645-0.423c0.251-0.099,0.53-0.15,0.838-0.15    c0.24,0,0.479,0.036,0.718,0.107c0.24,0.071,0.455,0.178,0.646,0.32c0.19,0.143,0.346,0.316,0.466,0.522    c0.119,0.205,0.179,0.442,0.179,0.709c0,0.291-0.07,0.547-0.209,0.77s-0.349,0.373-0.628,0.453v0.017    c0.331,0.074,0.59,0.234,0.778,0.479c0.188,0.245,0.282,0.538,0.282,0.88c0,0.313-0.061,0.593-0.184,0.838    c-0.123,0.245-0.286,0.45-0.492,0.615c-0.205,0.165-0.442,0.291-0.71,0.376s-0.547,0.128-0.838,0.128    c-0.336,0-0.642-0.049-0.918-0.145c-0.277-0.097-0.512-0.238-0.706-0.423s-0.343-0.412-0.449-0.68    c-0.105-0.268-0.156-0.576-0.149-0.923h1.154c0.006,0.159,0.032,0.312,0.077,0.457c0.046,0.145,0.111,0.271,0.197,0.376    c0.085,0.105,0.192,0.19,0.32,0.252s0.281,0.094,0.458,0.094c0.273,0,0.504-0.084,0.692-0.252s0.282-0.398,0.282-0.688    c0-0.228-0.044-0.402-0.133-0.522c-0.088-0.12-0.2-0.206-0.338-0.261c-0.137-0.054-0.286-0.085-0.449-0.094    c-0.162-0.008-0.318-0.013-0.466-0.013v-0.855C137.692,47.98,137.831,47.98,137.979,47.969z" fill="#1F1F1F"/><path d="M140.5,50.148v-1.111l2.598-3.488h1.086v3.599h0.795v1h-0.795v1.385h-1.154v-1.385H140.5z M143.005,47.071    l-1.547,2.077h1.572v-2.077H143.005z" fill="#1F1F1F"/></g></svg>