<?xml version="1.0" encoding="UTF-8"?><svg xmlns="http://www.w3.org/2000/svg" class="" height="36px" id="Layer_1" version="1.1" viewBox="0 0 283.466 212.608" width="57px" x="0px" xml:space="preserve" y="0px"><metadata id="metadata28"/><defs id="defs26"/><linearGradient gradientTransform="matrix(2.8346,0,0,-2.8346,374.9671,1052.5471)" gradientUnits="userSpaceOnUse" id="SVGID_1_" x1="-63.1147" x2="-32.2798" y1="333.81451" y2="333.81451"><stop id="stop4" offset="0" style="stop-color:#007B40"/><stop id="stop6" offset="1" style="stop-color:#55B330"/></linearGradient><path d="m 213.383,110.61 0.177,0 0.342,0 0.342,0 0.343,0 0.342,0 0.342,0 0.342,0 0.342,0 0.342,0 0.342,0 0.342,0 0.342,0 0.342,0 0.342,0 0.343,0 0.342,0 0.342,0 0.343,0 0.342,0 0.342,0 0.342,0 0.342,0 0.342,0 0.342,0 0.342,0 0.342,0 0.343,0 0.342,0 0.342,0 0.343,0 0.342,0 0.342,0 0.342,0 0.342,0 0.342,0 0.342,0 0.342,0 0.342,0 0.342,0 0.343,0 0.342,0 0.342,0 0.343,0 0.342,0 0.342,0 0.342,0 0.342,0 0.342,0 0.342,0 0.342,0 0.342,0 0.342,0 0.343,0 0.342,0 0.342,0 0.343,0 0.342,0 0.342,0 0.342,0 0.342,0 0.285,0 0.057,0.001 c 0.105,0.004 0.221,0.008 0.342,0.015 0.109,0.006 0.225,0.014 0.342,0.022 0.113,0.008 0.229,0.018 0.343,0.028 0.114,0.01 0.229,0.022 0.342,0.034 0.118,0.014 0.232,0.027 0.342,0.042 0.122,0.017 0.237,0.033 0.343,0.052 0.074,0.012 0.145,0.025 0.206,0.039 l 0.136,0.03 c 0.113,0.026 0.229,0.056 0.342,0.087 0.114,0.031 0.229,0.065 0.342,0.102 0.115,0.037 0.229,0.075 0.342,0.116 0.115,0.042 0.229,0.086 0.342,0.132 0.115,0.047 0.229,0.097 0.342,0.148 0.115,0.053 0.229,0.107 0.342,0.165 0.115,0.059 0.229,0.12 0.342,0.183 0.115,0.065 0.23,0.133 0.342,0.203 0.116,0.072 0.23,0.146 0.342,0.224 0.116,0.079 0.23,0.161 0.342,0.245 0.117,0.088 0.23,0.178 0.343,0.271 0.116,0.097 0.23,0.197 0.342,0.3 0.116,0.107 0.231,0.217 0.343,0.33 0.117,0.12 0.23,0.243 0.342,0.369 0.117,0.134 0.23,0.271 0.342,0.413 0.118,0.152 0.232,0.309 0.342,0.469 0.119,0.176 0.234,0.356 0.342,0.541 0.122,0.209 0.236,0.424 0.342,0.645 0.126,0.262 0.24,0.53 0.342,0.808 0.137,0.372 0.252,0.758 0.342,1.156 0.156,0.69 0.241,1.417 0.241,2.177 0,0.762 -0.084,1.492 -0.241,2.186 -0.09,0.398 -0.205,0.785 -0.342,1.158 -0.102,0.278 -0.216,0.548 -0.342,0.811 -0.105,0.22 -0.22,0.436 -0.342,0.645 -0.107,0.185 -0.223,0.365 -0.342,0.541 -0.109,0.16 -0.224,0.316 -0.342,0.469 -0.111,0.142 -0.225,0.279 -0.342,0.413 -0.111,0.126 -0.225,0.249 -0.342,0.368 -0.111,0.113 -0.227,0.224 -0.343,0.33 -0.111,0.104 -0.226,0.202 -0.342,0.299 -0.112,0.093 -0.226,0.184 -0.343,0.271 -0.111,0.085 -0.226,0.166 -0.342,0.245 -0.111,0.076 -0.227,0.15 -0.342,0.222 -0.111,0.069 -0.227,0.138 -0.342,0.202 -0.112,0.062 -0.227,0.124 -0.342,0.182 -0.113,0.057 -0.227,0.111 -0.342,0.164 -0.113,0.052 -0.227,0.101 -0.342,0.147 -0.113,0.046 -0.227,0.089 -0.342,0.13 -0.113,0.041 -0.227,0.079 -0.342,0.115 -0.113,0.035 -0.228,0.068 -0.342,0.1 -0.113,0.031 -0.229,0.06 -0.342,0.086 l -0.136,0.03 c -0.062,0.015 -0.132,0.028 -0.206,0.042 -0.105,0.018 -0.221,0.035 -0.343,0.053 -0.109,0.015 -0.224,0.028 -0.342,0.041 -0.112,0.014 -0.228,0.024 -0.342,0.035 -0.114,0.01 -0.229,0.02 -0.343,0.027 -0.117,0.008 -0.232,0.016 -0.342,0.021 -0.121,0.006 -0.236,0.011 -0.342,0.014 l -0.184,0.002 -0.158,0 -0.342,0 -0.342,0 -0.342,0 -0.342,0 -0.343,0 -0.342,0 -0.342,0 -0.343,0 -0.342,0 -0.342,0 -0.342,0 -0.342,0 -0.342,0 -0.342,0 -0.342,0 -0.342,0 -0.342,0 -0.342,0 -0.343,0 -0.342,0 -0.342,0 -0.343,0 -0.342,0 -0.342,0 -0.342,0 -0.342,0 -0.342,0 -0.342,0 -0.342,0 -0.342,0 -0.343,0 -0.342,0 -0.342,0 -0.343,0 -0.342,0 -0.342,0 -0.342,0 -0.342,0 -0.342,0 -0.342,0 -0.342,0 -0.342,0 -0.342,0 -0.343,0 -0.342,0 -0.342,0 -0.343,0 -0.342,0 -0.342,0 -0.342,0 -0.342,0 -0.342,0 -0.342,0 -0.342,0 -0.342,0 -0.342,0 -0.343,0 -0.342,0 -0.342,0 -0.177,0 0,-18.696 0,0 z m 27.534,-21.158 c 0.138,0.627 0.212,1.292 0.212,1.992 0,0.699 -0.074,1.363 -0.212,1.99 -0.089,0.403 -0.203,0.79 -0.342,1.161 -0.102,0.271 -0.216,0.533 -0.342,0.787 -0.106,0.212 -0.22,0.418 -0.343,0.617 -0.107,0.177 -0.222,0.348 -0.342,0.514 -0.109,0.151 -0.223,0.298 -0.342,0.441 -0.109,0.133 -0.224,0.261 -0.342,0.386 -0.11,0.118 -0.225,0.231 -0.342,0.341 -0.111,0.105 -0.225,0.207 -0.342,0.305 -0.111,0.094 -0.226,0.185 -0.342,0.273 -0.112,0.085 -0.227,0.167 -0.342,0.246 -0.112,0.077 -0.227,0.15 -0.342,0.222 -0.113,0.069 -0.227,0.136 -0.342,0.199 -0.113,0.062 -0.227,0.123 -0.342,0.18 -0.113,0.056 -0.228,0.11 -0.343,0.161 -0.112,0.05 -0.228,0.098 -0.342,0.143 -0.113,0.044 -0.228,0.087 -0.342,0.127 -0.113,0.04 -0.228,0.077 -0.342,0.111 -0.114,0.035 -0.228,0.067 -0.343,0.097 -0.113,0.029 -0.227,0.057 -0.342,0.082 -0.113,0.025 -0.227,0.047 -0.342,0.067 l -0.082,0.015 c -0.067,0.012 -0.156,0.024 -0.26,0.038 -0.102,0.013 -0.217,0.026 -0.342,0.039 -0.108,0.011 -0.224,0.022 -0.342,0.032 -0.112,0.009 -0.227,0.018 -0.342,0.025 -0.115,0.007 -0.23,0.014 -0.342,0.018 -0.119,0.005 -0.234,0.008 -0.342,0.009 l -0.055,0 -0.287,0 -0.343,0 -0.342,0 -0.342,0 -0.343,0 -0.342,0 -0.342,0 -0.342,0 -0.342,0 -0.342,0 -0.342,0 -0.342,0 -0.342,0 -0.342,0 -0.343,0 -0.342,0 -0.342,0 -0.342,0 -0.343,0 -0.342,0 -0.342,0 -0.342,0 -0.342,0 -0.342,0 -0.342,0 -0.342,0 -0.342,0 -0.342,0 -0.343,0 -0.342,0 -0.342,0 -0.343,0 -0.342,0 -0.342,0 -0.342,0 -0.342,0 -0.342,0 -0.342,0 -0.342,0 -0.342,0 -0.342,0 -0.342,0 -0.342,0 -0.343,0 -0.342,0 -0.342,0 -0.343,0 -0.342,0 -0.342,0 -0.342,0 -0.342,0 -0.342,0 -0.342,0 -0.342,0 -0.18,0 0,-17.25 0.18,0 0.342,0 0.342,0 0.342,0 0.342,0 0.342,0 0.342,0 0.342,0 0.343,0 0.342,0 0.342,0 0.343,0 0.342,0 0.342,0 0.342,0 0.342,0 0.342,0 0.342,0 0.342,0 0.342,0 0.342,0 0.342,0 0.342,0 0.343,0 0.342,0 0.342,0 0.343,0 0.342,0 0.342,0 0.342,0 0.342,0 0.342,0 0.342,0 0.342,0 0.342,0 0.342,0 0.343,0 0.342,0 0.342,0 0.342,0 0.343,0 0.342,0 0.342,0 0.342,0 0.342,0 0.342,0 0.342,0 0.342,0 0.342,0 0.342,0 0.343,0 0.342,0 0.342,0 0.343,0 0.342,0 0.144,0 0.198,0.006 c 0.111,0.004 0.227,0.011 0.342,0.019 0.115,0.008 0.229,0.016 0.342,0.025 0.118,0.01 0.233,0.021 0.342,0.031 0.125,0.012 0.24,0.024 0.342,0.036 0.104,0.012 0.192,0.023 0.26,0.033 l 0.082,0.015 c 0.115,0.021 0.229,0.043 0.342,0.069 0.115,0.025 0.229,0.053 0.342,0.083 0.115,0.03 0.229,0.062 0.343,0.097 0.114,0.035 0.229,0.072 0.342,0.112 0.114,0.04 0.229,0.083 0.342,0.127 0.114,0.046 0.229,0.094 0.342,0.144 0.115,0.051 0.229,0.105 0.343,0.161 0.115,0.058 0.229,0.118 0.342,0.18 0.115,0.064 0.229,0.131 0.342,0.2 0.115,0.071 0.229,0.145 0.342,0.222 0.115,0.079 0.229,0.162 0.342,0.247 0.116,0.088 0.23,0.179 0.342,0.273 0.117,0.099 0.23,0.201 0.342,0.306 0.117,0.11 0.231,0.224 0.342,0.341 0.118,0.125 0.232,0.253 0.342,0.386 0.119,0.143 0.232,0.29 0.342,0.441 0.12,0.166 0.234,0.337 0.342,0.514 0.123,0.199 0.236,0.405 0.343,0.618 0.126,0.253 0.24,0.516 0.342,0.787 0.139,0.368 0.253,0.756 0.342,1.159 z M 283.325,0 l 0.141,0 0,177.171 c 0,1.059 -0.049,2.105 -0.141,3.141 -0.08,0.91 -0.194,1.812 -0.342,2.701 -0.1,0.598 -0.213,1.19 -0.342,1.777 -0.105,0.479 -0.219,0.953 -0.342,1.423 -0.107,0.405 -0.222,0.809 -0.342,1.208 -0.109,0.362 -0.223,0.723 -0.343,1.079 -0.109,0.323 -0.224,0.645 -0.342,0.964 -0.11,0.297 -0.225,0.593 -0.343,0.887 -0.109,0.275 -0.225,0.549 -0.342,0.822 -0.111,0.258 -0.225,0.514 -0.342,0.769 -0.111,0.243 -0.225,0.484 -0.342,0.724 -0.111,0.23 -0.226,0.459 -0.342,0.686 -0.111,0.217 -0.227,0.434 -0.342,0.648 -0.111,0.207 -0.227,0.411 -0.342,0.615 -0.113,0.197 -0.227,0.394 -0.342,0.588 -0.113,0.19 -0.227,0.379 -0.343,0.566 -0.112,0.184 -0.226,0.365 -0.343,0.546 -0.111,0.175 -0.227,0.349 -0.342,0.521 -0.111,0.168 -0.227,0.334 -0.342,0.5 -0.113,0.163 -0.227,0.326 -0.342,0.486 -0.113,0.157 -0.227,0.313 -0.342,0.469 -0.113,0.151 -0.228,0.301 -0.342,0.45 -0.113,0.147 -0.227,0.294 -0.342,0.439 -0.113,0.143 -0.228,0.284 -0.343,0.425 -0.112,0.137 -0.228,0.273 -0.342,0.409 -0.114,0.134 -0.227,0.27 -0.343,0.402 -0.112,0.13 -0.227,0.257 -0.342,0.385 -0.112,0.126 -0.227,0.252 -0.342,0.377 -0.113,0.123 -0.227,0.245 -0.342,0.367 -0.113,0.119 -0.228,0.235 -0.342,0.354 -0.113,0.116 -0.227,0.234 -0.342,0.35 -0.113,0.112 -0.229,0.223 -0.342,0.333 -0.114,0.111 -0.228,0.222 -0.343,0.33 -0.112,0.107 -0.228,0.213 -0.342,0.318 -0.113,0.104 -0.228,0.209 -0.343,0.312 -0.113,0.102 -0.227,0.203 -0.342,0.304 -0.113,0.099 -0.227,0.197 -0.342,0.295 -0.113,0.097 -0.227,0.193 -0.342,0.289 -0.113,0.094 -0.228,0.187 -0.342,0.279 -0.113,0.092 -0.227,0.184 -0.342,0.275 -0.113,0.09 -0.229,0.177 -0.342,0.266 -0.114,0.087 -0.228,0.175 -0.342,0.262 -0.113,0.085 -0.229,0.168 -0.343,0.252 -0.114,0.084 -0.228,0.168 -0.342,0.25 -0.113,0.081 -0.228,0.16 -0.343,0.239 -0.113,0.079 -0.227,0.159 -0.342,0.237 -0.113,0.077 -0.227,0.152 -0.342,0.229 -0.113,0.075 -0.227,0.15 -0.342,0.225 -0.113,0.074 -0.228,0.146 -0.342,0.218 -0.113,0.071 -0.228,0.144 -0.342,0.214 -0.113,0.07 -0.228,0.139 -0.342,0.207 l -0.343,0.203 c -0.113,0.065 -0.228,0.132 -0.342,0.197 -0.113,0.064 -0.228,0.128 -0.342,0.191 -0.114,0.062 -0.228,0.127 -0.343,0.188 -0.113,0.062 -0.227,0.12 -0.342,0.181 -0.113,0.061 -0.227,0.121 -0.342,0.181 -0.113,0.058 -0.229,0.113 -0.342,0.171 -0.113,0.057 -0.228,0.113 -0.342,0.169 -0.113,0.056 -0.229,0.109 -0.342,0.163 l -0.343,0.16 -0.342,0.154 c -0.113,0.051 -0.228,0.101 -0.342,0.15 -0.114,0.049 -0.228,0.1 -0.342,0.148 -0.114,0.047 -0.228,0.092 -0.343,0.139 -0.113,0.047 -0.227,0.095 -0.342,0.141 -0.113,0.045 -0.228,0.088 -0.342,0.131 -0.113,0.045 -0.228,0.088 -0.342,0.131 l -0.342,0.126 c -0.114,0.041 -0.229,0.081 -0.342,0.12 -0.115,0.04 -0.228,0.082 -0.343,0.12 -0.113,0.038 -0.228,0.074 -0.342,0.111 l -0.342,0.11 c -0.114,0.037 -0.228,0.071 -0.343,0.105 l -0.342,0.102 c -0.113,0.034 -0.227,0.068 -0.342,0.101 -0.113,0.032 -0.229,0.062 -0.342,0.093 -0.113,0.031 -0.228,0.062 -0.342,0.092 l -0.342,0.087 -0.342,0.083 -0.343,0.082 c -0.113,0.025 -0.228,0.049 -0.342,0.074 -0.114,0.025 -0.228,0.051 -0.343,0.074 l -0.342,0.068 -0.342,0.066 c -0.113,0.021 -0.228,0.044 -0.342,0.064 -0.113,0.02 -0.229,0.037 -0.342,0.057 l -0.342,0.057 -0.342,0.051 -0.342,0.048 c -0.115,0.016 -0.229,0.033 -0.343,0.048 -0.114,0.015 -0.228,0.025 -0.342,0.039 -0.114,0.014 -0.228,0.027 -0.343,0.039 -0.113,0.013 -0.227,0.025 -0.342,0.036 -0.113,0.011 -0.228,0.021 -0.342,0.03 -0.114,0.009 -0.229,0.021 -0.342,0.03 -0.113,0.009 -0.229,0.016 -0.342,0.024 l -0.342,0.021 c -0.115,0.006 -0.229,0.015 -0.342,0.02 -0.114,0.006 -0.229,0.01 -0.343,0.014 l -0.342,0.014 -0.343,0.008 c -0.113,0.003 -0.228,0.003 -0.342,0.005 l -0.342,0.005 -0.07,0 -0.271,0 -0.342,0 -0.342,0 -0.342,0 -0.343,0 -0.342,0 -0.343,0 -0.342,0 -0.342,0 -0.342,0 -0.342,0 -0.342,0 -0.342,0 -0.342,0 -0.343,0 -0.343,0 -0.342,0 -0.342,0 -0.342,0 -0.342,0 -0.342,0 -0.342,0 -0.342,0 -0.343,0 -0.342,0 -0.343,0 -0.342,0 -0.342,0 -0.342,0 -0.342,0 -0.342,0 -0.342,0 -0.343,0 -0.342,0 -0.343,0 -0.315,0 -0.342,0 -0.342,0 -0.342,0 -0.342,0 -0.342,0 -0.343,0 -0.342,0 -0.343,0 -0.342,0 -0.342,0 -0.342,0 -0.342,0 -0.342,0 -0.342,0 -0.342,0 -0.343,0 -0.342,0 -0.343,0 -0.342,0 -0.342,0 -0.342,0 -0.342,0 -0.342,0 -0.342,0 -0.343,0 -0.342,0 -0.342,0 -0.343,0 -0.342,0 -0.342,0 -0.342,0 -0.342,0 -0.342,0 -0.342,0 -0.343,0 -0.342,0 -0.342,0 -0.343,0 -0.342,0 -0.342,0 -0.342,0 -0.342,0 -0.342,0 -0.342,0 -0.343,0 -0.342,0 -0.343,0 -0.342,0 -0.342,0 -0.342,0 -0.342,0 -0.342,0 -0.342,0 -0.342,0 -0.343,0 -0.342,0 -0.343,0 -0.342,0 -0.342,0 -0.342,0 -0.342,0 -0.342,0 -0.342,0 -0.343,0 -0.342,0 -0.343,0 -0.342,0 -0.342,0 -0.342,0 -0.342,0 -0.342,0 -0.342,0 -0.343,0 -0.342,0 -0.343,0 -0.342,0 -0.342,0 -0.342,0 -0.342,0 -0.342,0 -0.342,0 -0.342,0 -0.343,0 -0.343,0 -0.342,0 -0.342,0 -0.342,0 -0.342,0 -0.342,0 -0.342,0 -0.342,0 -0.343,0 -0.342,0 -0.343,0 -0.342,0 -0.342,0 -0.342,0 -0.342,0 -0.342,0 -0.342,0 -0.343,0 -0.342,0 -0.343,0 -0.342,0 -0.342,0 -0.342,0 -0.342,0 -0.342,0 -0.342,0 -0.343,0 -0.342,0 -0.343,0 -0.342,0 -0.342,0 -0.737,0 0,-72.238 0.737,0 0.342,0 0.342,0 0.343,0 0.342,0 0.343,0 0.342,0 0.342,0 0.342,0 0.342,0 0.342,0 0.342,0 0.343,0 0.342,0 0.343,0 0.342,0 0.342,0 0.342,0 0.342,0 0.342,0 0.342,0 0.343,0 0.342,0 0.343,0 0.342,0 0.342,0 0.342,0 0.342,0 0.342,0 0.342,0 0.342,0 0.343,0 0.343,0 0.342,0 0.342,0 0.342,0 0.342,0 0.342,0 0.342,0 0.342,0 0.343,0 0.342,0 0.343,0 0.342,0 0.342,0 0.342,0 0.342,0 0.342,0 0.342,0 0.343,0 0.342,0 0.343,0 0.342,0 0.342,0 0.342,0 0.342,0 0.342,0 0.342,0 0.343,0 0.342,0 0.343,0 0.342,0 0.342,0 0.342,0 0.342,0 0.342,0 0.342,0 0.342,0 0.343,0 0.342,0 0.343,0 0.342,0 0.342,0 0.342,0 0.342,0 0.342,0 0.342,0 0.343,0 0.342,0 0.342,0 0.343,0 0.342,0 0.342,0 0.342,0 0.342,0 0.342,0 0.342,0 0.343,0 0.342,0 0.342,0 0.343,0 0.342,0 0.342,0 0.342,0 0.342,0 0.342,0 0.342,0 0.343,0 0.342,0 0.343,0 0.342,0 0.342,0 0.342,0 0.342,0 0.342,0 0.342,0 0.342,0 0.343,0 0.342,0 0.343,0 0.342,0 0.342,0 0.342,0 0.342,0 0.342,0 0.342,0 0.343,0 0.342,0 0.343,0 0.342,0 0.342,0 0.342,0 0.342,0 0.342,0 0.342,0 0.343,0 0.342,0 0.343,0 0.342,0 0.342,0 0.342,0 0.342,0 0.342,0 0.342,0 0.342,0 0.343,0 0.343,0 0.342,0 0.342,0 0.342,0 0.342,0 0.342,0 0.342,0 0.342,0 0.343,0 0.342,0 0.343,0 0.342,0 0.342,0 0.342,0 0.342,0 0.342,0 0.342,0 0.343,0 0.342,0 0.343,0 0.342,0 0.342,0 0.342,0 0.182,0 0.16,-0.002 0.342,-0.002 0.342,-0.008 c 0.115,-0.003 0.229,-0.004 0.343,-0.008 0.114,-0.004 0.228,-0.01 0.342,-0.016 l 0.343,-0.016 0.342,-0.021 0.342,-0.023 0.342,-0.026 0.342,-0.031 c 0.113,-0.012 0.229,-0.021 0.342,-0.033 0.115,-0.012 0.229,-0.025 0.342,-0.039 l 0.342,-0.042 c 0.115,-0.015 0.229,-0.028 0.343,-0.044 0.114,-0.017 0.228,-0.034 0.342,-0.051 0.114,-0.018 0.229,-0.035 0.343,-0.053 l 0.342,-0.058 0.342,-0.062 c 0.113,-0.021 0.229,-0.042 0.342,-0.064 0.115,-0.023 0.229,-0.047 0.342,-0.07 l 0.342,-0.074 c 0.115,-0.025 0.229,-0.051 0.342,-0.078 0.115,-0.027 0.229,-0.056 0.343,-0.084 0.114,-0.028 0.229,-0.057 0.342,-0.087 0.114,-0.03 0.229,-0.061 0.342,-0.092 0.114,-0.031 0.229,-0.064 0.343,-0.098 0.113,-0.033 0.229,-0.067 0.342,-0.102 l 0.342,-0.106 c 0.115,-0.037 0.229,-0.075 0.342,-0.113 0.115,-0.039 0.229,-0.077 0.342,-0.117 0.115,-0.04 0.229,-0.08 0.342,-0.122 0.115,-0.042 0.229,-0.087 0.343,-0.13 0.114,-0.045 0.228,-0.09 0.342,-0.135 0.114,-0.047 0.229,-0.092 0.342,-0.14 0.114,-0.048 0.229,-0.098 0.342,-0.147 0.115,-0.051 0.229,-0.102 0.343,-0.154 0.114,-0.053 0.229,-0.105 0.342,-0.16 0.114,-0.055 0.229,-0.109 0.342,-0.166 0.115,-0.058 0.229,-0.116 0.342,-0.176 0.115,-0.06 0.229,-0.121 0.342,-0.183 0.115,-0.062 0.229,-0.126 0.342,-0.19 0.115,-0.064 0.23,-0.131 0.343,-0.198 0.114,-0.068 0.229,-0.137 0.342,-0.206 0.115,-0.072 0.229,-0.145 0.342,-0.219 0.116,-0.074 0.229,-0.15 0.343,-0.227 0.115,-0.078 0.229,-0.158 0.342,-0.238 0.115,-0.082 0.229,-0.164 0.342,-0.248 0.115,-0.086 0.229,-0.173 0.342,-0.261 0.115,-0.09 0.229,-0.181 0.342,-0.272 0.115,-0.095 0.229,-0.19 0.342,-0.287 0.116,-0.1 0.23,-0.2 0.342,-0.302 0.116,-0.104 0.23,-0.211 0.343,-0.318 0.116,-0.11 0.229,-0.222 0.342,-0.336 0.116,-0.117 0.229,-0.235 0.343,-0.356 0.115,-0.123 0.229,-0.25 0.342,-0.377 0.115,-0.133 0.23,-0.267 0.342,-0.402 0.116,-0.141 0.23,-0.284 0.342,-0.43 0.116,-0.151 0.231,-0.305 0.342,-0.46 0.117,-0.165 0.23,-0.333 0.342,-0.503 0.118,-0.18 0.232,-0.361 0.342,-0.546 0.119,-0.198 0.232,-0.399 0.342,-0.603 0.119,-0.222 0.234,-0.445 0.343,-0.673 0.121,-0.255 0.235,-0.513 0.342,-0.774 0.123,-0.301 0.237,-0.605 0.343,-0.916 0.129,-0.382 0.242,-0.771 0.342,-1.168 0.146,-0.58 0.26,-1.175 0.342,-1.784 0.1,-0.739 0.151,-1.499 0.151,-2.28 0,-0.761 -0.052,-1.5 -0.151,-2.217 -0.082,-0.59 -0.197,-1.164 -0.342,-1.723 -0.1,-0.382 -0.215,-0.756 -0.342,-1.123 -0.105,-0.301 -0.219,-0.597 -0.343,-0.888 -0.106,-0.252 -0.222,-0.5 -0.342,-0.745 -0.108,-0.219 -0.223,-0.436 -0.343,-0.65 -0.109,-0.196 -0.223,-0.391 -0.342,-0.582 -0.109,-0.178 -0.224,-0.354 -0.342,-0.525 -0.11,-0.164 -0.225,-0.326 -0.342,-0.484 -0.11,-0.15 -0.225,-0.299 -0.342,-0.445 -0.111,-0.14 -0.226,-0.277 -0.342,-0.414 -0.112,-0.131 -0.226,-0.261 -0.342,-0.389 -0.112,-0.123 -0.227,-0.244 -0.342,-0.365 -0.112,-0.115 -0.227,-0.229 -0.343,-0.342 -0.112,-0.109 -0.227,-0.217 -0.342,-0.324 -0.112,-0.104 -0.227,-0.205 -0.343,-0.307 -0.111,-0.098 -0.226,-0.195 -0.342,-0.291 -0.112,-0.094 -0.227,-0.186 -0.342,-0.277 -0.112,-0.089 -0.227,-0.177 -0.342,-0.264 -0.113,-0.085 -0.227,-0.169 -0.342,-0.252 -0.113,-0.081 -0.227,-0.161 -0.342,-0.24 -0.113,-0.077 -0.227,-0.154 -0.342,-0.23 -0.113,-0.074 -0.228,-0.146 -0.343,-0.219 -0.112,-0.071 -0.227,-0.142 -0.342,-0.211 -0.112,-0.068 -0.228,-0.135 -0.342,-0.201 -0.113,-0.064 -0.228,-0.129 -0.343,-0.191 -0.112,-0.062 -0.227,-0.124 -0.342,-0.184 -0.113,-0.061 -0.227,-0.119 -0.342,-0.178 -0.113,-0.057 -0.227,-0.114 -0.342,-0.17 -0.113,-0.055 -0.227,-0.109 -0.342,-0.164 -0.113,-0.053 -0.228,-0.104 -0.342,-0.154 -0.113,-0.051 -0.228,-0.1 -0.343,-0.149 -0.113,-0.048 -0.228,-0.096 -0.342,-0.144 -0.113,-0.046 -0.228,-0.092 -0.342,-0.138 -0.114,-0.044 -0.228,-0.089 -0.342,-0.132 -0.114,-0.042 -0.228,-0.083 -0.343,-0.125 -0.113,-0.041 -0.227,-0.08 -0.342,-0.119 -0.113,-0.039 -0.227,-0.078 -0.342,-0.117 -0.113,-0.037 -0.228,-0.073 -0.342,-0.109 -0.113,-0.035 -0.229,-0.07 -0.342,-0.104 l -0.342,-0.101 c -0.114,-0.032 -0.229,-0.065 -0.343,-0.096 -0.113,-0.031 -0.228,-0.061 -0.342,-0.09 -0.113,-0.029 -0.228,-0.058 -0.342,-0.086 -0.114,-0.028 -0.228,-0.056 -0.343,-0.083 -0.113,-0.027 -0.227,-0.052 -0.342,-0.078 -0.113,-0.025 -0.227,-0.049 -0.342,-0.073 -0.113,-0.023 -0.227,-0.047 -0.342,-0.07 l -0.342,-0.065 -0.342,-0.061 c -0.114,-0.02 -0.229,-0.04 -0.342,-0.058 l -0.343,-0.054 c -0.113,-0.018 -0.228,-0.034 -0.342,-0.049 l -0.343,-0.047 -0.342,-0.043 -0.342,-0.039 -0.342,-0.036 -0.342,-0.032 -0.342,-0.029 -0.316,-0.024 0,-0.41 0.316,-0.049 0.342,-0.056 c 0.114,-0.02 0.229,-0.039 0.342,-0.06 l 0.342,-0.065 c 0.115,-0.023 0.229,-0.046 0.342,-0.07 l 0.342,-0.075 c 0.115,-0.026 0.229,-0.052 0.343,-0.079 0.114,-0.028 0.229,-0.057 0.343,-0.085 0.114,-0.029 0.228,-0.06 0.342,-0.09 0.113,-0.031 0.229,-0.063 0.342,-0.096 0.114,-0.033 0.229,-0.066 0.342,-0.101 0.114,-0.034 0.229,-0.07 0.342,-0.106 0.115,-0.037 0.229,-0.075 0.342,-0.113 0.115,-0.039 0.229,-0.079 0.342,-0.119 0.115,-0.041 0.229,-0.083 0.342,-0.125 0.115,-0.043 0.229,-0.086 0.343,-0.131 0.114,-0.045 0.229,-0.091 0.342,-0.138 0.114,-0.048 0.229,-0.096 0.343,-0.146 0.114,-0.05 0.229,-0.101 0.342,-0.153 0.114,-0.052 0.229,-0.106 0.342,-0.161 0.115,-0.055 0.229,-0.112 0.342,-0.169 0.115,-0.058 0.229,-0.117 0.342,-0.177 0.115,-0.061 0.229,-0.123 0.342,-0.186 0.115,-0.064 0.229,-0.129 0.342,-0.195 0.115,-0.067 0.23,-0.135 0.343,-0.205 0.115,-0.071 0.229,-0.142 0.342,-0.215 0.115,-0.074 0.229,-0.149 0.342,-0.226 0.116,-0.078 0.229,-0.157 0.343,-0.237 0.115,-0.082 0.229,-0.165 0.342,-0.25 0.115,-0.086 0.229,-0.174 0.342,-0.263 0.115,-0.091 0.229,-0.183 0.342,-0.276 0.115,-0.096 0.229,-0.194 0.342,-0.293 0.116,-0.102 0.23,-0.206 0.342,-0.31 0.116,-0.108 0.23,-0.218 0.342,-0.328 0.117,-0.115 0.23,-0.23 0.343,-0.347 0.116,-0.123 0.23,-0.246 0.342,-0.372 0.116,-0.13 0.23,-0.263 0.342,-0.396 0.117,-0.14 0.231,-0.281 0.343,-0.424 0.117,-0.151 0.23,-0.304 0.342,-0.459 0.117,-0.164 0.23,-0.33 0.342,-0.498 0.117,-0.179 0.232,-0.36 0.342,-0.543 0.119,-0.199 0.232,-0.399 0.342,-0.603 0.12,-0.224 0.234,-0.45 0.342,-0.678 0.122,-0.258 0.236,-0.519 0.342,-0.782 0.125,-0.308 0.238,-0.619 0.343,-0.935 0.13,-0.396 0.245,-0.799 0.342,-1.208 0.158,-0.663 0.272,-1.338 0.343,-2.026 0.055,-0.543 0.084,-1.093 0.084,-1.648 0,-0.586 -0.029,-1.158 -0.084,-1.716 -0.071,-0.712 -0.186,-1.401 -0.343,-2.065 -0.098,-0.415 -0.212,-0.821 -0.342,-1.216 -0.104,-0.316 -0.218,-0.627 -0.343,-0.932 -0.105,-0.262 -0.221,-0.52 -0.342,-0.772 -0.107,-0.226 -0.223,-0.448 -0.342,-0.666 -0.109,-0.2 -0.223,-0.396 -0.342,-0.59 -0.11,-0.18 -0.225,-0.357 -0.342,-0.532 -0.111,-0.164 -0.225,-0.324 -0.342,-0.483 -0.111,-0.15 -0.225,-0.299 -0.342,-0.445 -0.112,-0.139 -0.226,-0.277 -0.343,-0.413 -0.111,-0.129 -0.226,-0.256 -0.342,-0.381 -0.111,-0.121 -0.226,-0.24 -0.342,-0.357 -0.112,-0.113 -0.226,-0.225 -0.343,-0.335 -0.111,-0.107 -0.226,-0.212 -0.342,-0.316 -0.111,-0.101 -0.227,-0.2 -0.342,-0.298 -0.112,-0.095 -0.227,-0.189 -0.342,-0.282 -0.113,-0.09 -0.227,-0.18 -0.342,-0.267 -0.113,-0.085 -0.227,-0.17 -0.342,-0.253 -0.113,-0.081 -0.227,-0.161 -0.342,-0.24 -0.113,-0.077 -0.227,-0.153 -0.343,-0.228 -0.112,-0.074 -0.228,-0.146 -0.342,-0.218 -0.112,-0.07 -0.228,-0.139 -0.342,-0.207 -0.113,-0.067 -0.228,-0.133 -0.343,-0.198 -0.112,-0.063 -0.227,-0.126 -0.342,-0.188 -0.113,-0.061 -0.227,-0.12 -0.342,-0.18 -0.113,-0.058 -0.227,-0.115 -0.342,-0.172 -0.113,-0.055 -0.227,-0.111 -0.342,-0.164 -0.113,-0.053 -0.228,-0.105 -0.342,-0.157 -0.113,-0.05 -0.228,-0.099 -0.342,-0.148 -0.113,-0.048 -0.229,-0.096 -0.343,-0.143 -0.113,-0.046 -0.228,-0.091 -0.342,-0.136 -0.114,-0.044 -0.228,-0.087 -0.343,-0.13 -0.113,-0.042 -0.227,-0.083 -0.342,-0.124 -0.113,-0.04 -0.227,-0.079 -0.342,-0.117 -0.113,-0.038 -0.227,-0.075 -0.342,-0.112 -0.113,-0.036 -0.227,-0.072 -0.342,-0.107 -0.113,-0.034 -0.228,-0.069 -0.342,-0.102 -0.113,-0.033 -0.229,-0.064 -0.342,-0.095 -0.114,-0.031 -0.229,-0.062 -0.342,-0.091 l -0.343,-0.087 c -0.114,-0.028 -0.228,-0.055 -0.343,-0.082 -0.113,-0.026 -0.227,-0.052 -0.342,-0.077 l -0.342,-0.073 c -0.113,-0.023 -0.227,-0.047 -0.342,-0.069 -0.113,-0.022 -0.229,-0.042 -0.342,-0.063 l -0.342,-0.06 c -0.113,-0.019 -0.228,-0.039 -0.342,-0.057 l -0.342,-0.052 -0.343,-0.048 -0.342,-0.045 -0.343,-0.041 -0.342,-0.037 -0.342,-0.034 -0.342,-0.03 -0.342,-0.026 -0.342,-0.024 -0.342,-0.02 -0.137,-0.007 -0.206,-0.013 -0.342,-0.02 -0.343,-0.019 -0.342,-0.018 -0.342,-0.017 -0.342,-0.015 -0.342,-0.013 -0.342,-0.01 -0.342,-0.008 -0.343,-0.004 -0.188,0 -0.153,0 -0.343,0 -0.342,0 -0.342,0 -0.342,0 -0.342,0 -0.342,0 -0.342,0 -0.342,0 -0.343,0 -0.343,0 -0.342,0 -0.342,0 -0.342,0 -0.342,0 -0.342,0 -0.342,0 -0.342,0 -0.343,0 -0.342,0 -0.343,0 -0.342,0 -0.342,0 -0.342,0 -0.342,0 -0.342,0 -0.342,0 -0.343,0 -0.342,0 -0.343,0 -0.343,0 -0.342,0 -0.342,0 -0.342,0 -0.342,0 -0.342,0 -0.343,0 -0.342,0 -0.342,0 -0.343,0 -0.342,0 -0.342,0 -0.342,0 -0.342,0 -0.342,0 -0.342,0 -0.343,0 -0.342,0 -0.342,0 -0.343,0 -0.342,0 -0.342,0 -0.342,0 -0.342,0 -0.342,0 -0.342,0 -0.343,0 -0.342,0 -0.342,0 -0.343,0 -0.342,0 -0.342,0 -0.342,0 -0.342,0 -0.342,0 -0.342,0 -0.343,0 -0.342,0 -0.343,0 -0.342,0 -0.342,0 -0.342,0 -0.342,0 -0.342,0 -0.342,0 -0.343,0 -0.342,0 -0.343,0 -0.342,0 -0.342,0 -0.342,0 -0.342,0 -0.342,0 -0.342,0 -0.342,0 -0.343,0 -0.342,0 -0.343,0 -0.342,0 -0.342,0 -0.342,0 -0.342,0 -0.342,0 -0.342,0 -0.343,0 -0.342,0 -0.343,0 -0.342,0 -0.342,0 -0.342,0 -0.342,0 -0.342,0 -0.342,0 -0.343,0 -0.342,0 -0.343,0 -0.342,0 -0.342,0 -0.342,0 -0.342,0 -0.342,0 -0.342,0 -0.342,0 -0.343,0 -0.343,0 -0.342,0 -0.342,0 -0.342,0 -0.342,0 -0.342,0 -0.342,0 -0.342,0 -0.343,0 -0.342,0 -0.343,0 -0.342,0 -0.342,0 -0.342,0 -0.342,0 -0.342,0 -0.342,0 -0.343,0 -0.342,0 -0.343,0 -0.342,0 -0.342,0 -0.342,0 -0.342,0 -0.342,0 -0.342,0 -0.343,0 -0.342,0 -0.342,0 -0.343,0 -0.342,0 -0.737,0 0,-36.801 c 0,-2.476 0.255,-4.891 0.737,-7.224 0.104,-0.5 0.219,-0.995 0.342,-1.486 0.107,-0.42 0.222,-0.838 0.343,-1.252 0.108,-0.37 0.222,-0.737 0.342,-1.102 0.109,-0.333 0.224,-0.665 0.342,-0.994 0.11,-0.305 0.224,-0.608 0.343,-0.909 0.11,-0.281 0.225,-0.561 0.342,-0.839 0.111,-0.262 0.225,-0.522 0.342,-0.781 0.111,-0.246 0.226,-0.49 0.342,-0.732 0.111,-0.232 0.227,-0.461 0.342,-0.69 0.111,-0.22 0.227,-0.438 0.342,-0.656 0.112,-0.209 0.227,-0.417 0.342,-0.625 0.113,-0.201 0.227,-0.399 0.343,-0.598 0.112,-0.192 0.226,-0.383 0.342,-0.573 0.112,-0.184 0.227,-0.366 0.343,-0.548 0.111,-0.176 0.227,-0.351 0.342,-0.524 0.112,-0.17 0.227,-0.34 0.342,-0.508 0.113,-0.165 0.226,-0.329 0.342,-0.492 0.112,-0.157 0.227,-0.313 0.342,-0.469 0.113,-0.153 0.228,-0.305 0.342,-0.456 0.113,-0.149 0.227,-0.298 0.342,-0.445 0.113,-0.143 0.229,-0.284 0.343,-0.425 0.112,-0.139 0.228,-0.277 0.342,-0.415 0.113,-0.135 0.228,-0.271 0.343,-0.405 0.111,-0.13 0.227,-0.258 0.342,-0.387 0.113,-0.127 0.227,-0.255 0.342,-0.381 0.113,-0.124 0.227,-0.246 0.342,-0.368 0.113,-0.12 0.227,-0.239 0.342,-0.358 0.113,-0.117 0.227,-0.234 0.342,-0.35 0.113,-0.114 0.229,-0.226 0.342,-0.337 0.114,-0.112 0.227,-0.224 0.342,-0.334 0.113,-0.107 0.229,-0.212 0.343,-0.318 0.114,-0.105 0.228,-0.211 0.343,-0.315 0.112,-0.103 0.227,-0.203 0.342,-0.303 0.113,-0.1 0.227,-0.2 0.342,-0.299 0.113,-0.097 0.227,-0.193 0.342,-0.289 0.113,-0.095 0.227,-0.189 0.342,-0.283 0.113,-0.093 0.228,-0.184 0.342,-0.275 l 0.342,-0.269 0.342,-0.262 c 0.114,-0.086 0.229,-0.171 0.343,-0.255 0.113,-0.084 0.228,-0.167 0.342,-0.25 l 0.343,-0.243 c 0.113,-0.08 0.227,-0.159 0.342,-0.237 l 0.342,-0.231 0.342,-0.226 c 0.113,-0.074 0.228,-0.147 0.342,-0.22 l 0.342,-0.214 c 0.114,-0.07 0.229,-0.141 0.342,-0.21 0.113,-0.068 0.229,-0.135 0.343,-0.202 0.114,-0.067 0.228,-0.135 0.342,-0.201 0.113,-0.065 0.228,-0.127 0.343,-0.191 0.113,-0.064 0.227,-0.128 0.342,-0.191 0.113,-0.062 0.228,-0.121 0.342,-0.182 0.113,-0.061 0.227,-0.121 0.342,-0.18 0.113,-0.059 0.228,-0.116 0.342,-0.173 0.113,-0.057 0.228,-0.114 0.342,-0.17 l 0.342,-0.165 c 0.114,-0.054 0.229,-0.107 0.343,-0.16 0.114,-0.053 0.228,-0.106 0.342,-0.158 0.113,-0.051 0.228,-0.1 0.343,-0.149 0.113,-0.05 0.227,-0.101 0.342,-0.149 0.113,-0.048 0.228,-0.094 0.342,-0.141 0.113,-0.047 0.227,-0.094 0.342,-0.14 l 0.342,-0.135 0.342,-0.13 c 0.114,-0.043 0.228,-0.086 0.342,-0.128 0.113,-0.041 0.229,-0.08 0.342,-0.12 0.115,-0.041 0.229,-0.082 0.343,-0.121 0.113,-0.039 0.228,-0.076 0.342,-0.113 l 0.343,-0.111 c 0.113,-0.036 0.227,-0.073 0.342,-0.108 0.113,-0.035 0.228,-0.068 0.342,-0.102 0.113,-0.034 0.227,-0.069 0.342,-0.102 0.113,-0.032 0.229,-0.062 0.342,-0.094 0.114,-0.031 0.228,-0.062 0.342,-0.093 l 0.342,-0.088 c 0.114,-0.028 0.229,-0.056 0.343,-0.083 0.114,-0.028 0.228,-0.057 0.342,-0.083 0.113,-0.026 0.228,-0.05 0.343,-0.075 l 0.342,-0.075 0.342,-0.07 c 0.113,-0.023 0.228,-0.044 0.342,-0.065 0.113,-0.022 0.228,-0.045 0.342,-0.066 0.113,-0.021 0.229,-0.038 0.342,-0.058 l 0.342,-0.057 c 0.114,-0.018 0.229,-0.037 0.343,-0.054 0.113,-0.017 0.228,-0.032 0.342,-0.048 0.114,-0.016 0.228,-0.033 0.342,-0.048 0.114,-0.015 0.228,-0.028 0.343,-0.042 l 0.342,-0.039 c 0.113,-0.013 0.227,-0.026 0.342,-0.038 0.113,-0.011 0.229,-0.02 0.342,-0.03 l 0.342,-0.03 0.342,-0.026 c 0.114,-0.008 0.229,-0.015 0.342,-0.021 0.114,-0.007 0.229,-0.016 0.343,-0.021 0.113,-0.006 0.228,-0.009 0.342,-0.014 l 0.342,-0.013 c 0.114,-0.004 0.228,-0.009 0.343,-0.011 0.113,-0.002 0.228,-0.003 0.342,-0.004 0.113,-0.002 0.228,-0.004 0.342,-0.004 l 0.086,-0.001 0.256,0 0.342,0 0.342,0 0.342,0 0.343,0 0.342,0 0.342,0 0.343,0 0.342,0 0.342,0 0.342,0 0.342,0 0.342,0 0.342,0 0.343,0 0.342,0 0.343,0 0.342,0 0.342,0 0.342,0 0.342,0 0.342,0 0.342,0 0.343,0 0.342,0 0.343,0 0.342,0 0.342,0 0.342,0 0.342,0 0.342,0 0.342,0 0.342,0 0.343,0 0.343,0 0.342,0 0.342,0 0.342,0 0.342,0 0.342,0 0.342,0 0.342,0 0.343,0 0.342,0 0.343,0 0.342,0 0.342,0 0.342,0 0.342,0 0.342,0 0.342,0 0.343,0 0.342,0 0.343,0 0.342,0 0.342,0 0.342,0 0.342,0 0.342,0 0.342,0 0.343,0 0.342,0 0.343,0 0.342,0 0.342,0 0.342,0 0.342,0 0.342,0 0.342,0 0.342,0 0.343,0 0.343,0 0.342,0 0.342,0 0.342,0 0.342,0 0.342,0 0.342,0 0.342,0 0.343,0 0.342,0 0.343,0 0.342,0 0.342,0 0.342,0 0.342,0 0.342,0 0.342,0 0.343,0 0.342,0 0.342,0 0.343,0 0.342,0 0.342,0 0.342,0 0.342,0 0.342,0 0.342,0 0.343,0 0.342,0 0.342,0 0.343,0 0.342,0 0.342,0 0.342,0 0.342,0 0.342,0 0.342,0 0.343,0 0.342,0 0.343,0 0.342,0 0.342,0 0.342,0 0.342,0 0.342,0 0.342,0 0.342,0 0.343,0 0.342,0 0.343,0 0.342,0 0.342,0 0.342,0 0.342,0 0.342,0 0.342,0 0.343,0 0.342,0 0.343,0 0.342,0 0.342,0 0.342,0 0.342,0 0.342,0 0.342,0 0.343,0 0.343,0 0.342,0 0.342,0 0.342,0 0.342,0 0.342,0 0.342,0 0.342,0 0.343,0 0.342,0 0.343,0 0.342,0 0.342,0 0.342,0 0.314,0 0,-0.002 0,0 z" id="path8" style="fill:url(#SVGID_1_)"/><linearGradient gradientTransform="matrix(2.8346,0,0,-2.8346,374.9671,1052.5471)" gradientUnits="userSpaceOnUse" id="SVGID_2_" x1="-132.28081" x2="-101.4482" y1="333.81451" y2="333.81451"><stop id="stop11" offset="0" style="stop-color:#1D2970"/><stop id="stop13" offset="1" style="stop-color:#006DBA"/></linearGradient><path d="M 0.733,123.3 C 0.488,123.183 0.244,123.066 0,122.948 L 0,35.437 c 0,-2.469 0.253,-4.878 0.733,-7.204 0.103,-0.5 0.218,-0.995 0.341,-1.486 0.106,-0.421 0.22,-0.839 0.341,-1.253 0.108,-0.37 0.222,-0.736 0.341,-1.101 0.109,-0.333 0.223,-0.666 0.342,-0.995 0.11,-0.305 0.223,-0.608 0.341,-0.908 0.11,-0.281 0.224,-0.562 0.341,-0.84 0.111,-0.262 0.225,-0.522 0.341,-0.78 0.111,-0.246 0.225,-0.49 0.341,-0.732 0.111,-0.232 0.226,-0.462 0.342,-0.691 0.111,-0.22 0.225,-0.438 0.341,-0.655 0.112,-0.209 0.226,-0.417 0.341,-0.625 0.112,-0.201 0.226,-0.4 0.341,-0.598 C 4.939,17.377 5.053,17.185 5.168,16.995 5.28,16.811 5.395,16.629 5.51,16.448 5.622,16.272 5.737,16.097 5.851,15.924 5.963,15.754 6.077,15.585 6.192,15.417 6.305,15.252 6.418,15.087 6.533,14.924 6.645,14.767 6.76,14.612 6.874,14.456 6.987,14.303 7.101,14.151 7.216,14 7.329,13.851 7.442,13.702 7.557,13.555 7.669,13.412 7.784,13.272 7.898,13.131 8.011,12.992 8.125,12.853 8.239,12.716 8.352,12.581 8.466,12.446 8.58,12.312 8.693,12.181 8.807,12.053 8.922,11.924 9.035,11.797 9.148,11.669 9.263,11.543 9.375,11.419 9.49,11.298 9.604,11.176 c 0.113,-0.121 0.227,-0.24 0.341,-0.358 0.113,-0.117 0.227,-0.234 0.341,-0.35 0.113,-0.114 0.228,-0.226 0.342,-0.337 0.114,-0.111 0.226,-0.224 0.341,-0.333 0.112,-0.107 0.227,-0.212 0.341,-0.318 0.114,-0.105 0.227,-0.211 0.341,-0.316 0.113,-0.102 0.228,-0.202 0.341,-0.303 0.114,-0.1 0.227,-0.2 0.342,-0.299 0.113,-0.097 0.227,-0.193 0.341,-0.289 0.113,-0.095 0.227,-0.19 0.341,-0.284 0.113,-0.092 0.227,-0.184 0.341,-0.275 0.113,-0.09 0.227,-0.18 0.341,-0.269 C 13.811,7.357 13.926,7.27 14.04,7.183 14.153,7.098 14.267,7.012 14.381,6.927 L 14.722,6.678 C 14.835,6.596 14.949,6.514 15.063,6.434 15.176,6.354 15.29,6.276 15.404,6.198 15.517,6.12 15.631,6.042 15.745,5.966 15.858,5.89 15.973,5.816 16.087,5.741 16.2,5.667 16.314,5.593 16.428,5.52 16.541,5.448 16.655,5.377 16.769,5.307 16.883,5.237 16.996,5.165 17.11,5.096 17.223,5.028 17.338,4.961 17.451,4.894 17.565,4.827 17.678,4.759 17.793,4.693 17.906,4.628 18.021,4.566 18.134,4.502 18.247,4.438 18.361,4.374 18.475,4.311 18.588,4.249 18.703,4.189 18.816,4.129 18.93,4.068 19.043,4.008 19.157,3.948 19.27,3.889 19.385,3.832 19.499,3.774 L 19.84,3.605 c 0.113,-0.056 0.227,-0.112 0.341,-0.166 0.113,-0.054 0.228,-0.106 0.341,-0.16 0.114,-0.053 0.227,-0.107 0.341,-0.159 0.113,-0.051 0.228,-0.1 0.342,-0.149 0.113,-0.05 0.227,-0.101 0.341,-0.149 0.113,-0.048 0.228,-0.095 0.341,-0.142 l 0.341,-0.14 0.341,-0.135 0.342,-0.13 c 0.114,-0.043 0.227,-0.087 0.341,-0.129 0.113,-0.042 0.228,-0.08 0.341,-0.121 0.114,-0.04 0.227,-0.081 0.341,-0.12 l 0.341,-0.114 0.342,-0.11 C 24.73,1.644 24.844,1.607 24.958,1.572 25.071,1.537 25.186,1.504 25.299,1.47 25.413,1.436 25.526,1.401 25.64,1.368 25.753,1.335 25.868,1.305 25.981,1.274 L 26.323,1.181 C 26.436,1.151 26.55,1.12 26.664,1.091 26.777,1.062 26.892,1.036 27.005,1.008 27.118,0.98 27.232,0.951 27.346,0.925 27.459,0.899 27.574,0.874 27.687,0.848 L 28.029,0.774 C 28.142,0.75 28.256,0.725 28.37,0.702 28.483,0.679 28.598,0.658 28.711,0.637 28.825,0.615 28.938,0.592 29.052,0.572 29.166,0.551 29.28,0.533 29.393,0.513 L 29.735,0.456 C 29.848,0.438 29.962,0.418 30.076,0.401 30.189,0.383 30.304,0.369 30.417,0.353 30.53,0.337 30.644,0.32 30.758,0.305 l 0.341,-0.042 0.342,-0.039 c 0.114,-0.013 0.227,-0.027 0.341,-0.039 0.113,-0.012 0.228,-0.02 0.341,-0.031 l 0.341,-0.03 c 0.114,-0.01 0.228,-0.019 0.341,-0.027 0.113,-0.008 0.228,-0.015 0.342,-0.022 0.114,-0.007 0.227,-0.015 0.341,-0.021 0.113,-0.006 0.227,-0.01 0.341,-0.016 l 0.342,-0.013 c 0.114,-0.004 0.227,-0.01 0.341,-0.013 0.113,-0.003 0.228,-0.003 0.341,-0.004 0.114,-0.002 0.228,-0.004 0.341,-0.004 l 0.152,-0.002 0.189,0 0.342,0 0.341,0 0.341,0 0.341,0 0.341,0 0.342,0 0.341,0 0.341,0 0.341,0 0.341,0 0.342,0 0.341,0 0.341,0 0.341,0 0.341,0 0.342,0 0.341,0 0.341,0 0.341,0 0.341,0 0.342,0 0.341,0 0.341,0 0.341,0 0.341,0 0.342,0 0.341,0 0.341,0 0.341,0 0.341,0 0.342,0 0.341,0 0.341,0 0.341,0 0.341,0 0.341,0 0.342,0 0.341,0 0.341,0 0.341,0 0.341,0 0.342,0 0.341,0 0.341,0 0.341,0 0.341,0 0.342,0 0.341,0 0.372,0 0.341,0 0.341,0 0.342,0 0.341,0 0.341,0 0.341,0 0.341,0 0.342,0 0.341,0 0.341,0 0.341,0 0.341,0 0.342,0 0.341,0 0.341,0 0.341,0 0.341,0 0.342,0 0.341,0 0.341,0 0.341,0 0.341,0 0.342,0 0.341,0 0.341,0 0.341,0 0.341,0 0.342,0 0.341,0 0.341,0 0.341,0 0.341,0 0.342,0 0.341,0 0.341,0 0.341,0 0.341,0 0.341,0 0.342,0 0.341,0 0.341,0 0.341,0 0.342,0 0.341,0 0.341,0 0.341,0 0.341,0 0.342,0 0.341,0 0.341,0 0.341,0 0.341,0 0.341,0 0.342,0 0.341,0 0.341,0 0.341,0 0.342,0 0.341,0 0.341,0 0.341,0 0.341,0 0.341,0 0.342,0 0.341,0 0.341,0 0.341,0 0.341,0 0.341,0 0.341,0 0.341,0 0.342,0 0.341,0 0.341,0 0.341,0 0.342,0 0.341,0 0.341,0 0.341,0 0.341,0 0.341,0 0.342,0 0.341,0 0.341,0 0.341,0 0.341,0 0.342,0 0.341,0 0.341,0 0.341,0 0.341,0 0.342,0 0.341,0 0.341,0 0.341,0 0.341,0 0.342,0 0.341,0 0.341,0 0.341,0 0.341,0 0.342,0 0.29,0 0,177.171 c 0,1.541 -0.099,3.06 -0.29,4.549 -0.092,0.717 -0.208,1.427 -0.342,2.129 -0.102,0.535 -0.215,1.066 -0.341,1.592 -0.106,0.443 -0.219,0.883 -0.341,1.319 -0.107,0.383 -0.222,0.763 -0.341,1.141 -0.109,0.342 -0.223,0.681 -0.341,1.019 -0.11,0.312 -0.224,0.622 -0.342,0.93 -0.11,0.289 -0.224,0.574 -0.341,0.858 -0.11,0.267 -0.225,0.533 -0.341,0.797 -0.111,0.251 -0.225,0.5 -0.341,0.747 -0.111,0.236 -0.225,0.471 -0.341,0.704 -0.112,0.224 -0.226,0.446 -0.342,0.668 -0.111,0.213 -0.225,0.425 -0.341,0.635 -0.112,0.204 -0.225,0.406 -0.341,0.606 -0.112,0.194 -0.226,0.387 -0.341,0.579 -0.112,0.185 -0.226,0.368 -0.341,0.552 -0.112,0.179 -0.226,0.356 -0.342,0.533 -0.113,0.173 -0.226,0.345 -0.341,0.516 -0.112,0.165 -0.226,0.329 -0.341,0.492 -0.112,0.16 -0.226,0.318 -0.341,0.476 -0.113,0.155 -0.226,0.31 -0.341,0.463 -0.113,0.149 -0.227,0.298 -0.342,0.446 -0.112,0.145 -0.227,0.287 -0.341,0.43 -0.113,0.141 -0.226,0.281 -0.341,0.42 -0.112,0.137 -0.227,0.27 -0.341,0.404 -0.113,0.132 -0.227,0.264 -0.341,0.394 -0.113,0.128 -0.226,0.258 -0.341,0.385 -0.113,0.124 -0.228,0.246 -0.342,0.369 -0.113,0.121 -0.226,0.243 -0.341,0.363 -0.113,0.118 -0.227,0.233 -0.341,0.35 -0.113,0.114 -0.227,0.229 -0.341,0.343 -0.113,0.111 -0.227,0.223 -0.342,0.333 -0.113,0.108 -0.227,0.216 -0.341,0.323 -0.113,0.105 -0.226,0.213 -0.341,0.317 -0.113,0.103 -0.227,0.204 -0.341,0.306 -0.114,0.101 -0.226,0.203 -0.341,0.303 -0.112,0.098 -0.228,0.192 -0.341,0.289 -0.114,0.096 -0.227,0.192 -0.341,0.287 -0.113,0.093 -0.228,0.184 -0.341,0.275 -0.113,0.091 -0.227,0.184 -0.342,0.273 -0.113,0.088 -0.228,0.174 -0.341,0.262 -0.114,0.086 -0.227,0.174 -0.341,0.259 -0.113,0.085 -0.228,0.167 -0.341,0.249 -0.114,0.083 -0.227,0.166 -0.341,0.248 -0.113,0.079 -0.228,0.158 -0.341,0.236 -0.114,0.078 -0.227,0.158 -0.342,0.236 -0.113,0.075 -0.228,0.149 -0.341,0.225 -0.114,0.074 -0.227,0.15 -0.341,0.225 -0.113,0.072 -0.228,0.142 -0.341,0.213 -0.114,0.07 -0.227,0.143 -0.342,0.213 -0.113,0.068 -0.228,0.136 -0.341,0.203 -0.113,0.067 -0.227,0.136 -0.341,0.202 -0.113,0.065 -0.227,0.13 -0.341,0.194 -0.114,0.063 -0.227,0.127 -0.341,0.189 -0.114,0.062 -0.227,0.125 -0.341,0.186 l -0.342,0.181 c -0.114,0.06 -0.227,0.118 -0.341,0.177 -0.113,0.057 -0.227,0.113 -0.341,0.17 -0.114,0.056 -0.227,0.113 -0.341,0.168 -0.113,0.055 -0.228,0.107 -0.341,0.16 -0.114,0.053 -0.227,0.107 -0.342,0.16 -0.113,0.051 -0.228,0.1 -0.341,0.15 l -0.341,0.149 -0.341,0.146 c -0.114,0.047 -0.228,0.093 -0.342,0.139 -0.114,0.047 -0.227,0.094 -0.341,0.139 -0.113,0.045 -0.227,0.086 -0.341,0.13 -0.114,0.043 -0.227,0.087 -0.341,0.13 -0.114,0.041 -0.228,0.082 -0.341,0.123 l -0.341,0.119 -0.342,0.117 c -0.113,0.038 -0.228,0.074 -0.341,0.111 -0.113,0.037 -0.227,0.074 -0.341,0.11 -0.113,0.036 -0.228,0.068 -0.341,0.103 l -0.341,0.102 -0.342,0.098 c -0.113,0.031 -0.227,0.062 -0.341,0.092 -0.114,0.031 -0.227,0.062 -0.341,0.092 -0.113,0.029 -0.228,0.056 -0.341,0.084 -0.114,0.027 -0.228,0.057 -0.341,0.083 l -0.342,0.079 -0.341,0.074 c -0.114,0.024 -0.227,0.051 -0.341,0.074 -0.114,0.023 -0.228,0.043 -0.341,0.065 -0.113,0.022 -0.228,0.044 -0.341,0.065 l -0.342,0.062 c -0.113,0.021 -0.227,0.038 -0.341,0.057 -0.114,0.019 -0.227,0.039 -0.341,0.057 -0.113,0.018 -0.228,0.032 -0.341,0.049 l -0.341,0.048 c -0.114,0.016 -0.228,0.031 -0.342,0.045 -0.113,0.014 -0.228,0.026 -0.341,0.039 -0.114,0.014 -0.227,0.027 -0.341,0.039 -0.114,0.012 -0.228,0.022 -0.341,0.033 l -0.341,0.03 c -0.114,0.01 -0.228,0.021 -0.342,0.03 -0.113,0.008 -0.228,0.014 -0.341,0.021 l -0.341,0.021 -0.341,0.018 c -0.113,0.006 -0.228,0.01 -0.341,0.014 -0.114,0.004 -0.228,0.01 -0.342,0.013 -0.113,0.003 -0.228,0.005 -0.341,0.007 l -0.341,0 c -0.105,0.001 -0.21,0.004 -0.316,0.004 l -0.025,0 -0.341,0 -0.342,0 -0.341,0 -0.341,0 -0.341,0 -0.343,0 -0.342,0 -0.341,0 -0.341,0 -0.341,0 -0.341,0 -0.342,0 -0.342,0 -0.341,0 -0.341,0 -0.341,0 -0.341,0 -0.342,0 -0.341,0 -0.341,0 -0.341,0 -0.341,0 -0.342,0 -0.341,0 -0.341,0 -0.341,0 -0.341,0 -0.342,0 -0.341,0 -0.341,0 -0.341,0 -0.341,0 -0.342,0 -0.341,0 -0.341,0 -0.341,0 -0.341,0 -0.342,0 -0.341,0 -0.341,0 -0.341,0 -0.347,0 -0.342,0 -0.341,0 -0.341,0 -0.341,0 -0.341,0 -0.342,0 -0.342,0 -0.341,0 -0.341,0 -0.341,0 -0.342,0 -0.341,0 -0.341,0 -0.343,0 -0.341,0 -0.341,0 -0.341,0 -0.341,0 -0.342,0 -0.341,0 -0.343,0 -0.341,0 -0.341,0 -0.342,0 -0.341,0 -0.341,0 -0.341,0 -0.341,0 -0.342,0 -0.341,0 -0.341,0 -0.341,0 -0.341,0 -0.342,0 -0.341,0 -0.341,0 -0.341,0 -0.341,0 -0.342,0 -0.341,0 -0.341,0 -0.341,0 -0.345,0 -0.342,0 -0.341,0 -0.341,0 -0.341,0 -0.341,0 -0.342,0 -0.342,0 -0.341,0 -0.341,0 -0.341,0 -0.342,0 -0.341,0 -0.341,0 -0.343,0 -0.341,0 -0.342,0 -0.341,0 -0.341,0 -0.341,0 -0.341,0 -0.343,0 -0.341,0 -0.341,0 -0.341,0 -0.341,0 -0.341,0 -0.342,0 -0.343,0 -0.341,0 -0.341,0 -0.341,0 -0.342,0 -0.341,0 -0.341,0 -0.343,0 -0.341,0 -0.342,0 -0.341,0 -0.341,0 -0.341,0 -0.341,0 -0.343,0 -0.341,0 -0.341,0 -0.341,0 -0.341,0 -0.342,0 -0.341,0 -0.341,0 -0.341,0 -0.341,0 -0.342,0 -0.341,0 -0.341,0 -0.341,0 -0.341,0 -0.342,0 -0.341,0 -0.341,0 -0.341,0 -0.341,0 -0.342,0 -0.341,0 -0.345,0 -0.341,0 -0.733,0 0,-74.676 c 0,0 0.252,0.07 0.733,0.191 l 0.341,0.085 0.341,0.083 0.341,0.082 0.342,0.081 0.341,0.079 0.341,0.078 0.341,0.078 0.341,0.075 0.342,0.075 0.341,0.074 0.341,0.072 0.341,0.072 0.341,0.07 0.342,0.07 0.341,0.069 0.341,0.068 0.341,0.067 0.341,0.066 0.342,0.066 0.341,0.064 0.341,0.063 0.341,0.063 0.341,0.062 0.342,0.062 0.341,0.061 0.341,0.06 0.341,0.06 0.341,0.058 0.342,0.059 0.341,0.057 0.341,0.056 0.341,0.056 0.341,0.055 0.342,0.053 0.341,0.054 0.341,0.052 0.341,0.052 0.341,0.051 0.342,0.05 0.341,0.049 0.341,0.049 0.341,0.049 0.341,0.046 0.341,0.047 0.342,0.046 0.341,0.044 0.341,0.044 0.341,0.043 0.341,0.043 0.342,0.042 0.341,0.042 0.341,0.039 0.341,0.04 0.341,0.039 0.342,0.038 0.341,0.037 0.341,0.037 0.341,0.036 0.341,0.035 0.342,0.034 0.341,0.034 0.341,0.033 0.341,0.032 0.341,0.031 0.342,0.031 0.341,0.029 0.341,0.029 0.341,0.029 0.341,0.027 0.342,0.027 0.341,0.026 0.341,0.026 0.341,0.024 0.341,0.024 0.342,0.023 0.341,0.021 0.341,0.023 0.341,0.021 0.341,0.021 0.342,0.02 0.341,0.019 0.341,0.019 0.341,0.018 0.341,0.016 0.342,0.017 0.341,0.015 0.341,0.014 0.341,0.015 0.341,0.012 0.342,0.013 0.341,0.011 0.341,0.011 0.341,0.01 0.341,0.008 0.342,0.008 0.341,0.008 0.341,0.006 0.342,0.006 0.341,0.006 0.341,0.003 0.341,0.003 0.341,0.003 0.342,0.001 0.341,10e-4 0.132,0.001 0.209,-0.002 0.341,-0.002 0.341,-0.002 0.342,-0.002 0.341,-0.002 0.341,-0.006 0.341,-0.006 0.341,-0.007 0.342,-0.007 0.341,-0.008 0.341,-0.011 0.341,-0.011 0.341,-0.01 0.342,-0.012 0.341,-0.016 0.341,-0.015 0.341,-0.015 0.341,-0.016 0.342,-0.02 0.341,-0.02 0.341,-0.02 0.341,-0.02 0.341,-0.023 0.342,-0.023 0.341,-0.025 0.341,-0.024 0.341,-0.026 0.341,-0.03 0.342,-0.029 0.341,-0.03 0.341,-0.031 0.341,-0.035 0.341,-0.035 0.341,-0.034 0.342,-0.038 0.341,-0.04 0.341,-0.04 0.341,-0.04 0.341,-0.044 0.342,-0.047 0.37,-0.044 0.341,-0.047 c 0.115,-0.016 0.227,-0.034 0.341,-0.051 l 0.341,-0.052 0.342,-0.052 0.341,-0.054 c 0.115,-0.019 0.227,-0.038 0.341,-0.058 l 0.341,-0.057 c 0.113,-0.02 0.229,-0.038 0.341,-0.059 0.115,-0.02 0.227,-0.042 0.342,-0.062 l 0.341,-0.064 0.341,-0.063 0.341,-0.067 c 0.115,-0.021 0.228,-0.047 0.341,-0.07 l 0.342,-0.07 0.341,-0.07 c 0.115,-0.025 0.227,-0.052 0.341,-0.077 l 0.341,-0.077 c 0.113,-0.026 0.229,-0.051 0.341,-0.077 0.115,-0.026 0.228,-0.056 0.342,-0.083 l 0.341,-0.084 c 0.113,-0.028 0.229,-0.056 0.341,-0.084 0.115,-0.029 0.228,-0.061 0.341,-0.09 l 0.341,-0.092 c 0.114,-0.03 0.229,-0.06 0.342,-0.091 0.115,-0.032 0.228,-0.064 0.341,-0.097 l 0.341,-0.1 c 0.113,-0.033 0.229,-0.064 0.341,-0.099 l 0.341,-0.104 0.342,-0.107 c 0.113,-0.035 0.229,-0.07 0.341,-0.107 l 0.341,-0.113 0.341,-0.115 c 0.113,-0.039 0.229,-0.076 0.341,-0.116 0.115,-0.04 0.228,-0.083 0.342,-0.124 l 0.341,-0.124 c 0.113,-0.042 0.229,-0.084 0.341,-0.126 0.115,-0.045 0.228,-0.09 0.341,-0.135 0.114,-0.044 0.229,-0.088 0.341,-0.133 l 0.342,-0.139 0.341,-0.145 c 0.113,-0.047 0.229,-0.094 0.341,-0.143 0.115,-0.051 0.227,-0.103 0.341,-0.154 l 0.341,-0.152 0.341,-0.159 c 0.115,-0.054 0.228,-0.109 0.342,-0.164 0.113,-0.056 0.229,-0.11 0.341,-0.165 0.115,-0.059 0.228,-0.117 0.341,-0.176 0.113,-0.059 0.229,-0.117 0.341,-0.176 0.115,-0.061 0.228,-0.123 0.342,-0.185 0.114,-0.062 0.229,-0.124 0.341,-0.188 0.115,-0.063 0.229,-0.129 0.341,-0.193 0.115,-0.066 0.229,-0.134 0.341,-0.2 0.114,-0.068 0.229,-0.136 0.341,-0.205 0.115,-0.07 0.228,-0.142 0.342,-0.213 0.114,-0.072 0.229,-0.144 0.341,-0.217 0.115,-0.074 0.228,-0.151 0.341,-0.227 0.114,-0.077 0.229,-0.153 0.341,-0.23 0.116,-0.08 0.228,-0.162 0.341,-0.243 0.114,-0.081 0.229,-0.163 0.341,-0.246 0.116,-0.085 0.229,-0.172 0.342,-0.259 0.115,-0.087 0.229,-0.176 0.341,-0.264 0.115,-0.092 0.229,-0.184 0.341,-0.275 0.115,-0.095 0.229,-0.19 0.341,-0.285 0.115,-0.098 0.229,-0.195 0.342,-0.294 0.116,-0.103 0.228,-0.206 0.341,-0.31 0.114,-0.105 0.229,-0.209 0.341,-0.316 0.116,-0.109 0.229,-0.221 0.341,-0.333 0.115,-0.114 0.229,-0.229 0.341,-0.346 0.115,-0.118 0.23,-0.237 0.341,-0.356 0.116,-0.126 0.229,-0.253 0.342,-0.381 0.116,-0.13 0.229,-0.262 0.341,-0.395 0.115,-0.136 0.23,-0.272 0.341,-0.411 0.116,-0.144 0.23,-0.287 0.341,-0.433 0.117,-0.152 0.229,-0.306 0.341,-0.46 0.117,-0.161 0.23,-0.322 0.341,-0.485 0.117,-0.169 0.23,-0.34 0.341,-0.512 0.117,-0.181 0.23,-0.362 0.341,-0.545 0.117,-0.193 0.231,-0.389 0.342,-0.584 0.117,-0.208 0.231,-0.417 0.341,-0.628 0.118,-0.226 0.231,-0.452 0.341,-0.682 0.119,-0.246 0.232,-0.494 0.341,-0.744 0.119,-0.271 0.233,-0.545 0.342,-0.82 0.12,-0.304 0.234,-0.611 0.341,-0.921 0.122,-0.351 0.235,-0.705 0.341,-1.062 0.124,-0.418 0.238,-0.84 0.341,-1.266 0.129,-0.529 0.243,-1.063 0.341,-1.604 0.146,-0.805 0.259,-1.623 0.341,-2.451 0.115,-1.155 0.171,-2.331 0.171,-3.525 l 0,-41.112 -0.171,0 -0.341,0 -0.341,0 -0.341,0 -0.341,0 -0.341,0 -0.342,0 -0.341,0 -0.341,0 -0.341,0 -0.342,0 -0.341,0 -0.341,0 -0.341,0 -0.341,0 -0.341,0 -0.341,0 -0.327,0 -0.342,0 -0.341,0 -0.341,0 -0.341,0 -0.341,0 -0.341,0 -0.343,0 -0.341,0 -0.341,0 -0.341,0 -0.342,0 -0.341,0 -0.341,0 -0.343,0 -0.341,0 -0.341,0 -0.342,0 -0.341,0 -0.341,0 -0.341,0 -0.341,0 -0.342,0 -0.341,0 -0.341,0 -0.341,0 -0.342,0 -0.341,0 -0.341,0 -0.341,0 -0.341,0 -0.341,0 -0.342,0 -0.341,0 -0.341,0 -0.341,0 -0.345,0 -0.342,0 -0.341,0 -0.341,0 -0.341,0 -0.341,0 -0.342,0 -0.341,0 -0.341,0 -0.341,0 -0.341,0 -0.342,0 -0.341,0 -0.341,0 -0.344,0 -0.341,0 -0.342,0 -0.341,0 -0.341,0 -0.341,0 -0.341,0 -0.343,0 -0.341,0 -0.341,0 -0.341,0 -0.341,0 -0.342,0 -0.341,0 -0.343,0 -0.341,0 -0.341,0 -0.342,0 -0.341,0 -0.341,0 -0.341,0 -0.343,0 -0.259,0 0,41.113 c 0,0.644 -0.028,1.277 -0.083,1.898 -0.07,0.791 -0.184,1.562 -0.341,2.312 -0.097,0.463 -0.211,0.918 -0.341,1.363 -0.104,0.355 -0.217,0.705 -0.341,1.049 -0.106,0.293 -0.22,0.582 -0.341,0.865 -0.108,0.254 -0.222,0.503 -0.342,0.749 -0.109,0.224 -0.222,0.445 -0.341,0.663 -0.109,0.2 -0.224,0.396 -0.341,0.59 -0.11,0.184 -0.224,0.364 -0.341,0.542 -0.111,0.167 -0.225,0.331 -0.341,0.493 -0.111,0.154 -0.224,0.308 -0.341,0.458 -0.111,0.144 -0.226,0.283 -0.342,0.422 -0.111,0.134 -0.225,0.265 -0.341,0.394 -0.111,0.125 -0.225,0.248 -0.341,0.369 -0.112,0.117 -0.226,0.232 -0.341,0.346 -0.112,0.11 -0.226,0.219 -0.341,0.326 -0.112,0.103 -0.226,0.203 -0.342,0.305 -0.112,0.097 -0.226,0.193 -0.341,0.287 -0.112,0.092 -0.226,0.182 -0.341,0.271 -0.112,0.087 -0.226,0.172 -0.341,0.257 -0.113,0.082 -0.226,0.163 -0.341,0.243 -0.113,0.078 -0.226,0.154 -0.342,0.23 -0.112,0.073 -0.226,0.146 -0.341,0.217 -0.112,0.07 -0.226,0.139 -0.341,0.206 -0.113,0.066 -0.227,0.131 -0.341,0.194 -0.113,0.063 -0.227,0.124 -0.341,0.185 -0.113,0.06 -0.227,0.118 -0.342,0.175 -0.113,0.057 -0.226,0.111 -0.341,0.166 -0.113,0.054 -0.226,0.106 -0.341,0.158 -0.113,0.05 -0.227,0.1 -0.341,0.148 -0.113,0.048 -0.227,0.094 -0.341,0.139 -0.113,0.045 -0.227,0.09 -0.342,0.133 -0.113,0.042 -0.226,0.084 -0.341,0.125 -0.113,0.04 -0.227,0.08 -0.341,0.118 -0.113,0.038 -0.227,0.075 -0.341,0.11 -0.113,0.035 -0.227,0.07 -0.341,0.104 -0.113,0.033 -0.227,0.066 -0.342,0.098 -0.113,0.031 -0.227,0.062 -0.341,0.092 -0.113,0.029 -0.227,0.058 -0.341,0.085 -0.113,0.027 -0.227,0.054 -0.341,0.079 -0.113,0.025 -0.227,0.051 -0.341,0.074 -0.113,0.023 -0.227,0.046 -0.342,0.068 -0.113,0.021 -0.227,0.041 -0.341,0.062 -0.114,0.02 -0.227,0.04 -0.342,0.058 l -0.341,0.053 c -0.113,0.016 -0.227,0.031 -0.341,0.047 -0.113,0.015 -0.227,0.029 -0.341,0.043 l -0.341,0.037 c -0.113,0.012 -0.227,0.022 -0.341,0.033 -0.114,0.01 -0.227,0.021 -0.342,0.029 -0.113,0.009 -0.227,0.016 -0.341,0.023 -0.113,0.008 -0.228,0.014 -0.341,0.02 -0.113,0.006 -0.227,0.012 -0.341,0.017 -0.113,0.005 -0.228,0.007 -0.341,0.011 l -0.342,0.008 c -0.113,0.002 -0.227,0.002 -0.341,0.004 l -0.128,0 -0.224,0 -0.341,-0.002 -0.341,-0.006 -0.342,-0.007 -0.341,-0.009 -0.341,-0.012 -0.341,-0.014 -0.341,-0.016 -0.342,-0.018 -0.341,-0.02 -0.341,-0.022 -0.341,-0.024 -0.341,-0.026 -0.342,-0.028 -0.341,-0.031 -0.341,-0.032 -0.341,-0.035 -0.341,-0.037 -0.342,-0.039 -0.341,-0.041 -0.341,-0.044 -0.341,-0.045 -0.341,-0.047 -0.342,-0.05 -0.341,-0.051 -0.341,-0.054 -0.341,-0.055 -0.341,-0.059 -0.342,-0.059 -0.341,-0.062 -0.341,-0.063 -0.341,-0.065 -0.341,-0.067 -0.342,-0.068 -0.341,-0.072 -0.341,-0.072 -0.341,-0.075 -0.341,-0.077 -0.342,-0.078 -0.341,-0.081 -0.341,-0.083 -0.341,-0.084 -0.341,-0.086 -0.342,-0.09 -0.341,-0.09 -0.341,-0.092 -0.341,-0.094 -0.341,-0.096 -0.341,-0.097 -0.342,-0.099 -0.341,-0.102 -0.341,-0.104 -0.341,-0.104 -0.341,-0.107 -0.342,-0.108 -0.341,-0.109 -0.341,-0.111 -0.341,-0.114 -0.341,-0.115 -0.342,-0.116 L 9.963,127.116 9.622,126.995 9.281,126.873 8.94,126.75 8.585,126.624 8.244,126.497 7.903,126.368 7.562,126.239 7.221,126.106 6.879,125.973 6.538,125.837 6.197,125.699 5.856,125.561 5.515,125.421 5.173,125.279 4.832,125.135 4.491,124.99 4.15,124.844 3.809,124.696 3.467,124.547 3.126,124.396 2.785,124.245 2.444,124.091 2.103,123.936 1.761,123.779 1.42,123.621 1.079,123.461 0.733,123.3 l 0,0 0,0 z" id="path15" style="fill:url(#SVGID_2_)"/><linearGradient gradientTransform="matrix(2.8346,0,0,-2.8346,374.9671,1052.5471)" gradientUnits="userSpaceOnUse" id="SVGID_3_" x1="-97.697304" x2="-66.8638" y1="333.81451" y2="333.81451"><stop id="stop18" offset="0" style="stop-color:#6E2B2F"/><stop id="stop20" offset="1" style="stop-color:#E30138"/></linearGradient><path d="m 98.764,81.218 c -0.249,0.201 -0.494,0.404 -0.733,0.61 l 0,-46.391 c 0,-2.467 0.253,-4.875 0.733,-7.2 0.103,-0.499 0.217,-0.994 0.341,-1.485 0.106,-0.422 0.221,-0.84 0.342,-1.255 0.108,-0.37 0.222,-0.737 0.341,-1.103 0.109,-0.333 0.223,-0.665 0.341,-0.994 0.11,-0.305 0.223,-0.608 0.342,-0.909 0.11,-0.281 0.224,-0.561 0.341,-0.839 0.111,-0.262 0.225,-0.522 0.341,-0.781 0.111,-0.246 0.226,-0.49 0.342,-0.732 0.111,-0.232 0.225,-0.461 0.341,-0.691 0.111,-0.22 0.226,-0.438 0.342,-0.655 0.111,-0.209 0.226,-0.418 0.341,-0.625 0.112,-0.201 0.226,-0.4 0.342,-0.598 0.112,-0.192 0.226,-0.383 0.341,-0.573 0.112,-0.184 0.226,-0.366 0.341,-0.547 0.112,-0.176 0.227,-0.351 0.341,-0.524 0.113,-0.17 0.226,-0.34 0.341,-0.508 0.113,-0.165 0.226,-0.33 0.342,-0.493 0.112,-0.158 0.227,-0.313 0.341,-0.468 0.113,-0.153 0.227,-0.305 0.341,-0.456 0.113,-0.149 0.226,-0.298 0.341,-0.445 0.112,-0.143 0.228,-0.283 0.342,-0.424 0.113,-0.139 0.227,-0.278 0.341,-0.415 0.113,-0.135 0.227,-0.27 0.341,-0.404 0.113,-0.13 0.227,-0.259 0.341,-0.388 0.113,-0.127 0.227,-0.256 0.342,-0.382 0.112,-0.124 0.227,-0.245 0.341,-0.367 0.113,-0.12 0.227,-0.24 0.341,-0.358 0.114,-0.117 0.227,-0.234 0.342,-0.35 0.113,-0.114 0.227,-0.226 0.341,-0.337 0.114,-0.111 0.227,-0.224 0.341,-0.333 0.113,-0.107 0.228,-0.212 0.341,-0.318 0.113,-0.106 0.227,-0.212 0.342,-0.316 0.113,-0.102 0.227,-0.203 0.341,-0.303 0.113,-0.1 0.227,-0.2 0.341,-0.299 0.113,-0.097 0.227,-0.193 0.341,-0.289 0.114,-0.095 0.227,-0.19 0.342,-0.284 0.113,-0.093 0.227,-0.184 0.341,-0.275 0.113,-0.09 0.227,-0.18 0.341,-0.269 0.113,-0.088 0.227,-0.175 0.341,-0.262 0.113,-0.086 0.227,-0.171 0.341,-0.256 0.113,-0.084 0.228,-0.167 0.342,-0.249 0.113,-0.082 0.227,-0.164 0.341,-0.244 0.113,-0.08 0.227,-0.158 0.341,-0.236 0.114,-0.078 0.227,-0.156 0.341,-0.232 0.113,-0.076 0.228,-0.15 0.342,-0.225 0.113,-0.074 0.227,-0.148 0.341,-0.221 0.113,-0.072 0.227,-0.143 0.341,-0.213 0.114,-0.071 0.227,-0.142 0.341,-0.211 0.113,-0.068 0.228,-0.135 0.342,-0.202 0.114,-0.067 0.227,-0.136 0.341,-0.201 0.113,-0.065 0.228,-0.127 0.341,-0.191 0.114,-0.063 0.227,-0.128 0.341,-0.19 0.113,-0.062 0.228,-0.121 0.341,-0.182 0.113,-0.061 0.227,-0.121 0.342,-0.181 l 0.341,-0.174 0.341,-0.169 c 0.113,-0.056 0.227,-0.112 0.341,-0.166 0.113,-0.054 0.228,-0.107 0.342,-0.16 0.114,-0.053 0.227,-0.107 0.341,-0.159 0.113,-0.051 0.228,-0.1 0.341,-0.149 0.114,-0.05 0.227,-0.101 0.341,-0.149 0.113,-0.048 0.228,-0.095 0.341,-0.142 l 0.342,-0.14 c 0.113,-0.045 0.227,-0.091 0.341,-0.136 0.113,-0.044 0.228,-0.087 0.341,-0.13 0.114,-0.043 0.227,-0.087 0.341,-0.129 0.113,-0.042 0.228,-0.08 0.342,-0.12 0.114,-0.041 0.227,-0.081 0.341,-0.12 0.113,-0.039 0.228,-0.077 0.341,-0.114 l 0.341,-0.111 c 0.114,-0.036 0.228,-0.074 0.342,-0.109 0.113,-0.035 0.228,-0.068 0.341,-0.102 0.113,-0.034 0.227,-0.069 0.341,-0.102 0.113,-0.033 0.228,-0.063 0.341,-0.095 l 0.341,-0.092 c 0.114,-0.03 0.228,-0.061 0.342,-0.09 0.113,-0.029 0.228,-0.056 0.341,-0.083 0.113,-0.028 0.227,-0.057 0.341,-0.083 0.113,-0.026 0.228,-0.051 0.341,-0.077 l 0.342,-0.074 c 0.114,-0.024 0.227,-0.049 0.341,-0.072 0.113,-0.023 0.228,-0.043 0.341,-0.065 0.113,-0.022 0.227,-0.045 0.341,-0.065 l 0.342,-0.059 0.341,-0.057 c 0.114,-0.018 0.227,-0.038 0.341,-0.055 0.113,-0.017 0.228,-0.032 0.341,-0.048 0.114,-0.016 0.228,-0.033 0.341,-0.047 l 0.342,-0.043 0.341,-0.039 c 0.114,-0.013 0.227,-0.027 0.341,-0.039 0.113,-0.012 0.228,-0.021 0.341,-0.031 l 0.342,-0.03 c 0.113,-0.01 0.227,-0.019 0.341,-0.027 0.113,-0.008 0.228,-0.015 0.341,-0.022 0.113,-0.007 0.227,-0.015 0.341,-0.021 0.114,-0.006 0.228,-0.01 0.342,-0.016 l 0.341,-0.013 c 0.114,-0.004 0.227,-0.01 0.341,-0.013 0.113,-0.003 0.228,-0.002 0.341,-0.004 0.114,-0.002 0.228,-0.004 0.342,-0.004 l 0.15,-0.002 0.191,0 0.341,0 0.341,0 0.341,0 0.342,0 0.341,0 0.341,0 0.341,0 0.342,0 0.341,0 0.341,0 0.341,0 0.341,0 0.342,0 0.341,0 0.342,0 0.341,0 0.342,0 0.341,0 0.341,0 0.342,0 0.341,0 0.341,0 0.341,0 0.342,0 0.342,0 0.341,0 0.342,0 0.342,0 0.341,0 0.341,0 0.342,0 0.342,0 0.342,0 0.341,0 0.341,0 0.342,0 0.342,0 0.342,0 0.341,0 0.341,0 0.342,0 0.342,0 0.342,0 0.341,0 0.341,0 0.342,0 0.342,0 0.342,0 0.341,0 0.342,0 0.341,0 0.342,0 0.342,0 0.341,0 0.342,0 0.341,0 0.342,0 0.342,0 0.342,0 0.341,0 0.341,0 0.342,0 0.342,0 0.342,0 0.341,0 0.341,0 0.342,0 0.342,0 0.342,0 0.341,0 0.341,0 0.342,0 0.342,0 0.342,0 0.341,0 0.342,0 0.341,0 0.342,0 0.342,0 0.341,0 0.342,0 0.341,0 0.342,0 0.342,0 0.342,0 0.341,0 0.341,0 0.342,0 0.342,0 0.342,0 0.341,0 0.341,0 0.342,0 0.342,0 0.342,0 0.341,0 0.341,0 0.342,0 0.342,0 0.342,0 0.341,0 0.342,0 0.341,0 0.342,0 0.342,0 0.341,0 0.342,0 0.341,0 0.342,0 0.342,0 0.342,0 0.341,0 0.341,0 0.342,0 0.342,0 0.342,0 0.341,0 0.341,0 0.342,0 0.342,0 0.342,0 0.341,0 0.341,0 0.342,0 0.342,0 0.342,0 0.341,0 0.342,0 0.341,0 0.342,0 0.342,0 0.341,0 0.342,0 0.341,0 0.342,0 0.342,0 0.342,0 0.341,0 0.341,0 0.342,0 0.342,0 0.342,0 0.34,0 0.342,0 0.342,0 0.342,0 0.342,0 0.34,0 0.342,0 0.342,0 0.342,0 0.289,0 0,177.17 c 0,1.541 -0.099,3.059 -0.289,4.547 -0.092,0.717 -0.207,1.426 -0.342,2.129 -0.102,0.535 -0.215,1.065 -0.342,1.592 -0.105,0.443 -0.219,0.883 -0.342,1.32 -0.107,0.383 -0.221,0.763 -0.34,1.141 -0.109,0.342 -0.224,0.68 -0.342,1.018 -0.109,0.312 -0.225,0.623 -0.342,0.931 -0.11,0.287 -0.224,0.573 -0.342,0.856 -0.11,0.268 -0.225,0.534 -0.342,0.799 -0.109,0.25 -0.225,0.498 -0.34,0.746 -0.112,0.236 -0.226,0.472 -0.342,0.705 -0.111,0.224 -0.227,0.445 -0.342,0.667 -0.111,0.213 -0.225,0.425 -0.342,0.636 -0.111,0.203 -0.225,0.406 -0.341,0.607 -0.112,0.193 -0.226,0.386 -0.341,0.577 -0.113,0.186 -0.227,0.369 -0.342,0.552 -0.113,0.18 -0.227,0.357 -0.342,0.533 -0.113,0.172 -0.226,0.346 -0.342,0.516 -0.111,0.166 -0.227,0.329 -0.341,0.492 -0.112,0.16 -0.227,0.318 -0.342,0.477 -0.112,0.154 -0.226,0.31 -0.341,0.463 -0.113,0.148 -0.227,0.297 -0.342,0.444 -0.112,0.145 -0.227,0.288 -0.342,0.431 -0.113,0.141 -0.226,0.281 -0.341,0.42 -0.112,0.137 -0.228,0.271 -0.342,0.404 -0.112,0.133 -0.227,0.264 -0.341,0.394 -0.113,0.129 -0.227,0.258 -0.342,0.386 -0.113,0.123 -0.228,0.245 -0.342,0.368 -0.113,0.122 -0.227,0.243 -0.342,0.364 -0.112,0.117 -0.227,0.232 -0.341,0.349 -0.112,0.115 -0.227,0.229 -0.341,0.343 -0.113,0.111 -0.227,0.223 -0.342,0.333 -0.113,0.108 -0.227,0.216 -0.342,0.323 -0.113,0.105 -0.227,0.213 -0.342,0.318 -0.112,0.103 -0.227,0.203 -0.341,0.305 -0.114,0.102 -0.227,0.203 -0.341,0.303 -0.113,0.098 -0.229,0.193 -0.342,0.289 -0.114,0.097 -0.227,0.193 -0.342,0.288 -0.113,0.093 -0.228,0.183 -0.342,0.274 -0.113,0.092 -0.227,0.184 -0.341,0.273 -0.112,0.089 -0.228,0.175 -0.341,0.262 -0.114,0.087 -0.228,0.174 -0.342,0.26 -0.113,0.084 -0.228,0.166 -0.342,0.249 -0.113,0.083 -0.227,0.166 -0.342,0.247 -0.112,0.08 -0.227,0.158 -0.341,0.236 -0.114,0.08 -0.228,0.159 -0.342,0.236 -0.112,0.076 -0.228,0.15 -0.341,0.225 -0.114,0.075 -0.227,0.151 -0.342,0.225 -0.113,0.072 -0.229,0.143 -0.342,0.214 -0.113,0.071 -0.227,0.144 -0.341,0.213 -0.113,0.069 -0.228,0.136 -0.342,0.203 -0.114,0.067 -0.228,0.136 -0.341,0.202 -0.113,0.064 -0.228,0.129 -0.342,0.193 l -0.342,0.191 -0.342,0.185 -0.341,0.181 c -0.114,0.059 -0.228,0.118 -0.341,0.177 -0.113,0.058 -0.228,0.113 -0.342,0.169 -0.113,0.057 -0.227,0.114 -0.342,0.17 -0.113,0.055 -0.228,0.105 -0.342,0.159 -0.113,0.054 -0.227,0.108 -0.341,0.159 -0.113,0.052 -0.228,0.102 -0.341,0.152 l -0.342,0.148 -0.342,0.146 -0.342,0.14 c -0.113,0.046 -0.227,0.094 -0.341,0.139 -0.113,0.044 -0.228,0.086 -0.341,0.129 -0.115,0.043 -0.228,0.088 -0.342,0.13 -0.113,0.042 -0.228,0.082 -0.342,0.123 l -0.342,0.12 -0.341,0.117 c -0.113,0.037 -0.228,0.074 -0.342,0.11 -0.114,0.037 -0.228,0.075 -0.341,0.11 -0.113,0.036 -0.229,0.068 -0.342,0.104 l -0.342,0.102 -0.341,0.097 c -0.114,0.032 -0.228,0.062 -0.342,0.093 -0.114,0.03 -0.227,0.062 -0.341,0.092 -0.113,0.029 -0.229,0.056 -0.342,0.084 -0.113,0.027 -0.228,0.057 -0.342,0.083 l -0.342,0.079 -0.341,0.074 c -0.114,0.023 -0.228,0.051 -0.341,0.074 -0.113,0.023 -0.229,0.043 -0.342,0.065 l -0.342,0.065 -0.342,0.062 c -0.113,0.02 -0.227,0.038 -0.341,0.057 -0.114,0.019 -0.228,0.038 -0.341,0.056 -0.113,0.018 -0.229,0.033 -0.342,0.05 l -0.342,0.048 c -0.113,0.016 -0.227,0.031 -0.342,0.045 -0.113,0.014 -0.227,0.026 -0.341,0.039 -0.114,0.014 -0.228,0.027 -0.341,0.039 -0.113,0.012 -0.229,0.022 -0.342,0.033 l -0.342,0.03 c -0.113,0.01 -0.227,0.021 -0.342,0.03 -0.113,0.008 -0.227,0.014 -0.341,0.021 l -0.342,0.021 -0.341,0.018 c -0.113,0.006 -0.229,0.01 -0.342,0.014 -0.113,0.004 -0.228,0.01 -0.342,0.013 -0.113,0.003 -0.227,0.005 -0.341,0.007 l -0.342,0.004 c -0.106,10e-4 -0.212,0.004 -0.318,0.004 l -0.022,0 -0.342,0 -0.342,0 -0.342,0 -0.341,0 -0.341,0 -0.342,0 -0.342,0 -0.342,0 -0.341,0 -0.341,0 -0.342,0 -0.342,0 -0.342,0 -0.341,0 -0.341,0 -0.342,0 -0.342,0 -0.342,0 -0.341,0 -0.341,0 -0.342,0 -0.342,0 -0.341,0 -0.342,0 -0.342,0 -0.341,0 -0.341,0 -0.341,0 -0.342,0 -0.341,0 -0.341,0 -0.342,0 -0.341,0 -0.342,0 -0.341,0 -0.324,0 -0.341,0 -0.341,0 -0.341,0 -0.341,0 -0.342,0 -0.341,0 -0.341,0 -0.341,0 -0.342,0 -0.341,0 -0.341,0 -0.341,0 -0.341,0 -0.342,0 -0.341,0 -0.341,0 -0.341,0 -0.342,0 -0.341,0 -0.341,0 -0.341,0 -0.342,0 -0.341,0 -0.341,0 -0.341,0 -0.342,0 -0.341,0 -0.341,0 -0.346,0 -0.341,0 -0.342,0 -0.341,0 -0.341,0 -0.341,0 -0.342,0 -0.341,0 -0.341,0 -0.341,0 -0.342,0 -0.341,0 -0.341,0 -0.341,0 -0.341,0 -0.342,0 -0.341,0 -0.341,0 -0.341,0 -0.342,0 -0.341,0 -0.341,0 -0.341,0 -0.342,0 -0.341,0 -0.341,0 -0.341,0 -0.341,0 -0.342,0 -0.341,0 -0.341,0 -0.341,0 -0.342,0 -0.341,0 -0.341,0 -0.341,0 -0.341,0 -0.342,0 -0.341,0 -0.341,0 -0.341,0 -0.342,0 -0.341,0 -0.341,0 -0.341,0 -0.342,0 -0.341,0 -0.341,0 -0.341,0 -0.341,0 -0.342,0 -0.341,0 -0.341,0 -0.341,0 -0.342,0 -0.341,0 -0.341,0 -0.341,0 -0.342,0 -0.341,0 -0.341,0 -0.342,0 -0.341,0 -0.341,0 -0.341,0 -0.342,0 -0.341,0 -0.341,0 -0.341,0 -0.342,0 -0.354,0 -0.341,0 -0.341,0 -0.341,0 -0.342,0 -0.341,0 -0.342,0 -0.341,0 -0.342,0 -0.341,0 -0.341,0 -0.342,0 -0.341,0 -0.341,0 -0.342,0 -0.341,0 -0.733,0 0,-81.812 c 0.239,0.205 0.484,0.408 0.733,0.609 0.113,0.091 0.227,0.182 0.341,0.271 0.113,0.09 0.227,0.178 0.342,0.266 0.113,0.088 0.226,0.174 0.341,0.26 0.113,0.085 0.227,0.168 0.341,0.251 0.113,0.083 0.227,0.164 0.342,0.245 0.113,0.08 0.226,0.161 0.341,0.24 l 0.341,0.234 c 0.113,0.076 0.227,0.152 0.342,0.227 l 0.341,0.224 c 0.113,0.073 0.227,0.146 0.342,0.218 0.112,0.071 0.227,0.142 0.341,0.212 l 0.342,0.208 c 0.113,0.067 0.227,0.136 0.341,0.203 0.113,0.066 0.227,0.131 0.341,0.197 l 0.341,0.193 0.341,0.189 0.342,0.185 c 0.113,0.062 0.227,0.122 0.341,0.183 0.113,0.059 0.227,0.117 0.341,0.176 l 0.341,0.173 0.342,0.17 0.341,0.165 c 0.114,0.055 0.227,0.109 0.341,0.163 l 0.341,0.157 0.342,0.156 0.341,0.151 0.341,0.149 0.342,0.146 0.341,0.143 0.341,0.14 0.341,0.137 0.342,0.135 0.341,0.129 c 0.114,0.044 0.227,0.088 0.341,0.13 l 0.341,0.124 c 0.114,0.042 0.227,0.084 0.342,0.125 0.113,0.04 0.228,0.079 0.341,0.119 l 0.341,0.119 0.341,0.113 c 0.114,0.038 0.227,0.077 0.341,0.115 0.113,0.037 0.228,0.072 0.342,0.109 l 0.341,0.109 0.341,0.104 0.341,0.104 0.342,0.101 0.341,0.1 0.341,0.097 0.341,0.096 0.342,0.094 0.341,0.09 0.341,0.09 0.341,0.087 0.341,0.086 0.342,0.083 0.341,0.082 0.341,0.08 0.341,0.078 0.342,0.075 0.341,0.075 0.341,0.073 0.341,0.069 0.341,0.071 0.342,0.067 0.341,0.066 0.341,0.064 0.341,0.062 0.342,0.062 0.341,0.06 0.341,0.059 0.341,0.058 0.342,0.055 0.341,0.056 0.341,0.052 0.341,0.053 0.341,0.049 0.342,0.049 0.341,0.049 0.341,0.045 0.341,0.045 0.342,0.043 0.341,0.042 0.341,0.042 0.341,0.039 0.342,0.038 0.341,0.038 0.341,0.035 0.341,0.035 0.341,0.034 0.342,0.032 0.341,0.032 0.341,0.03 0.341,0.028 0.342,0.029 0.341,0.026 0.341,0.025 0.341,0.026 0.342,0.022 0.341,0.023 0.341,0.022 0.341,0.021 0.342,0.02 0.341,0.02 0.341,0.017 0.341,0.017 0.341,0.018 0.342,0.014 0.341,0.014 0.341,0.014 0.341,0.012 0.342,0.012 0.341,0.011 0.341,0.009 0.341,0.008 0.341,0.009 0.342,0.006 0.341,0.006 0.342,0.006 0.341,0.003 0.342,0.004 0.341,0.003 0.341,0.001 0.342,10e-4 0.341,0.001 0.341,-0.002 0.341,-0.002 0.342,-0.002 0.342,-0.002 0.341,-0.005 0.342,-0.005 0.342,-0.004 0.341,-0.008 0.341,-0.006 0.342,-0.008 0.342,-0.009 0.342,-0.009 0.341,-0.01 0.341,-0.011 0.342,-0.012 0.342,-0.012 0.342,-0.012 0.341,-0.015 0.341,-0.014 0.342,-0.014 0.167,-0.008 0.175,-0.008 0.342,-0.018 0.341,-0.018 0.341,-0.019 0.342,-0.021 0.342,-0.021 0.342,-0.023 0.341,-0.022 0.342,-0.025 0.341,-0.025 0.342,-0.027 0.342,-0.028 0.341,-0.029 0.342,-0.029 0.341,-0.031 0.342,-0.032 0.342,-0.032 0.342,-0.035 0.341,-0.033 0.341,-0.037 0.342,-0.036 0.342,-0.038 0.342,-0.038 0.341,-0.04 0.341,-0.039 0.342,-0.042 0.342,-0.042 0.342,-0.043 0.341,-0.043 0.341,-0.044 0.342,-0.046 0.342,-0.046 0.342,-0.047 0.341,-0.048 0.342,-0.048 0.341,-0.05 0.342,-0.049 0.342,-0.051 0.341,-0.052 0.342,-0.052 0.341,-0.053 0.342,-0.055 0.342,-0.054 0.342,-0.055 0.341,-0.056 0.341,-0.057 0.342,-0.057 0.342,-0.059 0.342,-0.059 0.341,-0.059 0.341,-0.061 0.342,-0.061 0.342,-0.061 0.342,-0.062 0.341,-0.062 0.341,-0.063 0.342,-0.064 0.342,-0.064 0.342,-0.064 0.341,-0.066 0.342,-0.066 0.341,-0.067 0.342,-0.067 0.342,-0.068 0.341,-0.07 0.342,-0.069 0.341,-0.071 0.342,-0.07 0.342,-0.072 0.342,-0.073 0.341,-0.073 0.341,-0.074 0.342,-0.074 0.342,-0.076 0.342,-0.076 0.341,-0.077 0.341,-0.078 0.342,-0.079 0.342,-0.08 0.342,-0.082 0.341,-0.082 0.34,-0.084 0,-14.988 -0.34,0.169 -0.341,0.169 -0.342,0.166 -0.342,0.166 -0.342,0.164 -0.341,0.162 -0.341,0.161 -0.342,0.159 -0.342,0.157 -0.342,0.156 -0.341,0.153 -0.341,0.152 -0.342,0.15 -0.342,0.148 -0.342,0.147 -0.341,0.146 -0.342,0.143 -0.341,0.143 -0.342,0.139 -0.342,0.139 -0.341,0.136 -0.342,0.134 -0.341,0.133 -0.342,0.13 -0.342,0.128 -0.342,0.127 -0.341,0.124 -0.341,0.123 -0.342,0.12 -0.342,0.119 -0.342,0.117 -0.341,0.114 -0.341,0.113 -0.342,0.11 -0.342,0.109 -0.342,0.107 -0.341,0.104 -0.341,0.104 -0.342,0.101 -0.342,0.1 -0.342,0.098 -0.341,0.096 -0.342,0.093 -0.341,0.092 -0.342,0.089 -0.342,0.088 -0.341,0.086 -0.342,0.084 -0.341,0.082 -0.342,0.08 -0.342,0.077 -0.342,0.077 -0.341,0.074 -0.341,0.072 -0.342,0.069 -0.342,0.069 -0.342,0.066 -0.341,0.064 -0.341,0.062 -0.342,0.061 -0.342,0.06 -0.342,0.057 -0.341,0.056 -0.341,0.054 -0.342,0.051 -0.342,0.05 -0.342,0.049 -0.341,0.045 -0.342,0.045 -0.341,0.042 -0.342,0.041 -0.342,0.038 -0.341,0.037 -0.342,0.035 -0.341,0.033 -0.342,0.031 -0.342,0.03 -0.342,0.028 -0.206,0.016 -0.135,0.01 -0.341,0.023 -0.342,0.021 -0.342,0.02 -0.342,0.017 -0.341,0.017 -0.341,0.01 -0.342,0.012 -0.342,0.008 -0.342,0.005 -0.341,0.004 c -0.114,10e-4 -0.228,-0.001 -0.341,-0.001 l -0.342,-0.001 -0.342,-0.005 -0.342,-0.008 -0.341,-0.009 c -0.114,-0.004 -0.228,-0.009 -0.341,-0.014 -0.114,-0.005 -0.229,-0.009 -0.342,-0.015 l -0.342,-0.019 -0.341,-0.021 -0.341,-0.023 -0.342,-0.027 c -0.113,-0.01 -0.228,-0.018 -0.341,-0.027 -0.114,-0.011 -0.228,-0.023 -0.341,-0.035 l -0.341,-0.033 -0.342,-0.04 -0.341,-0.042 -0.341,-0.045 -0.341,-0.048 c -0.114,-0.017 -0.228,-0.033 -0.341,-0.051 -0.115,-0.019 -0.228,-0.038 -0.342,-0.057 -0.113,-0.019 -0.228,-0.036 -0.341,-0.057 -0.115,-0.021 -0.228,-0.043 -0.342,-0.063 -0.114,-0.021 -0.229,-0.042 -0.341,-0.064 -0.115,-0.022 -0.228,-0.047 -0.341,-0.071 -0.113,-0.024 -0.229,-0.047 -0.342,-0.071 -0.114,-0.025 -0.228,-0.053 -0.341,-0.079 l -0.342,-0.08 c -0.115,-0.028 -0.228,-0.058 -0.341,-0.087 -0.114,-0.028 -0.229,-0.058 -0.341,-0.088 -0.115,-0.03 -0.228,-0.062 -0.341,-0.094 -0.114,-0.033 -0.229,-0.064 -0.342,-0.098 -0.115,-0.034 -0.228,-0.068 -0.341,-0.104 -0.114,-0.035 -0.228,-0.07 -0.341,-0.107 -0.114,-0.036 -0.228,-0.074 -0.341,-0.112 -0.114,-0.038 -0.229,-0.077 -0.341,-0.116 -0.115,-0.039 -0.228,-0.082 -0.342,-0.123 -0.114,-0.041 -0.229,-0.082 -0.341,-0.125 -0.115,-0.044 -0.228,-0.09 -0.341,-0.135 -0.114,-0.045 -0.229,-0.09 -0.341,-0.135 -0.115,-0.048 -0.228,-0.098 -0.342,-0.146 -0.114,-0.049 -0.229,-0.098 -0.342,-0.148 -0.115,-0.051 -0.228,-0.104 -0.341,-0.156 -0.114,-0.054 -0.229,-0.107 -0.341,-0.162 -0.115,-0.055 -0.229,-0.111 -0.342,-0.168 -0.115,-0.059 -0.228,-0.117 -0.341,-0.176 -0.114,-0.061 -0.229,-0.119 -0.341,-0.181 -0.115,-0.063 -0.228,-0.128 -0.341,-0.192 -0.114,-0.064 -0.229,-0.129 -0.342,-0.195 -0.115,-0.068 -0.228,-0.137 -0.341,-0.206 -0.115,-0.07 -0.228,-0.143 -0.341,-0.215 -0.114,-0.073 -0.229,-0.146 -0.341,-0.22 -0.116,-0.076 -0.228,-0.156 -0.341,-0.234 -0.115,-0.079 -0.229,-0.16 -0.342,-0.241 -0.114,-0.082 -0.229,-0.165 -0.341,-0.249 -0.115,-0.087 -0.229,-0.176 -0.341,-0.264 -0.115,-0.091 -0.229,-0.182 -0.341,-0.273 -0.115,-0.094 -0.229,-0.188 -0.342,-0.283 -0.115,-0.099 -0.229,-0.199 -0.341,-0.301 -0.115,-0.103 -0.229,-0.207 -0.341,-0.312 -0.115,-0.107 -0.229,-0.215 -0.341,-0.325 -0.115,-0.112 -0.23,-0.225 -0.342,-0.339 -0.116,-0.119 -0.229,-0.24 -0.341,-0.361 -0.116,-0.125 -0.229,-0.25 -0.341,-0.378 -0.116,-0.131 -0.229,-0.263 -0.341,-0.397 -0.116,-0.137 -0.229,-0.276 -0.341,-0.418 -0.116,-0.145 -0.23,-0.293 -0.342,-0.441 -0.116,-0.154 -0.23,-0.311 -0.341,-0.468 -0.116,-0.164 -0.23,-0.33 -0.341,-0.498 -0.116,-0.176 -0.23,-0.353 -0.341,-0.532 -0.117,-0.188 -0.23,-0.379 -0.342,-0.572 -0.117,-0.202 -0.23,-0.408 -0.341,-0.615 -0.118,-0.221 -0.231,-0.444 -0.341,-0.67 -0.118,-0.24 -0.232,-0.484 -0.341,-0.73 -0.118,-0.265 -0.233,-0.532 -0.342,-0.805 -0.12,-0.301 -0.232,-0.607 -0.341,-0.917 -0.121,-0.343 -0.235,-0.69 -0.341,-1.044 -0.123,-0.41 -0.237,-0.828 -0.341,-1.252 -0.129,-0.527 -0.242,-1.066 -0.341,-1.615 -0.147,-0.813 -0.262,-1.649 -0.342,-2.508 -0.092,-0.992 -0.139,-2.014 -0.139,-3.066 0,-1.052 0.047,-2.074 0.139,-3.067 0.08,-0.859 0.194,-1.696 0.342,-2.51 0.099,-0.549 0.212,-1.088 0.341,-1.616 0.104,-0.424 0.218,-0.841 0.341,-1.251 0.106,-0.354 0.221,-0.702 0.341,-1.045 0.109,-0.31 0.221,-0.616 0.341,-0.917 0.109,-0.272 0.224,-0.54 0.342,-0.805 0.109,-0.247 0.224,-0.49 0.341,-0.73 0.11,-0.226 0.224,-0.45 0.341,-0.67 0.111,-0.208 0.224,-0.414 0.341,-0.617 0.111,-0.193 0.225,-0.383 0.342,-0.572 0.111,-0.18 0.225,-0.357 0.341,-0.532 0.111,-0.168 0.226,-0.334 0.341,-0.499 0.111,-0.158 0.226,-0.313 0.341,-0.468 0.112,-0.149 0.226,-0.296 0.342,-0.442 0.112,-0.141 0.226,-0.28 0.341,-0.418 0.112,-0.134 0.226,-0.267 0.341,-0.397 0.112,-0.127 0.226,-0.254 0.341,-0.378 0.113,-0.121 0.226,-0.242 0.341,-0.361 0.112,-0.115 0.227,-0.227 0.342,-0.339 0.112,-0.11 0.226,-0.218 0.341,-0.326 0.113,-0.105 0.226,-0.21 0.341,-0.313 0.113,-0.101 0.226,-0.201 0.341,-0.3 0.112,-0.096 0.227,-0.189 0.342,-0.283 0.113,-0.092 0.226,-0.184 0.341,-0.273 0.113,-0.089 0.226,-0.178 0.341,-0.265 0.112,-0.084 0.227,-0.167 0.341,-0.25 0.113,-0.082 0.227,-0.162 0.342,-0.241 0.113,-0.079 0.226,-0.158 0.341,-0.234 0.112,-0.075 0.227,-0.147 0.341,-0.22 0.113,-0.072 0.227,-0.144 0.341,-0.214 0.113,-0.069 0.227,-0.139 0.341,-0.206 0.113,-0.067 0.228,-0.131 0.342,-0.196 0.113,-0.064 0.226,-0.129 0.341,-0.191 0.112,-0.062 0.227,-0.121 0.341,-0.181 0.113,-0.059 0.227,-0.118 0.341,-0.176 0.113,-0.057 0.227,-0.113 0.342,-0.169 0.113,-0.055 0.227,-0.108 0.341,-0.161 0.113,-0.053 0.226,-0.106 0.341,-0.157 0.113,-0.05 0.228,-0.099 0.342,-0.148 0.114,-0.049 0.227,-0.099 0.342,-0.146 0.113,-0.046 0.227,-0.091 0.341,-0.136 0.113,-0.045 0.227,-0.09 0.341,-0.134 0.113,-0.043 0.228,-0.084 0.341,-0.125 0.113,-0.041 0.227,-0.083 0.342,-0.124 0.113,-0.039 0.227,-0.078 0.341,-0.116 0.113,-0.038 0.227,-0.076 0.341,-0.113 0.113,-0.036 0.227,-0.071 0.341,-0.106 0.113,-0.035 0.227,-0.07 0.341,-0.104 l 0.342,-0.097 c 0.113,-0.032 0.227,-0.064 0.341,-0.095 0.113,-0.03 0.227,-0.06 0.341,-0.088 0.113,-0.029 0.227,-0.059 0.341,-0.086 l 0.342,-0.08 c 0.113,-0.026 0.227,-0.053 0.341,-0.079 0.113,-0.025 0.228,-0.048 0.342,-0.072 0.114,-0.023 0.227,-0.048 0.341,-0.071 0.113,-0.022 0.228,-0.042 0.341,-0.063 0.114,-0.021 0.227,-0.044 0.342,-0.064 0.113,-0.02 0.228,-0.038 0.341,-0.057 0.114,-0.019 0.227,-0.039 0.342,-0.056 l 0.341,-0.051 0.341,-0.049 0.341,-0.045 0.341,-0.042 0.342,-0.04 0.341,-0.035 c 0.114,-0.011 0.227,-0.023 0.341,-0.034 0.113,-0.01 0.228,-0.019 0.341,-0.028 l 0.342,-0.027 0.341,-0.024 0.341,-0.02 0.342,-0.019 c 0.113,-0.006 0.228,-0.009 0.342,-0.014 0.113,-0.004 0.227,-0.01 0.341,-0.014 l 0.341,-0.009 0.342,-0.007 0.342,-0.005 0.342,-0.001 c 0.113,0 0.227,-0.002 0.341,-0.001 l 0.341,0.004 0.342,0.005 0.342,0.007 0.342,0.011 0.341,0.011 0.341,0.016 0.342,0.017 0.342,0.019 0.342,0.022 0.341,0.023 0.135,0.009 0.206,0.016 0.342,0.027 0.342,0.03 0.342,0.031 0.341,0.033 0.342,0.035 0.341,0.037 0.342,0.038 0.342,0.04 0.341,0.042 0.342,0.043 0.341,0.045 0.342,0.047 0.342,0.049 0.342,0.051 0.341,0.053 0.341,0.055 0.342,0.056 0.342,0.059 0.342,0.061 0.341,0.062 0.341,0.063 0.342,0.066 0.342,0.068 0.342,0.07 0.341,0.072 0.341,0.074 0.342,0.076 0.342,0.077 0.342,0.079 0.341,0.082 0.342,0.083 0.341,0.085 0.342,0.087 0.342,0.089 0.341,0.091 0.342,0.093 0.341,0.095 0.342,0.097 0.342,0.099 0.342,0.101 0.341,0.104 0.341,0.104 0.342,0.107 0.342,0.109 0.342,0.111 0.341,0.113 0.341,0.115 0.342,0.117 0.342,0.119 0.342,0.122 0.341,0.123 0.341,0.125 0.342,0.127 0.342,0.129 0.342,0.131 0.341,0.133 0.342,0.135 0.341,0.137 0.342,0.139 0.342,0.141 0.341,0.143 0.342,0.144 0.341,0.146 0.342,0.148 0.342,0.15 0.342,0.151 0.341,0.153 0.341,0.156 0.342,0.157 0.342,0.159 0.342,0.161 0.341,0.162 0.341,0.164 0.342,0.166 0.342,0.167 0.342,0.168 0.341,0.17 0.34,0.17 0,-15 -0.34,-0.084 -0.341,-0.082 -0.342,-0.081 -0.342,-0.081 -0.342,-0.079 -0.341,-0.078 -0.341,-0.078 -0.342,-0.076 -0.342,-0.076 -0.342,-0.075 -0.341,-0.074 -0.341,-0.073 -0.342,-0.073 -0.342,-0.072 -0.342,-0.071 -0.341,-0.071 -0.342,-0.07 -0.341,-0.069 -0.342,-0.069 -0.342,-0.067 -0.341,-0.067 -0.342,-0.067 -0.341,-0.066 -0.342,-0.065 -0.342,-0.064 -0.342,-0.064 -0.341,-0.063 -0.341,-0.062 -0.342,-0.062 -0.342,-0.061 -0.342,-0.061 -0.341,-0.06 -0.341,-0.059 -0.342,-0.059 -0.342,-0.058 -0.342,-0.057 -0.341,-0.056 -0.341,-0.056 -0.342,-0.055 -0.342,-0.055 -0.342,-0.053 -0.341,-0.053 -0.342,-0.052 -0.341,-0.051 -0.342,-0.051 -0.342,-0.05 -0.341,-0.049 -0.342,-0.048 -0.341,-0.047 -0.342,-0.047 -0.342,-0.046 -0.342,-0.045 -0.341,-0.044 -0.341,-0.043 -0.342,-0.043 -0.342,-0.042 -0.342,-0.041 -0.341,-0.04 -0.341,-0.04 -0.342,-0.038 -0.342,-0.038 -0.342,-0.036 -0.341,-0.036 -0.341,-0.034 -0.342,-0.034 -0.342,-0.033 -0.342,-0.032 -0.341,-0.031 -0.342,-0.03 -0.341,-0.029 -0.342,-0.028 -0.342,-0.027 -0.341,-0.025 -0.342,-0.025 -0.341,-0.023 -0.342,-0.023 -0.342,-0.021 -0.342,-0.021 -0.341,-0.019 -0.341,-0.018 -0.342,-0.017 -0.175,-0.008 -0.167,-0.007 -0.342,-0.014 -0.341,-0.014 -0.341,-0.014 -0.342,-0.012 -0.342,-0.012 -0.342,-0.012 -0.341,-0.01 -0.341,-0.01 -0.342,-0.009 -0.342,-0.009 -0.342,-0.007 -0.341,-0.007 -0.341,-0.007 -0.342,-0.004 -0.342,-0.004 -0.341,-0.005 -0.342,-0.002 -0.342,-0.002 -0.341,-0.002 -0.341,-10e-4 -0.341,0 -0.342,10e-4 -0.341,0.001 -0.341,0.003 -0.342,0.003 -0.341,0.003 -0.342,0.006 -0.341,0.006 -0.342,0.006 -0.341,0.009 -0.341,0.008 -0.341,0.008 -0.341,0.011 -0.342,0.011 -0.341,0.012 -0.341,0.014 -0.341,0.014 -0.342,0.014 -0.341,0.017 -0.341,0.017 -0.341,0.017 -0.341,0.02 -0.342,0.02 -0.341,0.02 -0.341,0.023 -0.341,0.023 -0.342,0.023 -0.341,0.026 -0.341,0.026 -0.341,0.027 -0.342,0.029 -0.341,0.028 -0.341,0.031 -0.341,0.032 -0.342,0.032 -0.341,0.034 -0.341,0.036 -0.328,0.026 -0.341,0.038 -0.342,0.039 -0.341,0.039 -0.341,0.042 -0.341,0.042 -0.342,0.044 -0.341,0.045 -0.341,0.045 -0.341,0.048 -0.342,0.049 -0.341,0.05 -0.341,0.052 -0.341,0.052 -0.341,0.055 -0.342,0.056 -0.341,0.057 -0.341,0.059 -0.341,0.059 -0.342,0.062 -0.341,0.063 -0.341,0.064 -0.341,0.066 -0.342,0.067 -0.341,0.07 -0.341,0.071 -0.341,0.073 -0.341,0.075 -0.342,0.076 -0.341,0.079 -0.341,0.079 -0.341,0.083 -0.342,0.083 -0.341,0.086 -0.341,0.087 -0.341,0.089 -0.341,0.091 -0.342,0.093 -0.341,0.095 -0.341,0.097 -0.341,0.1 -0.342,0.101 -0.341,0.104 -0.341,0.105 -0.341,0.109 c -0.114,0.036 -0.229,0.072 -0.342,0.109 l -0.341,0.114 c -0.113,0.038 -0.229,0.075 -0.341,0.114 l -0.341,0.119 -0.341,0.119 c -0.115,0.041 -0.228,0.083 -0.342,0.125 -0.114,0.042 -0.229,0.082 -0.341,0.125 l -0.341,0.129 c -0.114,0.043 -0.229,0.086 -0.341,0.13 l -0.342,0.135 -0.341,0.136 -0.341,0.14 -0.341,0.143 -0.342,0.146 -0.341,0.149 -0.341,0.151 -0.342,0.156 -0.341,0.157 c -0.115,0.054 -0.228,0.109 -0.341,0.164 l -0.341,0.165 -0.342,0.17 -0.341,0.173 c -0.114,0.059 -0.229,0.117 -0.341,0.176 -0.115,0.06 -0.228,0.121 -0.341,0.182 l -0.342,0.185 -0.341,0.189 c -0.115,0.064 -0.228,0.129 -0.341,0.194 -0.114,0.065 -0.229,0.131 -0.341,0.197 -0.115,0.067 -0.228,0.135 -0.341,0.203 -0.115,0.069 -0.229,0.138 -0.342,0.208 -0.114,0.07 -0.229,0.141 -0.341,0.211 -0.115,0.072 -0.229,0.146 -0.342,0.218 l -0.341,0.223 c -0.115,0.076 -0.229,0.151 -0.342,0.227 l -0.341,0.234 c -0.115,0.08 -0.228,0.16 -0.341,0.24 -0.115,0.081 -0.229,0.163 -0.342,0.246 -0.114,0.083 -0.229,0.167 -0.341,0.25 -0.115,0.086 -0.228,0.173 -0.341,0.26 -0.115,0.088 -0.229,0.177 -0.342,0.266 -0.128,0.095 -0.242,0.186 -0.355,0.277 l 0,0 0,0 z" id="path22" style="fill:url(#SVGID_3_)"/></svg>