<?xml version="1.0" encoding="UTF-8"?><svg xmlns="http://www.w3.org/2000/svg" class="" height="36px" id="Layer_1" style="enable-background:new 0 0 168.3 106.4;" version="1.1" viewBox="0 0 168.3 106.4" width="57px" x="0px" xml:space="preserve" y="0px"><style type="text/css">
	.st0{fill:#FFFFFF;}
	.st1{fill:#FF5F00;}
	.st2{fill:#EB001B;}
	.st3{fill:#F79E1B;}
</style><g><g><rect height="106.4" id="XMLID_21_" width="168.3"/></g></g><g><path class="st0" d="M47,97.6v-6c0-2.3-1.4-3.8-3.7-3.8c-1.2,0-2.5,0.4-3.4,1.7c-0.7-1.1-1.7-1.7-3.2-1.7   c-1,0-2.1,0.3-2.9,1.4V88h-1.9v9.6h1.9v-5.5c0-1.7,1-2.5,2.4-2.5c1.4,0,2.2,0.9,2.2,2.5v5.5h1.9v-5.5c0-1.7,1-2.5,2.4-2.5   c1.4,0,2.2,0.9,2.2,2.5v5.5H47z M78.2,88h-3.5v-2.9h-1.9V88h-2v1.7h2v4.5c0,2.2,0.8,3.5,3.2,3.5c0.9,0,1.9-0.3,2.6-0.7L78,95.4   c-0.6,0.4-1.3,0.5-1.8,0.5c-1,0-1.5-0.6-1.5-1.6v-4.6h3.5V88z M95.9,87.7c-1.2,0-2.1,0.6-2.6,1.4V88h-1.9v9.6h1.9v-5.4   c0-1.6,0.8-2.6,2.1-2.6c0.4,0,0.9,0.1,1.3,0.2l0.6-1.8C96.9,87.8,96.3,87.7,95.9,87.7L95.9,87.7z M69.1,88.7c-1-0.7-2.4-1-3.9-1   c-2.4,0-3.9,1.1-3.9,3c0,1.6,1.1,2.5,3.2,2.8l1,0.1c1.1,0.2,1.8,0.6,1.8,1.1c0,0.7-0.8,1.2-2.3,1.2c-1.5,0-2.5-0.5-3.2-1l-1,1.5   c1.4,1,3.1,1.2,4.1,1.2c2.8,0,4.3-1.3,4.3-3.1c0-1.7-1.2-2.5-3.3-2.8l-1-0.1c-0.9-0.1-1.7-0.4-1.7-1c0-0.7,0.8-1.2,1.9-1.2   c1.2,0,2.4,0.5,3,0.8L69.1,88.7z M98.1,92.8c0,2.9,1.9,5,5,5c1.4,0,2.4-0.3,3.4-1.1l-1-1.5c-0.8,0.6-1.6,0.9-2.5,0.9   c-1.7,0-3-1.3-3-3.2c0-1.9,1.3-3.2,3-3.2c0.9,0,1.7,0.3,2.5,0.9l1-1.5c-1-0.8-2-1.1-3.4-1.1C100,87.7,98.1,89.9,98.1,92.8   L98.1,92.8z M84.6,87.7c-2.8,0-4.7,2-4.7,5c0,3,2,5,4.9,5c1.4,0,2.8-0.4,3.9-1.3l-1-1.4c-0.8,0.6-1.8,1-2.8,1   c-1.3,0-2.7-0.8-2.9-2.5h7.1c0-0.3,0-0.5,0-0.8C89.1,89.8,87.3,87.7,84.6,87.7L84.6,87.7z M84.6,89.5c1.4,0,2.4,0.9,2.5,2.4H82   C82.1,90.5,83.1,89.5,84.6,89.5L84.6,89.5z M58.7,92.8V88h-1.9v1.2c-0.7-0.9-1.7-1.4-3.1-1.4c-2.7,0-4.7,2.1-4.7,5s2,5,4.7,5   c1.4,0,2.4-0.5,3.1-1.4v1.2h1.9V92.8z M50.9,92.8c0-1.8,1.1-3.2,3-3.2c1.8,0,2.9,1.4,2.9,3.2c0,1.9-1.2,3.2-2.9,3.2   C52.1,96,50.9,94.6,50.9,92.8L50.9,92.8z M124.8,87.7c-1.2,0-2.1,0.6-2.6,1.4V88h-1.9v9.6h1.9v-5.4c0-1.6,0.8-2.6,2.1-2.6   c0.4,0,0.9,0.1,1.3,0.2l0.6-1.8C125.9,87.8,125.3,87.7,124.8,87.7L124.8,87.7z M117.5,92.8V88h-1.9v1.2c-0.7-0.9-1.7-1.4-3.1-1.4   c-2.7,0-4.7,2.1-4.7,5s2,5,4.7,5c1.4,0,2.4-0.5,3.1-1.4v1.2h1.9V92.8z M109.7,92.8c0-1.8,1.1-3.2,3-3.2c1.8,0,2.9,1.4,2.9,3.2   c0,1.9-1.2,3.2-2.9,3.2C110.9,96,109.7,94.6,109.7,92.8L109.7,92.8z M136.8,92.8v-8.6h-1.9v5c-0.7-0.9-1.7-1.4-3.1-1.4   c-2.7,0-4.7,2.1-4.7,5s2,5,4.7,5c1.4,0,2.4-0.5,3.1-1.4v1.2h1.9V92.8z M129,92.8c0-1.8,1.1-3.2,3-3.2c1.8,0,2.9,1.4,2.9,3.2   c0,1.9-1.2,3.2-2.9,3.2C130.2,96,129,94.6,129,92.8z" id="XMLID_567_"/><g id="XMLID_328_"><rect class="st1" height="56.6" width="34.7" x="66.8" y="15.1"/><path class="st2" d="M70.4,43.4c0-11.5,5.4-21.7,13.7-28.3C78,10.3,70.3,7.4,61.9,7.4c-19.9,0-36,16.1-36,36    s16.1,36,36,36c8.4,0,16.1-2.9,22.2-7.7C75.8,65.2,70.4,54.9,70.4,43.4z" id="XMLID_330_"/><path class="st3" d="M142.4,43.4c0,19.9-16.1,36-36,36c-8.4,0-16.1-2.9-22.2-7.7c8.4-6.6,13.7-16.8,13.7-28.3    c0-11.5-5.4-21.7-13.7-28.3c6.1-4.8,13.8-7.7,22.2-7.7C126.3,7.4,142.4,23.6,142.4,43.4z"/></g></g></svg>