<?xml version="1.0" encoding="UTF-8"?><svg xmlns="http://www.w3.org/2000/svg" class="" enable-background="new 0 0 301.6 295.4" height="36px" id="Layer_1" version="1.1" viewBox="0 0 240.6 238.2" width="57px" x="0px" xml:space="preserve" y="0px"><metadata id="metadata3721"/><defs id="defs3719"/><g id="g3643" transform="translate(-32.5,-28.9)"><g id="g3651"><g id="g3653"><defs id="defs3655"><polyline id="SVGID_1_" points="4.6,295.4 4.6,0 301.6,0 301.6,295.4 4.6,295.4     "/></defs><clipPath id="SVGID_2_"><use xmlns:xlink="http://www.w3.org/1999/xlink" height="100%" id="use3659" overflow="visible" style="overflow:visible" width="100%" x="0" xlink:href="#SVGID_1_" y="0"/></clipPath></g><radialGradient cx="-922.49158" cy="502.4006" gradientTransform="translate(1075.2471,-354.3506)" gradientUnits="userSpaceOnUse" id="SVGID_3_" r="119.6394"><stop id="stop3662" offset="0" style="stop-color:#1AB9EC"/><stop id="stop3664" offset="0.19" style="stop-color:#1AB9EC"/><stop id="stop3666" offset="0.3139" style="stop-color:#1DADDD"/><stop id="stop3668" offset="0.5481" style="stop-color:#1B93C0"/><stop id="stop3670" offset="0.865" style="stop-color:#156F99"/><stop id="stop3672" offset="1" style="stop-color:#0F618B"/></radialGradient><polygon id="polygon3674" points="272.9,29 272.9,267.1 272.9,267.1 32.6,267.1 32.6,29 " style="fill:url(#SVGID_3_)"/><radialGradient cx="-946.08807" cy="473.59631" gradientTransform="translate(1036.8623,-401.251)" gradientUnits="userSpaceOnUse" id="SVGID_4_" r="241.9754"><stop id="stop3677" offset="0" style="stop-color:#26B8EB"/><stop id="stop3679" offset="0.19" style="stop-color:#26B8EB"/><stop id="stop3681" offset="0.3162" style="stop-color:#27ACDC"/><stop id="stop3683" offset="0.5545" style="stop-color:#2192BE"/><stop id="stop3685" offset="0.8773" style="stop-color:#166E98"/><stop id="stop3687" offset="1" style="stop-color:#0F618B"/></radialGradient><polygon id="polygon3689" points="32.5,267 32.5,28.9 32.5,28.9 273.1,28.9 273.1,267 " style="fill:url(#SVGID_4_)"/><g id="g3691"><defs id="defs3693"><polyline id="SVGID_5_" points="32.5,28.9 273.1,28.9 273.1,267 32.5,267 32.5,28.9     "/></defs><clipPath id="SVGID_6_"><use xmlns:xlink="http://www.w3.org/1999/xlink" height="100%" id="use3697" overflow="visible" style="overflow:visible" width="100%" x="0" xlink:href="#SVGID_5_" y="0"/></clipPath><path clip-path="url(#SVGID_6_)" d="m 279.3,188.6 c 0,-4.2 -1.2,-7 -2.1,-8.7 0.3,0 0.8,0 0.8,0 l 0,-17.4 -1.2,0 -20.1,0 c -1.6,0 -4.2,0.6 -6.1,1.8 0,-0.2 0,-1.8 0,-1.8 l -19.9,0 c -2.6,0 -4.8,0.7 -6.6,1.8 0,-0.2 0,-1.8 0,-1.8 l -31.5,0 c 0,0 0,1.7 0,2 -2.2,-1.5 -5,-2 -6.6,-2 l -24.5,0 c 0,0 0,1.5 0,1.7 -1.9,-1.1 -4.3,-1.6 -5.7,-1.7 l -27.8,0 c 0,0 -4.3,4.8 -5.6,6.2 -1.3,-1.4 -5.5,-6.2 -5.5,-6.2 l -36.2,0 0,39.8 35.6,0 c 0,0 4.3,-4.9 5.6,-6.4 1.2,1.5 5.2,6.4 5.2,6.4 l 21.7,0 c 0,0 0,-8.1 0,-9.9 1.7,0 6.8,0 6.8,0 l 0.2,0 c 1.6,-0.1 3.8,-0.2 5.6,-1.3 0,3.3 0,11.2 0,11.2 l 17.3,0 c 0,0 0,-9.2 0,-11 0.6,0 1.2,0 1.2,0 1.2,0 1.2,0.3 1.2,1.5 l 0.1,0.7 0,-0.1 0,8.9 57.5,0 c 2.4,0 4.4,-0.5 6,-1.6 l 0,1.6 21.3,0 c 13.1,-0.8 13.3,-12.9 13.3,-13.7 l 0,0 0,0 z m -126.2,-1.5 -9.4,0 0,9.7 -13.6,0 -8.2,-9.5 -8.5,9.5 -26.9,0 0,-28.7 27.8,0 7.8,9 8.1,-8.9 24.7,0 c 3.4,0 8.5,1.6 8.5,8.8 0,10 -6.6,10.1 -10.3,10.1 l 0,0 z m 40.2,3.9 0.2,5.9 -6.9,0 -0.2,-5.3 c 0,-2.4 -1,-4.9 -3.4,-4.9 l -9.2,0 0,10.1 -7,0 0,-28.7 18.3,0 c 3.5,0 8.4,1.6 8.4,7.7 0,3.4 -1,6 -4.9,7.9 3.4,0.5 4.7,2.7 4.7,7.3 l 0,0 z m 26.8,-16.7 -16,0 0,5.4 15.6,0 0,5.4 -15.6,0 0,5.7 16,0 0,6 -23,0 0,-28.7 23,0 0,6.2 0,0 z m 18.2,22.6 -14.8,0 0,-6.2 11.5,0 c 2,0 4.9,0 4.9,-2.8 0,-1.3 -0.5,-2.2 -2.6,-2.4 -0.9,-0.1 -4.4,-0.3 -4.9,-0.3 -7.8,-0.2 -9.6,-4.1 -9.6,-8.8 0,-5.4 3.8,-8.3 8.4,-8.3 l 14.8,0 0,6.2 -10.8,0 c -2.5,0 -5.1,-0.3 -5.1,2.5 0,1.7 1.3,2.1 3,2.3 0.6,0 4.4,0.2 4.9,0.2 8.7,0.4 9.4,4.8 9.4,9.4 -0.1,5.3 -4.5,8.2 -9.1,8.2 l 0,0 z m 26.4,0 -14.8,0 0,-6.2 11.5,0 c 2,0 4.9,0 4.9,-2.8 0,-1.3 -0.5,-2.2 -2.6,-2.4 -0.9,-0.1 -4.4,-0.3 -4.9,-0.3 -7.8,-0.2 -9.6,-4.1 -9.6,-8.8 0,-5.4 3.8,-8.3 8.4,-8.3 l 15.5,0 0,6.2 -11.5,0 c -2.5,0 -5.1,-0.3 -5.1,2.5 0,1.7 1.3,2.1 3,2.3 0.6,0 4.4,0.2 5,0.2 8.7,0.4 9.4,4.8 9.4,9.4 -0.2,5.3 -4.6,8.2 -9.2,8.2 l 0,0 z" id="path3699" style="fill:#ffffff"/><path clip-path="url(#SVGID_6_)" d="m 152.4,174.3 -8.8,0 0,6.9 8.7,0 c 2.9,0 3.9,-1.7 3.9,-3.6 0.1,-1.4 -0.8,-3.3 -3.8,-3.3 l 0,0 z" id="path3701" style="fill:#ffffff"/><path clip-path="url(#SVGID_6_)" d="m 182.6,174.3 -8.8,0 0,6.5 8.7,0 c 2.9,0 3.9,-1.3 3.9,-3.2 0.1,-1.4 -0.8,-3.3 -3.8,-3.3 l 0,0 z" id="path3703" style="fill:#ffffff"/><polygon clip-path="url(#SVGID_6_)" id="polygon3705" points="109.1,185.1 93.6,185.1 93.6,190.8 109.8,190.8 117.6,182.1 110.7,174.3 93.6,174.3 93.6,174.3 93.6,179.7 109.1,179.7 " style="fill:#ffffff"/><polygon clip-path="url(#SVGID_6_)" id="polygon3707" points="126.5,182.1 126.5,182.1 136.7,194.1 136.6,170.8 " style="fill:#ffffff"/><path clip-path="url(#SVGID_6_)" d="m 259.8,113.3 -16.3,0 c 0,0 0,4.2 0,7 -1.7,-3 -4.1,-7 -4.1,-7 l -18.3,0 c 0,0 0,4.3 0,7.3 -1.5,-3.2 -3.2,-7.3 -3.2,-7.3 l -28.7,0 c -3.6,0 -6.4,0.9 -8.6,2.7 0,-0.7 0,-2.7 0,-2.7 l -16,0 c 0,0 0,1.7 0,1.9 -1.9,-1.4 -4.3,-1.9 -6.4,-1.9 l -66.3,0 c 0,0 -3.4,7.4 -4.8,10.4 -1.4,-3 -4.9,-10.4 -4.9,-10.4 l -20.4,0 c 0,0 0,4.3 0,7.4 -1.4,-3.3 -3.1,-7.4 -3.1,-7.4 l -16.7,0 -17.6,39.7 20.4,0 c 0,0 2.5,-5.6 2.9,-6.7 1,0 4.2,0 5.3,0 0.5,1.1 2.8,6.7 2.8,6.7 l 23,0 c 0,0 0,-3 0,-4.7 1,2 2.2,4.7 2.2,4.7 l 12.2,0 c 0,0 1.2,-2.6 2.1,-4.5 0,1.6 0,4.5 0,4.5 l 55.2,0 c 0,0 0,-8.9 0,-10.8 0.8,0 1.6,0 1.6,0 0.7,0 1.3,0.8 1.3,1.4 l 0,9.4 27.2,0 c 0,0 0,-2.3 0,-3.3 3,2.5 7.8,3.2 9.5,3.3 l 0.1,0 13.8,0 c 0,0 2.6,-6.1 3.1,-7.3 1,0 4,0 5,0 0.5,1.1 3.3,7.3 3.3,7.3 l 22.5,0 c 0,0 0,-4.9 0,-8.1 2,3.3 5,8.1 5,8.1 l 18.1,0 0,-39.7 -1.2,0 0,0 z m -152.9,34.2 -7,0 0,-21 -9.7,21 -6.4,0 -9.4,-21.3 0,21.3 -14.2,0 -2.8,-6.4 -14,0 -2.8,6.4 -7.4,0 12.5,-28.7 9.3,0 12.3,27.7 0,-27.7 11,0 8.6,19.3 8.6,-19.3 11.2,0 0,28.7 0.2,0 z m 27.7,-22.5 -16,0 0,5.3 15.5,0 0,5.5 -15.5,0 0,5.7 16,0 0,6 -23,0 0,-28.7 23,0 0,6.2 0,0 z m 30.6,16.6 0.2,5.9 -6.8,0 -0.2,-5.3 c -0.1,-2.4 -1,-4.9 -3.5,-4.9 l -9.2,0 0,10.1 -7,0 0,-28.7 18.3,0 c 3.5,0 8.5,1.5 8.5,7.7 0,3.5 -1,6 -4.9,7.9 3.3,0.6 4.6,2.7 4.6,7.3 l 0,0 z m 10.9,5.9 -7,0 0,-28.7 7,0 0,28.7 0,0 z m 79.5,0 -9.6,0 -12.7,-21 0,21 -13.9,0 -2.8,-6.4 -14.1,0 -2.7,6.4 -9.3,0 c -7.8,0 -11.3,-6.6 -11.1,-14.5 0.2,-11.8 7.2,-14.2 10.4,-14.2 l 9.2,0 0,6.3 -4.4,0 c -4.4,0 -7.9,0.4 -8.3,6.2 -0.1,0.9 -0.1,2.8 0,3.8 0.3,6.1 4.8,6.1 5.8,6.1 l 3,0 9.7,-22.2 9.3,0 12,27 0,-27 10.4,0 11.9,19.9 0,-19.9 7,0 0,28.5 0.2,0 z" id="path3709" style="fill:#ffffff"/><polygon clip-path="url(#SVGID_6_)" id="polygon3711" points="205.4,135 205.4,135 214,135 209.6,124.9 " style="fill:#ffffff"/><path clip-path="url(#SVGID_6_)" d="m 154.5,125 -8.8,0 0,6.5 8.8,0 c 2.9,0 3.9,-1.3 3.9,-3.2 0,-1.4 -0.9,-3.3 -3.9,-3.3 l 0,0 z" id="path3713" style="fill:#ffffff"/><polygon clip-path="url(#SVGID_6_)" id="polygon3715" points="46.1,134.9 46.1,134.9 54.6,134.9 50.3,124.9 " style="fill:#ffffff"/></g></g></g></svg>