<?xml version="1.0" encoding="UTF-8"?><svg xmlns="http://www.w3.org/2000/svg" class="" enable-background="new 0 0 245.442 169.365" height="36px" version="1.1" viewBox="0 0 245.442 169.365" width="57px" x="0px" xml:space="preserve" y="0px"><path d="M132.842,98.169c26.835,0.13,51.33-21.88,51.33-48.658c0-29.28-24.495-49.519-51.33-49.511h-23.096   C82.591-0.008,60.238,20.235,60.238,49.511c0,26.784,22.353,48.788,49.508,48.658H132.842z" fill="#0069AA"/><path d="M120.049,75.584v-53.17c10.688,4.099,18.275,14.447,18.294,26.584   C138.324,61.135,130.737,71.478,120.049,75.584 M81.377,48.999c0.023-12.129,7.6-22.471,18.281-26.583v53.159   C88.977,71.465,81.4,61.129,81.377,48.999 M109.856,4.059c-24.815,0.008-44.924,20.12-44.929,44.94   c0.005,24.817,20.114,44.924,44.929,44.931c24.822-0.007,44.934-20.114,44.937-44.931C154.79,24.178,134.678,4.066,109.856,4.059" fill="#FFFFFF"/><path d="M10.038,131.67c0,3.996,2.858,4.463,5.399,4.463c11.214,0,14.895-8.459,14.895-16.193c0-9.704-6.228-16.708-16.243-16.708   c-2.132,0-3.112,0.151-4.051,0.206V131.67z M4.951,107.326c0-4.667-2.436-4.36-4.769-4.409v-1.349   c2.023,0.099,4.097,0.099,6.124,0.099c2.179,0,5.137-0.099,8.98-0.099c13.44,0,20.758,8.974,20.758,18.165   c0,5.141-3.01,18.062-21.383,18.062c-2.645,0-5.087-0.104-7.526-0.104c-2.333,0-4.62,0.051-6.953,0.104v-1.35   c3.111-0.312,4.62-0.416,4.769-3.945V107.326z"/><path d="M43.416,106.084c-1.352,0-2.544-1.246-2.544-2.595c0-1.3,1.248-2.496,2.544-2.496c1.345,0,2.542,1.093,2.542,2.496   C45.958,104.892,44.814,106.084,43.416,106.084 M37.862,136.445h0.986c1.45,0,2.489,0,2.489-1.717v-14.062   c0-2.282-0.777-2.599-2.699-3.631v-0.831c2.439-0.73,5.348-1.712,5.553-1.868c0.366-0.207,0.674-0.262,0.936-0.262   c0.256,0,0.363,0.312,0.363,0.729v19.924c0,1.717,1.142,1.717,2.597,1.717h0.88v1.35c-1.766,0-3.584-0.104-5.447-0.104   c-1.87,0-3.739,0.051-5.658,0.104V136.445z"/><path d="M53.898,120.977c0-1.918-0.573-2.436-3.008-3.422v-0.986c2.229-0.726,4.354-1.402,6.848-2.493   c0.156,0,0.308,0.106,0.308,0.517v3.376c2.962-2.125,5.506-3.893,8.988-3.893c4.407,0,5.964,3.218,5.964,7.267v13.387   c0,1.717,1.142,1.717,2.595,1.717h0.936v1.35c-1.822,0-3.637-0.104-5.501-0.104c-1.872,0-3.74,0.051-5.609,0.104v-1.35h0.935   c1.455,0,2.488,0,2.488-1.717v-13.438c0-2.961-1.808-4.411-4.77-4.411c-1.661,0-4.308,1.347-6.026,2.491v15.357   c0,1.717,1.147,1.717,2.601,1.717h0.933v1.35c-1.816,0-3.635-0.104-5.504-0.104c-1.865,0-3.737,0.051-5.604,0.104v-1.35h0.936   c1.453,0,2.49,0,2.49-1.717V120.977z"/><path d="M89.663,121.81c1.296,0,1.447-0.676,1.447-1.298c0-2.646-1.607-4.774-4.515-4.774c-3.164,0-5.343,2.331-5.966,6.072H89.663z    M80.476,123.472c-0.108,0.468-0.108,1.243,0,3.011c0.305,4.93,3.478,8.977,7.624,8.977c2.859,0,5.093-1.559,7.01-3.477l0.725,0.727   c-2.389,3.166-5.346,5.865-9.599,5.865c-8.255,0-9.915-7.994-9.915-11.314c0-10.176,6.85-13.186,10.48-13.186   c4.208,0,8.727,2.646,8.774,8.148c0,0.314,0,0.623-0.047,0.938l-0.472,0.312H80.476z"/><path d="M96.771,136.445h1.402c1.448,0,2.487,0,2.487-1.717v-14.579c0-1.608-1.919-1.922-2.699-2.337v-0.776   c3.789-1.61,5.866-2.962,6.34-2.962c0.304,0,0.46,0.156,0.46,0.678v4.67h0.11c1.293-2.023,3.476-5.348,6.64-5.348   c1.299,0,2.958,0.882,2.958,2.751c0,1.402-0.984,2.651-2.437,2.651c-1.615,0-1.615-1.249-3.429-1.249   c-0.884,0-3.789,1.194-3.789,4.31v12.191c0,1.717,1.036,1.717,2.491,1.717h2.904v1.35c-2.855-0.053-5.027-0.104-7.262-0.104   c-2.127,0-4.308,0.051-6.176,0.104V136.445z"/><path d="M116.751,130.58c0.676,3.424,2.75,6.332,6.541,6.332c3.058,0,4.199-1.868,4.199-3.684c0-6.125-11.31-4.154-11.31-12.508   c0-2.908,2.338-6.646,8.045-6.646c1.658,0,3.89,0.469,5.913,1.507l0.365,5.29h-1.193c-0.519-3.267-2.335-5.134-5.659-5.134   c-2.077,0-4.047,1.193-4.047,3.424c0,6.076,12.041,4.204,12.041,12.352c0,3.424-2.75,7.061-8.928,7.061   c-2.076,0-4.516-0.727-6.33-1.764l-0.573-5.969L116.751,130.58z"/><path d="M178.511,110.96h-1.294c-0.989-6.068-5.297-8.51-11.107-8.51c-5.972,0-14.641,3.994-14.641,16.45   c0,10.488,7.48,18.012,15.469,18.012c5.136,0,9.396-3.527,10.435-8.98l1.192,0.311l-1.192,7.578   c-2.181,1.354-8.046,2.754-11.474,2.754c-12.141,0-19.821-7.838-19.821-19.516c0-10.641,9.495-18.272,19.667-18.272   c4.203,0,8.253,1.353,12.247,2.756L178.511,110.96z"/><path d="M180.383,136.445h0.982c1.457,0,2.496,0,2.496-1.717v-28.903c0-3.375-0.779-3.479-2.751-4.049v-0.831   c2.075-0.673,4.255-1.607,5.345-2.233c0.567-0.309,0.985-0.572,1.138-0.572c0.315,0,0.42,0.314,0.42,0.729v35.859   c0,1.717,1.141,1.717,2.596,1.717h0.877v1.35c-1.76,0-3.578-0.104-5.446-0.104c-1.867,0-3.735,0.051-5.657,0.104V136.445z"/><path d="M213.707,134.938c0,0.938,0.568,0.987,1.45,0.987c0.624,0,1.4-0.05,2.078-0.05v1.093c-2.235,0.206-6.49,1.296-7.477,1.606   l-0.26-0.156v-4.203c-3.11,2.543-5.5,4.359-9.189,4.359c-2.802,0-5.707-1.816-5.707-6.174v-13.29c0-1.35-0.207-2.647-3.109-2.905   v-0.987c1.869-0.052,6.014-0.362,6.691-0.362c0.575,0,0.575,0.362,0.575,1.505v13.388c0,1.56,0,6.021,4.513,6.021   c1.764,0,4.1-1.35,6.277-3.161v-13.967c0-1.036-2.49-1.604-4.354-2.124v-0.936c4.665-0.312,7.576-0.727,8.094-0.727   c0.418,0,0.418,0.362,0.418,0.936V134.938z"/><path d="M224.033,131.928c0,1.973,1.868,5.297,5.345,5.297c5.554,0,7.888-5.451,7.888-10.072c0-5.604-4.252-10.272-8.3-10.272   c-1.926,0-3.532,1.247-4.933,2.44V131.928z M224.033,117.812c2.074-1.763,4.879-3.737,7.734-3.737c6.02,0,9.651,5.246,9.651,10.901   c0,6.798-4.982,13.599-12.406,13.599c-3.837,0-5.862-1.246-7.213-1.816l-1.555,1.191l-1.086-0.568   c0.46-3.062,0.724-6.073,0.724-9.239v-22.316c0-3.376-0.782-3.48-2.753-4.05v-0.83c2.08-0.674,4.256-1.608,5.346-2.233   c0.571-0.309,0.984-0.572,1.145-0.572c0.311,0,0.413,0.314,0.413,0.729V117.812z"/><path d="M0.123,167.971H0.52c1.016,0,2.088-0.139,2.088-1.606v-14.796c0-1.473-1.072-1.612-2.088-1.612H0.123v-0.848   c1.102,0,2.796,0.112,4.184,0.112c1.41,0,3.103-0.112,4.43-0.112v0.848H8.339c-1.012,0-2.088,0.14-2.088,1.612v14.796   c0,1.468,1.076,1.606,2.088,1.606h0.397v0.853c-1.355,0-3.053-0.112-4.46-0.112c-1.385,0-3.052,0.112-4.154,0.112V167.971z"/><path d="M8.615,168.701l0.001-0.604H8.342c-1.008,0-2.21-0.175-2.215-1.734v-14.795c0.005-1.561,1.207-1.736,2.215-1.736h0.273   v-0.601c-1.305,0.001-2.939,0.112-4.309,0.112c-1.341,0-2.965-0.105-4.058-0.112v0.601h0.268c1.008,0,2.211,0.176,2.211,1.736   v14.795c0,1.56-1.203,1.734-2.211,1.734H0.248v0.604c1.093-0.012,2.688-0.115,4.027-0.115C5.65,168.586,7.283,168.693,8.615,168.701    M8.737,168.941c-1.366,0-3.056-0.113-4.462-0.113c-1.382,0-3.044,0.113-4.153,0.113H0v-0.121v-0.848v-0.123h0.122h0.394   c1.027-0.023,1.958-0.105,1.968-1.486v-14.795c-0.01-1.382-0.941-1.473-1.968-1.49H0v-0.123v-0.971h0.122   c1.109,0,2.803,0.112,4.184,0.112c1.405,0,3.095-0.112,4.431-0.112h0.125v0.127v0.967H8.737H8.342   c-1.026,0.018-1.962,0.108-1.968,1.49v14.795c0.006,1.381,0.942,1.463,1.968,1.486h0.52v0.123v0.969H8.737z"/><path d="M28.138,163.256l0.057-0.057v-10.587c0-2.317-1.612-2.656-2.458-2.656h-0.622v-0.848c1.328,0,2.628,0.112,3.954,0.112   c1.156,0,2.319-0.112,3.473-0.112v0.848h-0.421c-1.189,0-2.516,0.226-2.516,3.587v12.853c0,0.985,0.029,1.974,0.167,2.849H28.7   l-14.542-16.211v11.637c0,2.455,0.476,3.301,2.653,3.301h0.479v0.852c-1.213,0-2.426-0.111-3.643-0.111   c-1.266,0-2.567,0.111-3.839,0.111v-0.852h0.395c1.949,0,2.541-1.323,2.541-3.582v-11.895c0-1.578-1.302-2.538-2.567-2.538H9.808   v-0.848c1.072,0,2.174,0.112,3.245,0.112c0.848,0,1.669-0.112,2.515-0.112L28.138,163.256z"/><path d="M28.073,163.197v-0.008l-0.023-0.021L28.073,163.197z M28.138,163.257l0.091-0.082L28.138,163.257z M28.7,169.119h0.935   c-0.128-0.85-0.149-1.789-0.149-2.725v-12.853c0-3.388,1.419-3.71,2.636-3.71h0.298v-0.601c-1.113,0.007-2.229,0.111-3.351,0.111   c-1.292,0-2.551-0.104-3.828-0.111l-0.002,0.601h0.498c0.868,0,2.58,0.387,2.58,2.781l-0.037,10.672l-0.057,0.059l-0.096,0.088   l-12.559-14.2c-0.838,0-1.656,0.111-2.517,0.111c-1.035,0-2.095-0.104-3.12-0.111l-0.004,0.601h0.25   c1.325,0,2.688,1.013,2.688,2.664v11.893c0,2.26-0.63,3.704-2.661,3.713l-0.273-0.009v0.608c1.225-0.012,2.483-0.114,3.717-0.114   c1.179,0,2.355,0.103,3.52,0.114v-0.6h-0.357c-2.222-0.009-2.773-0.976-2.776-3.431v-11.956L28.7,169.119z M29.773,169.365   l-1.165-0.041l-14.33-15.973v11.319c0.034,2.455,0.407,3.151,2.533,3.179h0.605v0.121v0.971H17.29c-1.221,0-2.437-0.113-3.642-0.113   c-1.264,0-2.561,0.113-3.842,0.113H9.683v-0.121v-0.971h0.123h0.398c1.866-0.011,2.399-1.209,2.421-3.461v-11.893   c-0.006-1.502-1.238-2.418-2.448-2.418H9.683v-0.129v-0.963h0.123c1.08,0,2.184,0.11,3.245,0.11c0.842,0,1.658-0.11,2.61-0.067   l12.412,13.972v-10.388c-0.015-2.246-1.513-2.518-2.336-2.535H24.99v-0.129v-0.963h0.125c1.333,0,2.634,0.11,3.954,0.11   c1.15,0,2.307-0.11,3.474-0.11h0.123v0.123v0.969h-0.123h-0.421c-1.166,0.031-2.362,0.135-2.395,3.464v12.853   c0,0.985,0.029,1.969,0.166,2.828l0.026,0.143H29.773z"/><path d="M36.773,150.521c-2.121,0-2.201,0.509-2.625,2.567H33.3c0.112-0.789,0.253-1.579,0.341-2.4   c0.112-0.791,0.168-1.579,0.168-2.396h0.677c0.228,0.848,0.933,0.817,1.699,0.817h14.567c0.766,0,1.47-0.026,1.528-0.876   l0.674,0.113c-0.109,0.763-0.223,1.525-0.308,2.287c-0.054,0.764-0.054,1.527-0.054,2.287l-0.848,0.314   c-0.059-1.045-0.2-2.714-2.091-2.714h-4.63v15.024c0,2.179,0.989,2.427,2.34,2.427h0.539v0.851c-1.101,0-3.079-0.111-4.602-0.111   c-1.694,0-3.674,0.111-4.777,0.111v-0.851h0.539c1.558,0,2.343-0.14,2.343-2.368v-15.083H36.773z"/><path d="M47.905,168.941c-1.111,0-3.086-0.112-4.605-0.112c-1.692,0-3.667,0.112-4.776,0.112h-0.118v-0.119v-0.973h0.118h0.538   c1.558-0.037,2.183-0.056,2.218-2.246v-14.961h-4.507v-0.121v-0.127h4.753v15.209c0,2.267-0.913,2.494-2.464,2.498h-0.416v0.594   c1.114-0.006,3.015-0.108,4.654-0.108c1.473,0,3.36,0.103,4.477,0.108v-0.594h-0.414c-1.364-0.004-2.462-0.338-2.462-2.556v-15.151   h4.753c1.896,0.006,2.143,1.617,2.205,2.666l0.61-0.225c0-0.734,0.004-1.475,0.055-2.219c0.082-0.727,0.186-1.446,0.292-2.168   l-0.431-0.072c-0.132,0.82-0.925,0.863-1.635,0.855H36.185h-0.147c-0.663,0-1.389-0.031-1.641-0.82H33.93   c-0.004,0.781-0.059,1.538-0.168,2.291c-0.082,0.775-0.211,1.521-0.315,2.268h0.603c0.373-1.967,0.615-2.605,2.723-2.576v0.127   v0.121c-2.089,0.038-2.044,0.389-2.505,2.477l-0.021,0.096h-0.099h-0.989l0.016-0.146c0.115-0.789,0.258-1.58,0.342-2.4   c0.116-0.783,0.17-1.566,0.17-2.377v-0.125h0.122h0.774l0.021,0.09c0.192,0.713,0.715,0.717,1.434,0.729h0.147H50.75   c0.786-0.012,1.36-0.022,1.408-0.762l0.011-0.133l0.128,0.025l0.796,0.127l-0.018,0.123c-0.112,0.757-0.224,1.52-0.307,2.277   c-0.055,0.754-0.055,1.514-0.055,2.277v0.086l-0.08,0.033l-1,0.365l-0.008-0.166c-0.075-1.059-0.187-2.596-1.971-2.596h-4.508   v14.903c0.027,2.128,0.871,2.276,2.217,2.304h0.662v0.121v0.971H47.905z"/><path d="M53.856,167.971h0.397c1.016,0,2.089-0.139,2.089-1.606v-14.796c0-1.473-1.073-1.612-2.089-1.612h-0.397v-0.848   c1.719,0,4.662,0.112,7.029,0.112c2.377,0,5.309-0.112,7.229-0.112c-0.049,1.212-0.021,3.081,0.061,4.321l-0.85,0.227   c-0.137-1.835-0.475-3.303-3.442-3.303h-3.922v7.396h3.356c1.694,0,2.063-0.957,2.231-2.484h0.846   c-0.056,1.104-0.085,2.203-0.085,3.305c0,1.074,0.029,2.146,0.085,3.219l-0.846,0.168c-0.168-1.691-0.253-2.793-2.204-2.793h-3.383   v6.578c0,1.836,1.632,1.836,3.439,1.836c3.391,0,4.886-0.227,5.735-3.443l0.789,0.193c-0.368,1.502-0.706,2.995-0.957,4.495   c-1.81,0-5.057-0.112-7.596-0.112c-2.546,0-5.905,0.112-7.515,0.112V167.971z"/><path d="M68.861,168.695c0.245-1.426,0.568-2.854,0.915-4.274l-0.558-0.14c-0.846,3.16-2.482,3.441-5.817,3.42   c-1.779,0-3.559,0-3.568-1.959v-6.701h3.511c1.971-0.021,2.171,1.168,2.311,2.775l0.612-0.129c-0.054-1.037-0.081-2.08-0.081-3.117   c0-1.062,0.027-2.121,0.081-3.185h-0.612c-0.157,1.474-0.618,2.505-2.338,2.487h-3.484v-7.646h4.05   c2.938-0.021,3.425,1.497,3.55,3.271l0.609-0.162c-0.048-0.799-0.08-1.82-0.08-2.764c0-0.484,0.011-0.941,0.026-1.34   c-1.919,0.006-4.78,0.11-7.103,0.11c-2.321,0-5.176-0.104-6.907-0.11v0.6h0.275c1.006,0.001,2.207,0.176,2.213,1.736v14.795   c-0.006,1.56-1.207,1.729-2.213,1.738h-0.275v0.594c1.646-0.002,4.909-0.108,7.391-0.108   C63.861,168.587,67.041,168.693,68.861,168.695 M68.965,168.941c-1.813,0-5.061-0.115-7.596-0.115c-2.544,0-5.901,0.115-7.513,0.115   h-0.12v-0.119v-0.852v-0.121h0.12h0.397c1.023-0.017,1.951-0.105,1.964-1.486v-14.795c-0.013-1.379-0.941-1.471-1.964-1.49h-0.517   v-0.122v-0.97h0.12c1.724,0,4.662,0.11,7.029,0.11c2.375,0,5.306-0.11,7.229-0.11h0.126l-0.004,0.127   c-0.021,0.426-0.03,0.928-0.03,1.459c0,0.977,0.03,2.043,0.086,2.848l0.003,0.104l-0.093,0.027l-0.992,0.259l-0.007-0.146   c-0.166-1.832-0.412-3.164-3.32-3.189h-3.805l-0.002,7.148h3.241c1.626-0.016,1.917-0.848,2.109-2.369l0.009-0.113h0.112h0.972   l-0.003,0.129c-0.054,1.1-0.088,2.199-0.088,3.301c0,1.069,0.034,2.141,0.088,3.215l0.003,0.1l-0.101,0.023l-0.983,0.195   l-0.009-0.131c-0.194-1.726-0.207-2.67-2.082-2.691h-3.266v6.461c0.002,1.714,1.483,1.705,3.323,1.714   c3.4-0.021,4.764-0.187,5.614-3.356l0.03-0.113l0.117,0.021l0.906,0.232l-0.026,0.119c-0.368,1.492-0.704,2.988-0.957,4.482   l-0.022,0.1H68.965z"/><path d="M77.353,158.65h1.378c2.828,0,4.35-1.07,4.35-4.404c0-2.51-1.608-4.119-4.125-4.119c-0.849,0-1.21,0.086-1.603,0.112V158.65   z M73.736,152.101c0-2.06-1.13-2.144-2.007-2.144h-0.509v-0.849c0.904,0,2.654,0.112,4.378,0.112c1.692,0,3.049-0.112,4.546-0.112   c3.555,0,6.722,0.959,6.722,4.974c0,2.537-1.694,4.09-3.924,4.971l4.827,7.223c0.792,1.196,1.354,1.53,2.74,1.696v0.851   c-0.933,0-1.837-0.111-2.767-0.111c-0.876,0-1.782,0.111-2.654,0.111c-2.174-2.851-4.042-5.902-5.876-9.154h-1.86v6.047   c0,2.177,1.014,2.257,2.31,2.257h0.511v0.851c-1.613,0-3.245-0.111-4.858-0.111c-1.357,0-2.683,0.111-4.095,0.111v-0.851h0.509   c1.048,0,2.007-0.476,2.007-1.522V152.101z"/><path d="M78.731,158.53c2.797-0.024,4.205-0.995,4.232-4.278c-0.015-2.465-1.547-3.996-4.008-4.006   c-0.763,0-1.122,0.068-1.483,0.102v8.183H78.731z M77.35,158.772h-0.123v-8.646l0.108-0.012c0.385-0.03,0.767-0.107,1.62-0.107   c2.573,0,4.246,1.67,4.25,4.244c-0.008,3.371-1.625,4.519-4.474,4.521H77.35z M77.35,159.549h1.929l0.036,0.061   c1.839,3.245,3.694,6.294,5.774,9.092c0.862,0,1.768-0.115,2.648-0.115c0.902,0,1.772,0.098,2.65,0.11v-0.618   c-1.326-0.164-1.945-0.561-2.717-1.732l-4.916-7.352l0.14-0.057c2.21-0.871,3.846-2.381,3.849-4.861   c-0.003-3.918-3.049-4.827-6.598-4.845c-1.489,0-2.845,0.112-4.546,0.112c-1.659,0-3.333-0.105-4.259-0.112v0.601h0.39   c0.877,0.001,2.125,0.146,2.125,2.268v14.35c0,1.135-1.062,1.648-2.125,1.652h-0.39v0.595c1.36-0.002,2.648-0.11,3.973-0.11   c1.579,0,3.172,0.108,4.736,0.11v-0.595h-0.386c-1.289-0.004-2.436-0.161-2.436-2.391v-6.162H77.35z M90.51,168.942   c-0.947,0-1.845-0.114-2.773-0.114c-0.861,0-1.763,0.114-2.748,0.067c-2.167-2.843-4.023-5.875-5.848-9.101h-1.669v5.916   c0.03,2.125,0.884,2.108,2.191,2.139h0.633v0.121v0.972h-0.127c-1.614,0-3.254-0.114-4.856-0.114c-1.349,0-2.674,0.114-4.093,0.114   h-0.122v-0.121v-0.972h0.122h0.51c1.018-0.008,1.874-0.448,1.879-1.4V152.1c-0.021-2.002-1.002-1.992-1.879-2.021h-0.632v-0.122   v-0.972h0.122c0.915,0,2.658,0.111,4.379,0.111c1.687,0,3.041-0.111,4.546-0.111c3.56,0.008,6.836,0.99,6.846,5.092   c0,2.549-1.684,4.141-3.864,5.03l4.744,7.103c0.789,1.172,1.281,1.465,2.656,1.641l0.102,0.016v0.105v0.972H90.51z"/><path d="M109.683,163.256l0.051-0.057v-10.587c0-2.317-1.607-2.656-2.454-2.656h-0.619v-0.848c1.326,0,2.622,0.112,3.953,0.112   c1.159,0,2.311-0.112,3.477-0.112v0.848h-0.425c-1.186,0-2.515,0.226-2.515,3.587v12.853c0,0.985,0.028,1.974,0.168,2.849h-1.072   l-14.542-16.211v11.637c0,2.455,0.478,3.301,2.654,3.301h0.479v0.852c-1.213,0-2.428-0.111-3.64-0.111   c-1.275,0-2.574,0.111-3.843,0.111v-0.852h0.391c1.951,0,2.546-1.323,2.546-3.582v-11.895c0-1.578-1.3-2.538-2.569-2.538h-0.368   v-0.848c1.069,0,2.175,0.112,3.247,0.112c0.842,0,1.664-0.112,2.512-0.112L109.683,163.256z"/><path d="M109.612,163.199v-0.008l-0.02-0.021L109.612,163.199z M109.681,163.257l0.089-0.082L109.681,163.257z M110.247,169.119   h0.928c-0.123-0.848-0.149-1.789-0.149-2.725v-12.853c0.001-3.388,1.43-3.702,2.64-3.71h0.295v-0.601   c-1.109,0.007-2.226,0.111-3.348,0.111c-1.296,0-2.555-0.104-3.834-0.111v0.601h0.501c0.87,0.008,2.581,0.387,2.581,2.779   l-0.04,10.674l-0.054,0.06l-0.087,0.091l-12.567-14.204c-0.839,0-1.657,0.111-2.511,0.111c-1.048,0-2.101-0.104-3.131-0.111v0.601   h0.251c1.327,0.008,2.686,1.008,2.686,2.662v11.89c0,2.267-0.636,3.709-2.662,3.718l-0.275-0.004v0.598   c1.223-0.006,2.48-0.108,3.72-0.108c1.184,0,2.358,0.103,3.525,0.108v-0.594h-0.357c-2.225-0.004-2.779-0.976-2.785-3.433v-11.948   L110.247,169.119z M111.319,169.365l-1.163-0.039l-14.333-15.975v11.317c0.035,2.457,0.406,3.153,2.536,3.181h0.597v0.121v0.971   h-0.121c-1.222,0-2.434-0.115-3.644-0.115c-1.261,0-2.566,0.115-3.836,0.115h-0.129v-0.119v-0.973h0.129h0.391   c1.864-0.007,2.4-1.209,2.418-3.466v-11.89c-0.003-1.504-1.235-2.416-2.442-2.416h-0.496v-0.123v-0.971h0.129   c1.076,0,2.181,0.112,3.247,0.112c0.83,0,1.648-0.112,2.596-0.074l12.414,13.979v-10.39c-0.007-2.244-1.511-2.521-2.332-2.533   h-0.746v-0.123v-0.971h0.124c1.334,0,2.635,0.112,3.955,0.112c1.15,0,2.309-0.112,3.473-0.112h0.124v0.127v0.967h-0.124h-0.42   c-1.166,0.029-2.366,0.135-2.395,3.464v12.853c0,0.985,0.025,1.963,0.168,2.832l0.015,0.139H111.319z"/><path d="M122.753,152.271h-0.058l-2.625,7.994h5.277L122.753,152.271z M118.632,164.783c-0.286,0.959-0.628,1.697-0.628,2.201   c0,0.848,1.19,0.987,2.12,0.987h0.313v0.851c-1.132-0.06-2.286-0.111-3.421-0.111c-1.016,0-2.027,0.052-3.047,0.111v-0.851h0.171   c1.1,0,2.034-0.649,2.451-1.836l4.523-12.958c0.366-1.047,0.878-2.459,1.048-3.506c0.9-0.309,2.031-0.873,2.567-1.213   c0.087-0.029,0.138-0.059,0.226-0.059c0.084,0,0.137,0,0.199,0.088c0.084,0.225,0.165,0.48,0.256,0.705l5.195,14.77   c0.339,0.988,0.675,2.033,1.041,2.884c0.34,0.791,0.935,1.125,1.868,1.125h0.168v0.851c-1.271-0.06-2.544-0.111-3.895-0.111   c-1.385,0-2.8,0.052-4.239,0.111v-0.851h0.311c0.647,0,1.753-0.11,1.753-0.817c0-0.367-0.254-1.129-0.571-2.035l-1.099-3.272h-6.41   L118.632,164.783z"/><path d="M122.631,152.309l0.064-0.021L122.631,152.309z M120.235,160.141h4.944l-2.458-7.566L120.235,160.141z M119.898,160.386   l2.704-8.238h0.093h0.058v0.124l-0.03,0.008l0.03-0.008v-0.124h0.086l2.682,8.238H119.898z M125.67,168.689   c1.398-0.048,2.768-0.104,4.117-0.104c1.312,0,2.541,0.056,3.769,0.104v-0.591h-0.042c-0.966,0.007-1.633-0.373-1.981-1.206   c-0.367-0.855-0.712-1.902-1.044-2.893l-5.198-14.768c-0.087-0.225-0.169-0.48-0.243-0.681c-0.024-0.028-0.017-0.028-0.042-0.028   h-0.051c-0.058,0-0.092,0.018-0.165,0.037c-0.543,0.352-1.677,0.908-2.513,1.131c-0.173,1.067-0.683,2.479-1.051,3.525   l-4.517,12.962c-0.432,1.226-1.422,1.923-2.572,1.92h-0.044v0.591c0.967-0.048,1.946-0.104,2.927-0.104   c1.091,0,2.207,0.056,3.285,0.104v-0.591h-0.181c-0.921-0.01-2.205-0.114-2.24-1.11c0.002-0.563,0.347-1.287,0.625-2.24l0.123,0.035   l-0.123-0.039l0.931-3.019h6.585l1.134,3.354c0.313,0.908,0.573,1.658,0.573,2.074c-0.041,0.867-1.234,0.928-1.874,0.944h-0.188   V168.689z M133.674,168.941c-1.269-0.054-2.541-0.115-3.887-0.115c-1.385,0-2.791,0.062-4.235,0.115l-0.129,0.006v-0.125v-0.978   h0.125h0.31c0.655,0,1.625-0.147,1.626-0.69c0.007-0.32-0.247-1.096-0.558-1.996l-1.074-3.192h-6.23l-0.878,2.853   c-0.286,0.963-0.625,1.709-0.622,2.17c0.009,0.69,1.065,0.856,2.002,0.856h0.433v0.129v0.974l-0.128-0.006   c-1.13-0.054-2.282-0.115-3.409-0.115c-1.011,0-2.031,0.062-3.043,0.115l-0.13,0.006v-0.125v-0.978h0.122h0.168   c1.053-0.002,1.929-0.601,2.337-1.746l4.522-12.964c0.369-1.047,0.879-2.454,1.123-3.58c0.885-0.301,2.02-0.869,2.564-1.211   c0.078-0.027,0.156-0.066,0.272-0.066c0.069-0.003,0.221,0.016,0.312,0.166c0.08,0.23,0.168,0.482,0.255,0.711l5.201,14.771   c0.332,0.989,0.668,2.032,1.037,2.868c0.328,0.755,0.847,1.05,1.754,1.052h0.288v0.129v0.974L133.674,168.941z"/><path d="M134.925,150.521c-2.119,0-2.203,0.509-2.627,2.567h-0.85c0.112-0.789,0.255-1.579,0.343-2.4   c0.112-0.791,0.165-1.579,0.165-2.396h0.68c0.225,0.848,0.934,0.817,1.694,0.817h14.574c0.759,0,1.464-0.026,1.522-0.876   l0.677,0.113c-0.109,0.763-0.221,1.525-0.306,2.287c-0.063,0.764-0.063,1.527-0.063,2.287l-0.846,0.314   c-0.051-1.045-0.192-2.714-2.086-2.714h-4.632v15.024c0,2.179,0.99,2.427,2.343,2.427h0.538v0.851c-1.102,0-3.076-0.111-4.604-0.111   c-1.691,0-3.672,0.111-4.773,0.111v-0.851h0.536c1.556,0,2.346-0.14,2.346-2.368v-15.083H134.925z"/><path d="M146.051,168.941c-1.109,0-3.087-0.112-4.604-0.112c-1.688,0-3.666,0.112-4.773,0.112h-0.125v-0.119v-0.973h0.125h0.536   c1.556-0.037,2.181-0.056,2.22-2.246l-0.003-14.961h-4.502v-0.121v-0.127h4.751v15.209c0,2.267-0.917,2.488-2.466,2.494h-0.416   v0.604c1.117-0.013,3.014-0.115,4.653-0.115c1.476,0,3.363,0.103,4.48,0.115l-0.001-0.604h-0.416   c-1.357-0.006-2.459-0.332-2.463-2.552v-15.151h4.755c1.895,0.006,2.144,1.617,2.198,2.666l0.615-0.225   c0-0.734,0.003-1.475,0.059-2.216c0.078-0.726,0.183-1.449,0.287-2.169l-0.427-0.074c-0.129,0.82-0.927,0.866-1.63,0.855H134.33   h-0.144c-0.665,0.006-1.387-0.031-1.643-0.824h-0.462c-0.007,0.783-0.061,1.542-0.172,2.295c-0.076,0.777-0.213,1.525-0.32,2.268   h0.606c0.372-1.967,0.618-2.607,2.73-2.576v0.127v0.121c-2.095,0.035-2.047,0.389-2.509,2.477l-0.021,0.096h-0.097h-0.993   l0.017-0.141c0.119-0.795,0.257-1.586,0.342-2.401c0.115-0.788,0.169-1.571,0.169-2.382v-0.125h0.123h0.77l0.025,0.09   c0.197,0.713,0.713,0.717,1.435,0.729c0.051,0,0.094,0.002,0.144,0.002h14.574c0.779-0.014,1.351-0.024,1.399-0.762l0.008-0.135   l0.133,0.025l0.8,0.127l-0.021,0.123c-0.115,0.757-0.223,1.52-0.308,2.277c-0.058,0.754-0.058,1.518-0.058,2.277v0.086l-0.081,0.033   l-1.001,0.365l-0.004-0.166c-0.074-1.059-0.185-2.596-1.969-2.596h-4.51v14.903c0.03,2.128,0.874,2.276,2.218,2.304h0.66v0.121   v0.971H146.051z"/><path d="M152.145,167.971h0.395c1.02,0,2.088-0.139,2.088-1.606v-14.796c0-1.473-1.068-1.612-2.088-1.612h-0.395v-0.848   c1.104,0,2.795,0.112,4.177,0.112c1.416,0,3.111-0.112,4.439-0.112v0.848h-0.395c-1.019,0-2.094,0.14-2.094,1.612v14.796   c0,1.468,1.075,1.606,2.094,1.606h0.395v0.853c-1.356,0-3.052-0.112-4.462-0.112c-1.386,0-3.05,0.112-4.154,0.112V167.971z"/><path d="M160.633,168.695v-0.598h-0.268c-1.012,0-2.213-0.175-2.213-1.734v-14.795c0-1.561,1.201-1.735,2.213-1.736h0.268v-0.6   c-1.304,0.006-2.937,0.11-4.312,0.11c-1.34,0-2.958-0.104-4.053-0.11v0.6h0.271c1.005,0.001,2.209,0.176,2.213,1.736v14.795   c-0.004,1.56-1.208,1.734-2.213,1.734h-0.271v0.598c1.09-0.012,2.686-0.108,4.029-0.108   C157.667,168.587,159.3,168.689,160.633,168.695 M160.76,168.941c-1.365,0-3.055-0.115-4.463-0.115   c-1.381,0-3.048,0.115-4.153,0.115h-0.122v-0.119v-0.852v-0.121h0.122h0.395c1.02-0.017,1.957-0.105,1.962-1.486v-14.795   c-0.005-1.379-0.942-1.473-1.962-1.49h-0.517v-0.122v-0.97h0.122c1.105,0,2.801,0.11,4.177,0.11c1.408,0,3.102-0.11,4.439-0.11   h0.118v0.123v0.969h-0.118h-0.395c-1.033,0.018-1.96,0.111-1.972,1.49v14.795c0.012,1.381,0.939,1.47,1.972,1.486h0.513v0.121v0.971   H160.76z"/><path d="M172.449,168.002c5.481,0,6.435-4.832,6.435-8.949c0-4.129-2.226-9.125-6.916-9.125c-4.942,0-6.41,4.406-6.41,8.188   C165.558,163.17,167.873,168.002,172.449,168.002 M172.021,148.686c6.021,0,10.819,3.732,10.819,9.746   c0,6.494-4.659,10.812-10.673,10.812c-5.99,0-10.563-4.066-10.563-10.138C161.604,153.234,166.15,148.686,172.021,148.686"/><path d="M165.434,158.115c0.008-3.8,1.492-8.312,6.534-8.312c4.795,0.01,7.031,5.099,7.041,9.25c-0.01,4.117-0.978,9.066-6.56,9.066   v-0.117v-0.123c5.371-0.006,6.301-4.709,6.314-8.826c0-4.094-2.205-8.994-6.795-9.002c-4.845,0.006-6.278,4.303-6.289,8.064   c0.004,5.029,2.298,9.754,6.77,9.764v0.123v0.117C167.761,168.115,165.442,163.198,165.434,158.115 M161.479,159.106   c0.013-5.941,4.608-10.534,10.543-10.544v0.123v0.121c-5.807,0-10.297,4.49-10.303,10.3c0.01,6.004,4.517,10.009,10.448,10.013   c5.955-0.004,10.547-4.259,10.556-10.693c-0.005-5.938-4.73-9.611-10.701-9.619v-0.121v-0.123   c6.063,0.006,10.928,3.775,10.939,9.863c-0.006,6.564-4.723,10.929-10.794,10.939C166.126,169.354,161.492,165.246,161.479,159.106"/><path d="M201.871,163.256l0.058-0.057v-10.587c0-2.317-1.614-2.656-2.462-2.656h-0.612v-0.848c1.323,0,2.623,0.112,3.946,0.112   c1.163,0,2.32-0.112,3.479-0.112v0.848h-0.427c-1.183,0-2.514,0.226-2.514,3.587v12.853c0,0.985,0.028,1.974,0.172,2.849h-1.073   l-14.546-16.211v11.637c0,2.455,0.479,3.301,2.654,3.301h0.481v0.852c-1.215,0-2.427-0.111-3.641-0.111   c-1.272,0-2.574,0.111-3.846,0.111v-0.852h0.399c1.952,0,2.539-1.323,2.539-3.582v-11.895c0-1.578-1.294-2.538-2.568-2.538h-0.37   v-0.848c1.076,0,2.177,0.112,3.249,0.112c0.846,0,1.664-0.112,2.514-0.112L201.871,163.256z"/><path d="M201.805,163.199v-0.008l-0.022-0.021L201.805,163.199z M201.871,163.257l0.091-0.082L201.871,163.257z M202.438,169.119   h0.925c-0.121-0.85-0.145-1.789-0.145-2.725v-12.853c0-3.395,1.425-3.702,2.634-3.71h0.306v-0.601   c-1.117,0.007-2.231,0.111-3.36,0.111c-1.287,0-2.548-0.104-3.826-0.111v0.601h0.495c0.873,0.008,2.578,0.394,2.578,2.781   l-0.03,10.672l-0.054,0.06l-0.091,0.091l-12.568-14.204c-0.834,0-1.658,0.111-2.513,0.111c-1.041,0-2.101-0.104-3.129-0.111v0.601   h0.249c1.326,0.008,2.69,1.008,2.69,2.662v11.895c0,2.26-0.63,3.704-2.66,3.713l-0.279-0.004v0.598   c1.227-0.006,2.483-0.108,3.725-0.108c1.178,0,2.347,0.103,3.52,0.108v-0.594h-0.365c-2.217-0.004-2.772-0.976-2.772-3.431v-11.956   L202.438,169.119z M203.512,169.365l-1.169-0.041l-14.33-15.973v11.319c0.033,2.455,0.408,3.147,2.528,3.174h0.609v0.128v0.969   h-0.122c-1.222,0-2.435-0.113-3.642-0.113c-1.267,0-2.564,0.113-3.846,0.113h-0.117v-0.121v-0.976h0.117h0.4   c1.861-0.006,2.397-1.204,2.418-3.456v-11.895c-0.003-1.504-1.234-2.416-2.448-2.416h-0.487v-0.123v-0.969h0.117   c1.081,0,2.184,0.11,3.25,0.11c0.836,0,1.65-0.11,2.607-0.067l12.408,13.972v-10.388c-0.007-2.246-1.511-2.518-2.337-2.535h-0.743   v-0.123v-0.969h0.128c1.328,0,2.631,0.11,3.946,0.11c1.157,0,2.309-0.11,3.481-0.11h0.121v0.123v0.969h-0.121h-0.427   c-1.162,0.031-2.362,0.137-2.388,3.464v12.853c0,0.985,0.022,1.969,0.16,2.832l0.024,0.139H203.512z"/><path d="M214.945,152.271h-0.057l-2.631,7.994h5.287L214.945,152.271z M210.817,164.783c-0.277,0.959-0.62,1.697-0.62,2.201   c0,0.848,1.191,0.987,2.117,0.987h0.315v0.851c-1.131-0.06-2.29-0.111-3.42-0.111c-1.018,0-2.032,0.052-3.045,0.111v-0.851h0.16   c1.106,0,2.042-0.649,2.458-1.836l4.525-12.958c0.367-1.047,0.877-2.459,1.042-3.506c0.904-0.309,2.033-0.873,2.574-1.213   c0.081-0.029,0.138-0.059,0.223-0.059c0.084,0,0.139,0,0.195,0.088c0.086,0.225,0.173,0.48,0.258,0.705l5.193,14.77   c0.338,0.988,0.676,2.033,1.048,2.884c0.338,0.791,0.934,1.125,1.863,1.125h0.172v0.851c-1.272-0.06-2.544-0.111-3.901-0.111   c-1.381,0-2.796,0.052-4.236,0.111v-0.851h0.311c0.646,0,1.754-0.11,1.754-0.817c0-0.367-0.255-1.129-0.571-2.035l-1.096-3.272   h-6.412L210.817,164.783z"/><path d="M214.828,152.309l0.057-0.021L214.828,152.309z M212.43,160.141h4.94l-2.458-7.562L212.43,160.141z M212.09,160.383   l2.708-8.235h0.087h0.06v0.124l-0.031,0.008l0.031-0.008v-0.124h0.088l2.671,8.235H212.09z M217.858,168.693   c1.397-0.052,2.772-0.107,4.115-0.107c1.315,0,2.545,0.056,3.775,0.104l-0.004-0.591H225.7c-0.957,0.003-1.624-0.373-1.975-1.206   c-0.373-0.855-0.709-1.902-1.046-2.888l-5.198-14.772c-0.084-0.225-0.171-0.48-0.239-0.675c-0.023-0.034-0.021-0.034-0.041-0.034   h-0.055c-0.059,0-0.09,0.02-0.16,0.039c-0.55,0.346-1.679,0.912-2.516,1.129c-0.174,1.067-0.687,2.477-1.052,3.525l-4.523,12.962   c-0.428,1.226-1.414,1.923-2.57,1.92h-0.042v0.591c0.973-0.048,1.944-0.104,2.926-0.104c1.095,0,2.209,0.056,3.296,0.104v-0.591   h-0.191c-0.919-0.01-2.206-0.11-2.241-1.114c0.005-0.56,0.356-1.279,0.629-2.236l0.115,0.035l-0.115-0.039l0.931-3.019h6.585   l1.131,3.354c0.313,0.91,0.569,1.658,0.569,2.074c-0.043,0.867-1.227,0.928-1.871,0.944h-0.188V168.693z M225.863,168.941   c-1.272-0.05-2.54-0.113-3.889-0.113c-1.376,0-2.791,0.063-4.231,0.113l-0.125,0.006v-0.127v-0.97h0.121h0.308   c0.658,0,1.629-0.153,1.632-0.696c0.006-0.32-0.248-1.092-0.564-1.996l-1.074-3.192h-6.233l-0.872,2.853   c-0.284,0.967-0.621,1.709-0.615,2.166c0,0.694,1.058,0.866,1.993,0.866h0.431v0.121v0.976l-0.126-0.006   c-1.128-0.05-2.285-0.113-3.41-0.113c-1.012,0-2.027,0.063-3.045,0.113l-0.123,0.006v-0.127v-0.97h0.123h0.161   c1.054-0.006,1.935-0.61,2.346-1.752l4.518-12.964c0.363-1.047,0.871-2.454,1.121-3.577c0.887-0.308,2.021-0.872,2.57-1.214   c0.073-0.027,0.151-0.062,0.266-0.062c0.075-0.007,0.221,0.012,0.31,0.168c0.084,0.221,0.167,0.477,0.26,0.705l5.194,14.771   c0.338,0.989,0.676,2.032,1.042,2.873c0.332,0.75,0.845,1.045,1.748,1.053h0.292v0.121v0.976L225.863,168.941z"/><path d="M232.99,166.053c0,1.133,0.785,1.47,1.689,1.584c1.159,0.086,2.429,0.086,3.732-0.059c1.183-0.14,2.201-0.816,2.707-1.525   c0.451-0.623,0.705-1.412,0.876-2.033h0.82c-0.311,1.609-0.708,3.195-1.047,4.804c-2.48,0-4.972-0.112-7.452-0.112   c-2.49,0-4.971,0.112-7.457,0.112v-0.853h0.39c1.02,0,2.124-0.139,2.124-1.891v-14.512c0-1.473-1.104-1.612-2.124-1.612h-0.39   v-0.848c1.494,0,2.965,0.112,4.46,0.112c1.444,0,2.854-0.112,4.295-0.112v0.848h-0.71c-1.07,0-1.913,0.031-1.913,1.524V166.053z"/><path d="M241.665,168.695c0.326-1.53,0.697-3.028,1-4.555h-0.58c-0.175,0.614-0.426,1.371-0.87,1.989   c-0.527,0.729-1.572,1.421-2.798,1.571c-0.74,0.074-1.471,0.115-2.166,0.115c-0.546,0-1.077-0.024-1.586-0.06   c-0.921-0.104-1.81-0.497-1.807-1.704V151.48c0-1.57,0.993-1.648,2.045-1.648h0.584v-0.6c-1.391,0.006-2.763,0.111-4.169,0.111   c-1.463,0-2.893-0.105-4.34-0.111v0.6h0.27c1.008,0,2.242,0.176,2.242,1.732v14.517c0,1.827-1.227,2.017-2.242,2.017h-0.27v0.598   c2.441-0.002,4.883-0.108,7.337-0.108S239.22,168.693,241.665,168.695 M241.767,168.941c-2.489,0-4.975-0.112-7.452-0.112   c-2.486,0-4.971,0.112-7.463,0.112h-0.117v-0.121v-0.971h0.117h0.396c1.024-0.023,1.99-0.093,2.002-1.769v-14.517   c-0.012-1.375-0.974-1.469-2.002-1.486h-0.513v-0.122v-0.97h0.117c1.504,0,2.974,0.11,4.466,0.11c1.435,0,2.845-0.11,4.295-0.11   h0.115v0.123v0.969h-0.115h-0.71c-1.093,0.029-1.775-0.02-1.797,1.402v14.572c0.008,1.053,0.697,1.336,1.58,1.461   c0.498,0.036,1.021,0.055,1.565,0.055c0.692,0,1.411-0.033,2.139-0.11c1.151-0.136,2.142-0.8,2.629-1.476   c0.434-0.601,0.684-1.377,0.853-1.992l0.026-0.094h0.093h0.97l-0.026,0.149c-0.319,1.614-0.707,3.192-1.049,4.8l-0.025,0.096   H241.767z"/><path d="M241.991,151.289h0.352c0.383,0,0.563-0.291,0.563-0.758c0-0.475-0.277-0.641-0.583-0.641h-0.332V151.289z M240.989,152.857   v-0.146c0.365-0.052,0.432-0.04,0.432-0.268v-2.201c0-0.309-0.032-0.415-0.42-0.398v-0.15h1.523c0.524,0,1.004,0.248,1.004,0.787   c0,0.444-0.292,0.771-0.702,0.899l0.488,0.681c0.228,0.308,0.486,0.599,0.656,0.701v0.096h-0.581c-0.277,0-0.521-0.586-1.067-1.369   h-0.331v0.986c0,0.196,0.069,0.185,0.436,0.236v0.146H240.989z M242.469,153.699c1.331,0,2.351-1.133,2.351-2.41   c0-1.281-1.006-2.426-2.351-2.426c-1.337,0-2.358,1.145-2.358,2.426C240.111,152.566,241.132,153.699,242.469,153.699    M242.469,148.307c1.702,0,2.973,1.309,2.973,2.982c0,1.668-1.271,2.965-2.973,2.965c-1.7,0-2.976-1.297-2.976-2.965   C239.493,149.615,240.769,148.307,242.469,148.307"/><path d="M-88.994-196.688" fill="none"/><path d="M-88.994,1027.312" fill="none"/><path d="M703.006,1027.312" fill="none"/><path d="M703.006-196.688" fill="none"/></svg>