<?xml version="1.0" encoding="UTF-8"?><svg xmlns="http://www.w3.org/2000/svg" class="" height="36px" id="Layer_1" style="enable-background:new 0 0 164.3 102.8;" version="1.1" viewBox="0 0 164.3 102.8" width="57.5px" x="0px" xml:space="preserve" y="0px"><style type="text/css">
	.st0{fill:#E31837;}
	.st1{fill:#00447C;}
	.st2{fill:#007B85;}
	.st3{fill:#FFFFFF;}
</style><path class="st0" d="M32.2,0h41c5.7,0,9.3,4.7,8,10.4l-19.1,82c-1.3,5.7-7.1,10.4-12.8,10.4h-41c-5.7,0-9.3-4.7-8-10.4l19.1-82  C20.7,4.7,26.4,0,32.2,0z"/><path class="st1" d="M69.8,0H117c5.7,0,3.1,4.7,1.8,10.4l-19.1,82c-1.3,5.7-0.9,10.4-6.7,10.4H45.8c-5.7,0-9.3-4.7-7.9-10.4l19.1-82  C58.3,4.7,64.1,0,69.8,0z"/><path class="st2" d="M115.1,0h41c5.7,0,9.3,4.7,7.9,10.4l-19.1,82c-1.3,5.7-7.1,10.4-12.8,10.4h-41c-5.7,0-9.3-4.7-8-10.4l19.1-82  C103.6,4.7,109.4,0,115.1,0z"/><path class="st3" d="M108.3,77.1h3.9l1.1-3.7h-3.9L108.3,77.1z M111.3,66.9l-1.3,4.4c0,0,1.5-0.8,2.3-1s2-0.3,2-0.3l0.9-3.1H111.3   M113.3,60.5l-1.3,4.2c0,0,1.4-0.7,2.2-0.9c0.8-0.2,2-0.3,2-0.3l0.9-3.1L113.3,60.5 M121.8,60.5l-5,16.6h1.4l-1,3.4h-1.3l-0.3,1.1  h-4.8l0.3-1.1h-9.7l1-3.2h1l5.1-16.8l1-3.4h4.9l-0.5,1.7c0,0,1.3-0.9,2.5-1.2c1.2-0.3,8.3-0.4,8.3-0.4l-1,3.4h-1.9"/><path class="st3" d="M124,57.2h5.2l0.1,1.9c0,0.3,0.2,0.5,0.9,0.5h1.1l-1,3.2h-2.8c-2.4,0.2-3.3-0.9-3.3-2L124,57.2z"/><path class="st3" d="M124.7,72.3h-4.9l0.8-2.8h5.6l0.8-2.6h-5.6l0.9-3.2h15.6l-1,3.2h-5.2l-0.8,2.6h5.2l-0.9,2.8h-5.6l-1,1.2h2.3  l0.6,3.6c0.1,0.4,0.1,0.6,0.2,0.7s0.8,0.2,1.2,0.2h0.7l-1.1,3.5h-1.8c-0.3,0-0.7,0-1.2,0s-0.9-0.4-1.3-0.5c-0.3-0.2-0.8-0.5-0.9-1.2  l-0.6-3.6l-2.6,3.5c-0.8,1.1-1.9,2-3.8,2h-3.6l0.9-3.1h1.4c0.4,0,0.7-0.2,1-0.3c0.3-0.1,0.5-0.2,0.8-0.6L124.7,72.3z"/><path class="st3" d="M70.6,64.5h13.1l-1,3.1h-5.2l-0.8,2.7h5.4l-1,3.2h-5.3l-1.3,4.3c-0.2,0.5,1.3,0.5,1.8,0.5l2.7-0.4l-1.1,3.6h-6  c-0.5,0-0.8-0.1-1.4-0.2c-0.5-0.1-0.7-0.4-1-0.7c-0.2-0.4-0.6-0.6-0.3-1.4l1.7-5.7h-3l1-3.3h3l0.8-2.7h-3L70.6,64.5z"/><path class="st3" d="M79.4,58.9h5.4l-1,3.3h-7.3l-0.8,0.7c-0.3,0.3-0.5,0.2-0.9,0.4c-0.4,0.2-1.3,0.6-2.4,0.6h-2.3l0.9-3.1h0.7  c0.6,0,1-0.1,1.2-0.2c0.2-0.2,0.5-0.5,0.8-1l1.4-2.4h5.3L79.4,58.9z"/><path class="st3" d="M89.7,64.3c0,0,1.5-1.3,4-1.8c0.6-0.1,4.1-0.1,4.1-0.1l0.5-1.8h-7.6L89.7,64.3z M96.7,65.6h-7.5l-0.5,1.5h6.5  c0.8-0.1,0.9,0,1,0L96.7,65.6 M87,57.2h4.6l-0.7,2.3c0,0,1.4-1.2,2.5-1.6c1-0.4,3.3-0.7,3.3-0.7h7.4l-2.5,8.4  c-0.4,1.4-0.9,2.4-1.2,2.8c-0.3,0.4-0.6,0.8-1.2,1.1c-0.6,0.3-1.2,0.5-1.7,0.6c-0.5,0-1.2,0-2.3,0.1h-7.1l-2,6.6  c-0.2,0.7-0.3,1-0.2,1.2c0.1,0.2,0.3,0.3,0.7,0.3l3.1-0.3l-1.1,3.6h-3.5c-1.1,0-1.9,0-2.5-0.1c-0.5,0-1.1,0-1.5-0.3  c-0.3-0.3-0.8-0.7-0.8-1.1s0.2-1,0.4-1.8L87,57.2"/><path class="st3" d="M100.4,70.7l-0.4,2c-0.2,0.6-0.3,1.1-0.8,1.5s-1.1,0.9-2.5,0.9l-2.5,0.1v2.3c0,0.6,0.1,0.6,0.2,0.7  s0.2,0.2,0.3,0.2h0.8l2.4-0.1l-1,3.3h-2.8c-1.9,0-3.4,0-3.9-0.4c-0.5-0.3-0.5-0.7-0.5-1.3l0.2-8.9h4.4l-0.1,1.8h1.1  c0.4,0,0.6,0,0.8-0.1c0.1-0.1,0.2-0.2,0.3-0.5l0.4-1.4h3.6V70.7z"/><path class="st3" d="M37,26.2c-0.2,0.7-3,13.9-3,13.9c-0.6,2.7-1.1,4.6-2.6,5.8c-0.9,0.7-1.9,1.1-3,1.1c-1.9,0-3-0.9-3.1-2.7v-0.6  l0.6-3.6c0,0,3-12,3.5-13.6c0-0.1,0-0.1,0-0.2c-5.8,0.1-6.8,0-6.9-0.1c0,0.1-0.2,0.9-0.2,0.9l-3.1,13.5l-0.3,1.1l-0.5,3.7  c0,1.1,0.2,2,0.7,2.8c1.4,2.4,5.4,2.8,7.6,2.8c2.9,0,5.6-0.6,7.4-1.7c3.2-1.9,4-4.8,4.8-7.4l0.3-1.3c0,0,3.1-12.4,3.6-14  c0-0.1,0-0.1,0.1-0.2C38.7,26.3,37.4,26.3,37,26.2z"/><path class="st3" d="M54.1,50.9c-2.1,0-2.8,0-5.2,0.1l-0.1-0.2c0.2-0.9,0.4-1.8,0.6-2.8l0.3-1.3c0.4-1.9,0.9-4.2,0.9-4.9  c0-0.4,0.2-1.5-1-1.5c-0.5,0-1,0.2-1.6,0.5c-0.3,1-0.9,4-1.2,5.3c-0.6,2.8-0.6,3.1-0.9,4.5l-0.2,0.2c-2.1,0-2.9,0-5.3,0.1l-0.1-0.2  c0.4-1.7,0.8-3.3,1.2-5c1-4.5,1.3-6.2,1.6-8.5l0.2-0.1c2.4-0.3,3-0.4,5.5-0.9l0.2,0.2l-0.4,1.4c0.4-0.3,0.9-0.5,1.3-0.8  c1.2-0.6,2.6-0.8,3.3-0.8c1.1,0,2.4,0.3,2.9,1.6c0.5,1.2,0.2,2.6-0.5,5.4l-0.3,1.4c-0.7,3.1-0.8,3.7-1.1,5.9L54.1,50.9z"/><path class="st3" d="M62.4,50.9c-1.2,0-2.1,0-2.8,0c-0.8,0-1.5,0-2.7,0.1l-0.1-0.1l-0.1-0.1c0.3-1.2,0.5-1.6,0.6-2  c0.2-0.4,0.3-0.8,0.6-2.1c0.4-1.6,0.6-2.7,0.7-3.7c0.2-0.9,0.3-1.7,0.4-2.7l0.1-0.1l0.1-0.1c1.2-0.2,2-0.3,2.8-0.4s1.6-0.3,2.9-0.5  v0.1v0.1c-0.2,1-0.5,2-0.7,2.9c-0.2,1-0.5,2-0.7,2.9c-0.5,2.1-0.6,2.9-0.8,3.4c-0.1,0.5-0.1,0.8-0.3,1.9l-0.1,0.1L62.4,50.9z"/><path class="st3" d="M75.6,43.5C75.5,44,75,46,74.4,46.9c-0.4,0.6-1,1-1.5,1c-0.2,0-1.2,0-1.2-1.5c0-0.8,0.1-1.5,0.3-2.3  c0.5-2.4,1.2-4.4,2.8-4.4C76,39.6,76.1,41.1,75.6,43.5z M81,43.8c0.7-3.2,0.2-4.7-0.5-5.6c-1.1-1.4-3-1.8-4.9-1.8  c-1.2,0-4,0.1-6.2,2.1c-1.6,1.5-2.3,3.5-2.8,5.4c-0.4,1.9-1,5.4,2.3,6.7c1,0.4,2.4,0.5,3.3,0.5c2.4,0,4.8-0.6,6.6-2.6  C80.1,47,80.8,44.7,81,43.8"/><path class="st3" d="M131.4,51.1c-2.5,0-3.2,0-5.5,0.1l-0.1-0.2c0.6-2.4,1.2-4.7,1.8-7.1c0.7-3.1,0.9-4.4,1.1-6.2l0.2-0.2  c2.5-0.4,3.2-0.5,5.7-0.9l0.1,0.2c-0.5,2-0.9,3.9-1.4,5.9c-0.9,4.1-1.3,6.2-1.7,8.3L131.4,51.1z"/><path class="st3" d="M127.7,43.8c-0.1,0.5-0.6,2.5-1.2,3.4c-0.4,0.6-1.4,1-2,1c-0.2,0-1.2,0-1.2-1.5c0-0.7,0.1-1.5,0.3-2.3  c0.6-2.4,1.2-4.4,2.8-4.4C127.7,39.9,128.2,41.4,127.7,43.8z M132.6,44c0.7-3.2-2.2-0.3-2.7-1.3c-0.7-1.6-0.3-4.9-3.1-6  c-1.1-0.4-3.7,0.1-5.9,2.1c-1.6,1.4-2.3,3.4-2.7,5.3c-0.4,1.9-1,5.4,2.2,6.7c1,0.4,1.9,0.6,2.9,0.5c3.2-0.2,5.7-5,7.5-6.9  C132.1,42.9,132.4,45,132.6,44"/><path class="st3" d="M95.1,50.9c-2.1,0-2.8,0-5.2,0.1l-0.1-0.2c0.2-0.9,0.4-1.8,0.7-2.8l0.3-1.3c0.5-1.9,0.9-4.2,0.9-4.9  c0-0.4,0.2-1.5-1-1.5c-0.5,0-1,0.2-1.6,0.5c-0.3,1-0.9,4-1.2,5.3c-0.6,2.8-0.6,3.1-0.9,4.5l-0.2,0.2c-2.1,0-2.9,0-5.3,0.1l-0.1-0.2  c0.4-1.7,0.8-3.3,1.2-5c1-4.5,1.3-6.2,1.6-8.5l0.2-0.1c2.4-0.3,3-0.4,5.6-0.9l0.2,0.2l-0.4,1.4c0.4-0.3,0.9-0.5,1.3-0.8  c1.2-0.6,2.6-0.8,3.3-0.8c1.1,0,2.4,0.3,2.9,1.6c0.5,1.2,0.2,2.6-0.5,5.4l-0.3,1.4c-0.7,3.1-0.8,3.7-1.1,5.9L95.1,50.9z"/><path class="st3" d="M113,26.2h-1.7c-4.5,0.1-6.2,0-7-0.1c-0.1,0.3-0.2,0.9-0.2,0.9l-1.6,7.4c0,0-3.8,15.7-4,16.5c3.9,0,5.5,0,6.2,0  c0.2-0.7,1.1-5.1,1.1-5.1s0.8-3.2,0.8-3.3c0,0,0.2-0.3,0.5-0.5h0.4c3.4,0,7.2,0,10.1-2.2c2-1.5,3.4-3.7,4-6.4  c0.2-0.7,0.3-1.4,0.3-2.2c0-1-0.2-2.1-0.8-2.8C119.5,26.2,116.4,26.2,113,26.2z M115.2,33.9c-0.4,1.6-1.4,3-2.8,3.7  c-1.1,0.6-2.5,0.6-3.9,0.6h-0.9l0.1-0.4l1.7-7.4l0.1-0.4v-0.3l0.7,0.1c0,0,3.5,0.3,3.6,0.3C115,30.7,115.6,32.1,115.2,33.9"/><path class="st3" d="M151.8,36.5l-0.2-0.2c-2.5,0.5-3,0.6-5.3,0.9l-0.2,0.2v0.1l0,0c-1.7,4-1.7,3.2-3.1,6.3c0-0.1,0-0.2,0-0.4  l-0.4-6.9l-0.2-0.2c-2.7,0.5-2.7,0.6-5.2,0.9l-0.2,0.2c0,0.1,0,0.2,0,0.3l0,0c0.3,1.6,0.2,1.2,0.5,3.7c0.1,1.2,0.3,2.4,0.5,3.6  c0.2,2,0.4,3,0.7,6.1c-1.7,2.7-2.1,3.8-3.7,6.2l0.1,0.2c2.4-0.1,3-0.1,4.7-0.1l0.4-0.4C141.6,54.1,151.8,36.5,151.8,36.5z"/><path class="st3" d="M64.7,38.2c1.4-0.9,1.5-2.3,0.4-2.9c-1.2-0.7-3.2-0.5-4.6,0.5c-1.4,0.9-1.5,2.2-0.4,2.9  C61.3,39.4,63.3,39.2,64.7,38.2z"/><path class="st3" d="M140,57.2l-2,3.4c-0.6,1.2-1.8,2.1-3.7,2.1l-3.2-0.1l0.9-3.1h0.6c0.3,0,0.6,0,0.7-0.1c0.2-0.1,0.3-0.2,0.4-0.4  l1.2-1.9h5.1V57.2z"/></svg>