<?xml version="1.0" encoding="UTF-8"?><svg xmlns="http://www.w3.org/2000/svg" class="" enable-background="new 0 0 182.999 113.913" height="113.913px" id="Layer_1" version="1.1" viewBox="0 0 182.999 113.913" width="182.999px" x="0px" xml:space="preserve" y="0px"><path d="M183,108.548c0,2.769-2.245,5.015-5.015,5.015H5.015c-2.77,0-5.015-2.246-5.015-5.015V4.667   c0-2.77,2.245-5.015,5.015-5.015h172.969c2.77,0,5.015,2.245,5.015,5.015L183,108.548L183,108.548z" fill="#E2E2E2"/><path d="M5.015,111.563c-1.663,0-3.015-1.353-3.015-3.016V4.666c0-1.663,1.353-3.015,3.015-3.015h172.969   c1.663,0,3.016,1.353,3.016,3.015v103.881c0,0.806-0.313,1.562-0.883,2.133c-0.569,0.569-1.326,0.883-2.132,0.883H5.015z" fill="#F5F5F5"/><g opacity="0.3"><g><path d="M164.697,102.709c-5.103,0-7.753-2.121-10.091-3.99c-2.234-1.786-4.163-3.331-8.212-3.331     c-4.046,0-5.976,1.543-8.21,3.331c-2.337,1.87-4.986,3.99-10.091,3.99c-5.103,0-7.752-2.121-10.089-3.99     c-2.234-1.786-4.164-3.331-8.21-3.331c-4.047,0-5.976,1.543-8.21,3.331c-2.338,1.87-4.986,3.99-10.09,3.99     c-5.103,0-7.752-2.121-10.09-3.99c-2.234-1.786-4.163-3.331-8.21-3.331c-4.046,0-5.975,1.543-8.209,3.331     c-2.338,1.87-4.986,3.99-10.089,3.99c-5.102,0-7.751-2.121-10.089-3.99c-2.233-1.786-4.162-3.331-8.208-3.331     c-4.047,0-5.976,1.543-8.21,3.331c-2.338,1.87-4.987,3.99-10.09,3.99s-7.752-2.121-10.09-3.99     c-2.234-1.786-4.163-3.331-8.21-3.331v-3.009c5.103,0,7.752,2.121,10.09,3.99c2.234,1.786,4.163,3.331,8.21,3.331     s5.976-1.543,8.21-3.331c2.338-1.87,4.987-3.99,10.09-3.99c5.102,0,7.751,2.121,10.089,3.99c2.233,1.786,4.162,3.331,8.208,3.331     s5.975-1.543,8.209-3.331c2.338-1.87,4.986-3.99,10.089-3.99s7.752,2.121,10.09,3.99c2.234,1.786,4.163,3.331,8.21,3.331     s5.976-1.543,8.21-3.331c2.338-1.87,4.987-3.99,10.09-3.99s7.752,2.121,10.09,3.99c2.233,1.786,4.163,3.331,8.209,3.331     c4.047,0,5.976-1.543,8.211-3.331c2.337-1.87,4.987-3.99,10.09-3.99c5.104,0,7.753,2.121,10.092,3.99     c2.234,1.786,4.163,3.331,8.211,3.331s5.977-1.543,8.211-3.331c2.338-1.87,4.988-3.99,10.092-3.99v3.009     c-4.047,0-5.977,1.543-8.212,3.331C172.45,100.589,169.801,102.709,164.697,102.709z" fill="#EAEAEA"/></g><g><path d="M164.697,92.38c-5.103,0-7.753-2.12-10.091-3.99c-2.234-1.786-4.163-3.331-8.212-3.331     c-4.046,0-5.976,1.543-8.21,3.331c-2.337,1.87-4.986,3.99-10.091,3.99c-5.103,0-7.752-2.12-10.089-3.99     c-2.234-1.786-4.164-3.331-8.21-3.331c-4.047,0-5.976,1.543-8.21,3.331c-2.338,1.87-4.986,3.99-10.09,3.99     c-5.103,0-7.752-2.12-10.09-3.99c-2.234-1.786-4.163-3.331-8.21-3.331c-4.046,0-5.975,1.543-8.209,3.331     c-2.338,1.87-4.986,3.99-10.089,3.99c-5.102,0-7.751-2.12-10.089-3.99c-2.233-1.786-4.162-3.331-8.208-3.331     c-4.047,0-5.976,1.543-8.21,3.331c-2.338,1.87-4.987,3.99-10.09,3.99s-7.752-2.12-10.09-3.99c-2.234-1.786-4.163-3.331-8.21-3.331     V82.05c5.103,0,7.752,2.12,10.09,3.99c2.234,1.786,4.163,3.331,8.21,3.331s5.976-1.543,8.21-3.331     c2.338-1.87,4.987-3.99,10.09-3.99c5.102,0,7.751,2.12,10.089,3.99c2.233,1.786,4.162,3.331,8.208,3.331s5.975-1.543,8.209-3.331     c2.338-1.87,4.986-3.99,10.089-3.99s7.752,2.12,10.09,3.99c2.234,1.786,4.163,3.331,8.21,3.331s5.976-1.543,8.21-3.331     c2.338-1.87,4.987-3.99,10.09-3.99s7.752,2.12,10.09,3.99c2.233,1.786,4.163,3.331,8.209,3.331c4.047,0,5.976-1.543,8.211-3.331     c2.337-1.87,4.987-3.99,10.09-3.99c5.104,0,7.753,2.12,10.092,3.99c2.234,1.786,4.163,3.331,8.211,3.331s5.977-1.543,8.211-3.331     c2.338-1.87,4.988-3.99,10.092-3.99v3.009c-4.047,0-5.977,1.543-8.212,3.331C172.45,90.26,169.801,92.38,164.697,92.38z" fill="#EAEAEA"/></g><g><path d="M164.697,82.05c-5.103,0-7.753-2.121-10.091-3.99c-2.234-1.787-4.163-3.331-8.212-3.331     c-4.046,0-5.976,1.544-8.21,3.331c-2.337,1.87-4.986,3.99-10.091,3.99c-5.103,0-7.752-2.121-10.089-3.99     c-2.234-1.787-4.164-3.331-8.21-3.331c-4.047,0-5.976,1.544-8.21,3.331c-2.338,1.87-4.986,3.99-10.09,3.99     c-5.103,0-7.752-2.121-10.09-3.99c-2.234-1.787-4.163-3.331-8.21-3.331c-4.046,0-5.975,1.544-8.209,3.331     c-2.338,1.87-4.986,3.99-10.089,3.99c-5.102,0-7.751-2.121-10.089-3.99c-2.233-1.787-4.162-3.331-8.208-3.331     c-4.047,0-5.976,1.544-8.21,3.331c-2.338,1.87-4.987,3.99-10.09,3.99s-7.752-2.121-10.09-3.99     c-2.234-1.787-4.163-3.331-8.21-3.331V71.72c5.103,0,7.752,2.121,10.09,3.99c2.234,1.786,4.163,3.331,8.21,3.331     s5.976-1.543,8.21-3.331c2.338-1.87,4.987-3.99,10.09-3.99c5.102,0,7.751,2.121,10.089,3.99c2.233,1.786,4.162,3.331,8.208,3.331     s5.975-1.543,8.209-3.331c2.338-1.87,4.986-3.99,10.089-3.99s7.752,2.121,10.09,3.99c2.234,1.786,4.163,3.331,8.21,3.331     s5.976-1.543,8.21-3.331c2.338-1.87,4.987-3.99,10.09-3.99s7.752,2.121,10.09,3.99c2.233,1.786,4.163,3.331,8.209,3.331     c4.047,0,5.976-1.543,8.211-3.331c2.337-1.87,4.987-3.99,10.09-3.99c5.104,0,7.753,2.121,10.092,3.99     c2.234,1.786,4.163,3.331,8.211,3.331s5.977-1.543,8.211-3.331c2.338-1.87,4.988-3.99,10.092-3.99v3.009     c-4.047,0-5.977,1.544-8.212,3.331C172.45,79.93,169.801,82.05,164.697,82.05z" fill="#EAEAEA"/></g></g><radialGradient cx="-231.9147" cy="1403.5461" gradientTransform="matrix(1 0 0 1 302 -1371.004)" gradientUnits="userSpaceOnUse" id="SVGID_1_" r="62.8068"><stop offset="0" style="stop-color:#9DD5F6"/><stop offset="0.0711" style="stop-color:#98D3F5"/><stop offset="0.1575" style="stop-color:#89CEF3"/><stop offset="0.2516" style="stop-color:#70C6EF"/><stop offset="0.3514" style="stop-color:#4EBBEA"/><stop offset="0.4546" style="stop-color:#23ADE3"/><stop offset="0.5" style="stop-color:#0DA6E0"/><stop offset="1" style="stop-color:#2E77BC"/></radialGradient><path d="M125.588,20.744H58.279v67.553h67.309V20.744L125.588,20.744z" fill="url(#SVGID_1_)"/><g><g><path d="M65.112,13l-1.48-3.209h-1.846v4.479l-1.924-4.479h-1.68l-2.026,4.732h1.229l0.439-1.055h2.355     l0.434,1.055h2.3v-3.709l1.644,3.709h0.993l1.64-3.706l0.004,3.706h1.159V9.791H66.47L65.112,13z M58.226,12.481l0.77-1.886     l0.774,1.886H58.226z" fill="#0D67B4"/><polygon fill="#0D67B4" points="69.198,14.522 72.976,14.522 72.976,13.544 70.328,13.544 70.328,12.599 72.912,12.599      72.912,11.629 70.328,11.629 70.328,10.777 72.976,10.777 72.976,9.791 69.198,9.791   "/><path d="M78.303,11.066c0-0.527-0.215-0.837-0.573-1.048c-0.365-0.212-0.791-0.227-1.37-0.227h-2.601v4.732h1.131     v-1.722h1.214c0.407,0,0.659,0.037,0.824,0.202c0.206,0.228,0.179,0.637,0.179,0.922l0.004,0.597h1.141v-0.93     c0-0.422-0.027-0.632-0.187-0.867c-0.101-0.138-0.313-0.304-0.56-0.398C77.799,12.21,78.303,11.82,78.303,11.066z M76.824,11.729     c-0.156,0.095-0.34,0.097-0.56,0.097h-1.373v-1.05h1.392c0.197,0,0.403,0.009,0.537,0.085c0.146,0.069,0.237,0.216,0.237,0.418     C77.057,11.487,76.971,11.653,76.824,11.729z" fill="#0D67B4"/><rect fill="#0D67B4" height="4.732" width="1.154" x="78.958" y="9.791"/><path d="M92.342,9.791v3.296l-1.989-3.296h-1.722v4.476l-1.915-4.476h-1.695l-1.594,3.721h-0.508     c-0.298,0-0.614-0.057-0.788-0.244c-0.21-0.239-0.311-0.604-0.311-1.111c0-0.496,0.133-0.873,0.325-1.072     c0.225-0.219,0.457-0.28,0.87-0.28h1.072V9.791h-1.095c-0.779,0-1.352,0.174-1.717,0.552c-0.486,0.507-0.61,1.148-0.61,1.85     c0,0.861,0.207,1.404,0.604,1.807c0.395,0.402,1.091,0.524,1.64,0.524h1.324l0.427-1.055h2.35l0.44,1.055h2.303v-3.553     l2.144,3.552h1.602V9.791H92.342L92.342,9.791z M85.064,12.481l0.778-1.886l0.783,1.886H85.064z" fill="#0D67B4"/></g><g><path d="M122.311,12.027c-0.256-0.259-0.678-0.366-1.292-0.38l-0.608-0.016c-0.192,0-0.32-0.013-0.44-0.054     c-0.143-0.052-0.247-0.174-0.247-0.353c0-0.15,0.046-0.264,0.17-0.34c0.113-0.078,0.247-0.086,0.453-0.086h2.074V9.791h-2.268     c-1.186,0-1.617,0.722-1.617,1.409c0,1.498,1.326,1.428,2.382,1.465c0.197,0,0.316,0.033,0.404,0.105     c0.077,0.065,0.139,0.176,0.139,0.313c0,0.129-0.058,0.236-0.135,0.309c-0.094,0.089-0.247,0.117-0.46,0.117h-2.193v1.015h2.202     c1.141,0,1.776-0.476,1.776-1.494C122.649,12.542,122.531,12.255,122.311,12.027z" fill="#0D67B4"/><path d="M126.505,12.027c-0.256-0.259-0.677-0.366-1.291-0.38l-0.608-0.016c-0.194,0-0.321-0.013-0.44-0.054     c-0.143-0.052-0.247-0.174-0.247-0.353c0-0.15,0.045-0.264,0.17-0.34c0.114-0.078,0.247-0.086,0.454-0.086h2.074V9.791h-2.267     c-1.186,0-1.617,0.722-1.617,1.409c0,1.498,1.324,1.428,2.382,1.465c0.196,0,0.316,0.033,0.403,0.105     c0.077,0.065,0.138,0.176,0.138,0.313c0,0.129-0.055,0.236-0.133,0.309c-0.095,0.089-0.248,0.117-0.462,0.117h-2.194v1.015h2.202     c1.142,0,1.777-0.476,1.777-1.494C126.843,12.542,126.725,12.255,126.505,12.027z" fill="#0D67B4"/><path d="M113.59,11.064c0-0.54-0.224-0.836-0.582-1.05c-0.371-0.198-0.788-0.223-1.36-0.223h-2.612v4.733h1.138     v-1.729h1.209c0.412,0,0.664,0.04,0.83,0.21c0.209,0.22,0.182,0.642,0.182,0.926v0.592h1.136v-0.938     c-0.005-0.417-0.027-0.632-0.187-0.864c-0.097-0.138-0.302-0.304-0.554-0.398C113.086,12.205,113.59,11.82,113.59,11.064z      M112.106,11.735c-0.152,0.09-0.339,0.097-0.559,0.097h-1.375V10.77h1.393c0.201,0,0.403,0.004,0.539,0.086     c0.146,0.076,0.235,0.223,0.235,0.425C112.34,11.483,112.252,11.646,112.106,11.735z" fill="#0D67B4"/><polygon fill="#0D67B4" points="114.217,14.523 117.992,14.523 117.992,13.541 115.344,13.537 115.344,12.595 117.928,12.595      117.928,11.63 115.344,11.63 115.344,10.769 117.992,10.769 117.992,9.79 114.217,9.79   "/><path d="M106.6,9.79h-3.614l-1.439,1.551l-1.391-1.551h-4.548v4.733h4.48l1.446-1.567l1.392,1.567h2.199v-1.588     h1.409c0.989,0,1.971-0.271,1.971-1.586C108.506,10.039,107.497,9.79,106.6,9.79z M99.514,13.537h-2.78v-0.942h2.482v-0.966     h-2.482v-0.86h2.836l1.236,1.379L99.514,13.537z M103.998,14.092l-1.736-1.928l1.736-1.866V14.092z M106.587,11.975h-1.462V10.77     h1.474c0.409,0,0.692,0.167,0.692,0.58C107.291,11.759,107.022,11.975,106.587,11.975z" fill="#0D67B4"/></g></g><g enable-background="new    "><path d="M33.622,73.074v-7.519h-2.723v-1.007c0.355,0,0.7-0.026,1.036-0.081c0.335-0.054,0.639-0.155,0.91-0.304    c0.271-0.148,0.501-0.351,0.689-0.607c0.187-0.256,0.315-0.582,0.385-0.976h0.962v10.494    C34.881,73.074,33.622,73.074,33.622,73.074z" fill="#6B6B6B"/><path d="M38.655,64.814c0.138-0.452,0.353-0.845,0.644-1.176s0.654-0.59,1.088-0.777    c0.434-0.188,0.927-0.281,1.48-0.281c0.453,0,0.88,0.066,1.28,0.2c0.4,0.133,0.748,0.325,1.044,0.577    c0.296,0.251,0.53,0.565,0.703,0.94c0.172,0.376,0.259,0.809,0.259,1.304c0,0.464-0.072,0.873-0.215,1.229    c-0.143,0.355-0.333,0.673-0.57,0.954c-0.237,0.281-0.509,0.536-0.814,0.762c-0.306,0.227-0.622,0.444-0.947,0.652    c-0.326,0.197-0.651,0.392-0.977,0.585c-0.325,0.192-0.624,0.397-0.896,0.614s-0.503,0.452-0.696,0.703    c-0.192,0.252-0.318,0.54-0.377,0.866h5.388v1.11h-6.853c0.049-0.622,0.16-1.152,0.333-1.591c0.172-0.439,0.392-0.821,0.658-1.147    c0.267-0.326,0.568-0.611,0.903-0.858c0.336-0.247,0.686-0.478,1.051-0.696c0.444-0.276,0.834-0.53,1.169-0.762    c0.336-0.231,0.614-0.465,0.836-0.703c0.222-0.237,0.39-0.493,0.503-0.769c0.114-0.277,0.17-0.598,0.17-0.963    c0-0.285-0.054-0.544-0.162-0.777c-0.109-0.233-0.254-0.432-0.437-0.599c-0.183-0.168-0.397-0.297-0.644-0.385    c-0.247-0.089-0.509-0.134-0.784-0.134c-0.365,0-0.679,0.078-0.94,0.23c-0.261,0.152-0.476,0.353-0.644,0.601    c-0.168,0.246-0.288,0.524-0.362,0.836c-0.074,0.31-0.106,0.624-0.097,0.94h-1.258C38.462,65.762,38.517,65.268,38.655,64.814z" fill="#6B6B6B"/><path d="M49.43,67.094c0.049,0,0.099,0,0.148,0h0.267c0.266,0,0.52-0.037,0.762-0.11    c0.242-0.074,0.453-0.183,0.637-0.326c0.182-0.143,0.328-0.323,0.436-0.54s0.163-0.464,0.163-0.74c0-0.564-0.177-0.984-0.533-1.267    c-0.355-0.281-0.8-0.422-1.332-0.422c-0.335,0-0.629,0.062-0.88,0.185c-0.252,0.124-0.459,0.289-0.622,0.497    c-0.163,0.206-0.284,0.448-0.363,0.725c-0.079,0.276-0.118,0.568-0.118,0.873h-1.258c0.02-0.503,0.101-0.962,0.244-1.376    c0.143-0.415,0.348-0.77,0.614-1.067c0.267-0.296,0.6-0.527,0.999-0.695c0.399-0.168,0.861-0.251,1.384-0.251    c0.454,0,0.876,0.057,1.266,0.17c0.39,0.114,0.727,0.284,1.014,0.511c0.286,0.227,0.511,0.518,0.673,0.873    c0.163,0.356,0.244,0.775,0.244,1.259c0,0.473-0.138,0.894-0.414,1.258c-0.277,0.365-0.622,0.643-1.036,0.829v0.03    c0.641,0.138,1.118,0.439,1.428,0.903c0.311,0.464,0.466,1.012,0.466,1.643c0,0.523-0.096,0.984-0.288,1.384    c-0.193,0.399-0.451,0.733-0.777,1c-0.325,0.265-0.708,0.465-1.147,0.599c-0.439,0.133-0.905,0.2-1.399,0.2    c-0.533,0-1.016-0.074-1.45-0.222c-0.434-0.148-0.805-0.368-1.11-0.658c-0.306-0.292-0.54-0.649-0.703-1.074    c-0.163-0.424-0.239-0.908-0.229-1.451h1.258c0.02,0.681,0.217,1.237,0.592,1.665c0.374,0.43,0.922,0.644,1.643,0.644    c0.306,0,0.597-0.046,0.874-0.141c0.276-0.093,0.518-0.226,0.725-0.399c0.208-0.172,0.373-0.385,0.496-0.636    c0.124-0.252,0.185-0.535,0.185-0.852c0-0.326-0.059-0.614-0.178-0.866c-0.118-0.251-0.276-0.464-0.473-0.636    c-0.198-0.172-0.432-0.301-0.704-0.385s-0.564-0.126-0.88-0.126c-0.266,0-0.518,0.016-0.755,0.045v-1.066    C49.346,67.09,49.391,67.094,49.43,67.094z" fill="#6B6B6B"/><path d="M61.923,69.506v1.11h-1.421v2.457h-1.184v-2.457h-4.603v-1.213l4.781-6.824h1.007v6.926L61.923,69.506    L61.923,69.506z M59.318,64.371h-0.03l-3.493,5.135h3.523V64.371z" fill="#6B6B6B"/><path d="M70.655,73.074v-7.519h-2.723v-1.007c0.355,0,0.7-0.026,1.036-0.081c0.335-0.054,0.639-0.155,0.91-0.304    c0.271-0.148,0.501-0.351,0.689-0.607c0.187-0.256,0.315-0.582,0.385-0.976h0.962v10.494    C71.914,73.074,70.655,73.074,70.655,73.074z" fill="#6B6B6B"/><path d="M75.688,64.814c0.138-0.452,0.353-0.845,0.644-1.176s0.654-0.59,1.088-0.777    c0.434-0.188,0.927-0.281,1.48-0.281c0.454,0,0.88,0.066,1.279,0.2c0.399,0.133,0.749,0.325,1.043,0.577    c0.297,0.251,0.531,0.565,0.704,0.94c0.173,0.376,0.258,0.809,0.258,1.304c0,0.464-0.071,0.873-0.213,1.229    c-0.145,0.355-0.334,0.673-0.57,0.954c-0.237,0.281-0.507,0.536-0.815,0.762c-0.305,0.227-0.62,0.444-0.946,0.652    c-0.326,0.197-0.652,0.392-0.978,0.585c-0.325,0.192-0.624,0.397-0.896,0.614c-0.271,0.217-0.503,0.452-0.696,0.703    c-0.192,0.252-0.318,0.54-0.377,0.866h5.388v1.11h-6.853c0.049-0.622,0.16-1.152,0.333-1.591c0.172-0.439,0.392-0.821,0.658-1.147    c0.267-0.326,0.568-0.611,0.903-0.858c0.336-0.247,0.686-0.478,1.051-0.696c0.444-0.276,0.834-0.53,1.169-0.762    c0.336-0.231,0.615-0.465,0.836-0.703c0.223-0.237,0.392-0.493,0.505-0.769c0.113-0.277,0.171-0.598,0.171-0.963    c0-0.285-0.055-0.544-0.163-0.777c-0.11-0.233-0.255-0.432-0.438-0.599c-0.183-0.168-0.398-0.297-0.644-0.385    c-0.247-0.089-0.509-0.134-0.784-0.134c-0.365,0-0.679,0.078-0.94,0.23c-0.261,0.152-0.476,0.353-0.644,0.601    c-0.168,0.246-0.288,0.524-0.362,0.836c-0.074,0.31-0.106,0.624-0.097,0.94h-1.258C75.496,65.762,75.55,65.268,75.688,64.814z" fill="#6B6B6B"/><path d="M90.726,69.506v1.11h-1.421v2.457H88.12v-2.457h-4.603v-1.213l4.782-6.824h1.007v6.926L90.726,69.506    L90.726,69.506z M88.12,64.371h-0.029l-3.493,5.135h3.522C88.12,69.506,88.12,64.371,88.12,64.371z" fill="#6B6B6B"/><path d="M94.058,63.868l-0.562,3.02l0.029,0.029c0.227-0.256,0.52-0.447,0.88-0.569    c0.36-0.124,0.719-0.185,1.074-0.185c0.464,0,0.903,0.074,1.317,0.222c0.415,0.147,0.775,0.372,1.081,0.673    c0.305,0.301,0.547,0.677,0.725,1.125c0.177,0.449,0.265,0.975,0.265,1.577c0,0.444-0.076,0.875-0.229,1.294    c-0.154,0.421-0.382,0.792-0.689,1.118c-0.306,0.326-0.689,0.585-1.147,0.777c-0.459,0.193-0.995,0.289-1.606,0.289    c-0.455,0-0.88-0.067-1.28-0.2c-0.401-0.134-0.753-0.326-1.059-0.577c-0.306-0.252-0.548-0.565-0.726-0.941    c-0.177-0.374-0.271-0.799-0.281-1.272h1.26c0.02,0.265,0.085,0.515,0.2,0.746c0.113,0.233,0.265,0.435,0.459,0.607    c0.192,0.173,0.419,0.306,0.681,0.399c0.261,0.095,0.551,0.141,0.866,0.141c0.296,0,0.579-0.051,0.852-0.155    c0.271-0.104,0.507-0.259,0.71-0.466c0.202-0.206,0.363-0.466,0.481-0.777c0.12-0.311,0.179-0.674,0.179-1.088    c0-0.346-0.058-0.664-0.171-0.955c-0.113-0.29-0.273-0.541-0.481-0.754c-0.208-0.212-0.456-0.377-0.748-0.495    c-0.29-0.118-0.614-0.177-0.97-0.177c-0.414,0-0.782,0.091-1.102,0.273c-0.321,0.183-0.604,0.422-0.85,0.717l-1.082-0.059    l0.978-5.447h5.18v1.11L94.058,63.868L94.058,63.868z" fill="#6B6B6B"/><path d="M105.145,64.119c-0.306-0.286-0.711-0.43-1.214-0.43c-0.534,0-0.962,0.131-1.288,0.393    c-0.326,0.261-0.579,0.593-0.762,0.992c-0.183,0.399-0.309,0.832-0.377,1.294c-0.07,0.464-0.109,0.899-0.12,1.304l0.03,0.029    c0.296-0.484,0.664-0.833,1.102-1.051c0.439-0.217,0.945-0.325,1.518-0.325c0.503,0,0.954,0.085,1.353,0.259    c0.401,0.172,0.736,0.411,1.007,0.717c0.272,0.306,0.481,0.666,0.629,1.08c0.148,0.415,0.222,0.863,0.222,1.347    c0,0.385-0.059,0.784-0.177,1.2c-0.118,0.414-0.314,0.791-0.585,1.131c-0.272,0.34-0.632,0.623-1.08,0.844    c-0.449,0.222-1.005,0.334-1.666,0.334c-0.779,0-1.406-0.158-1.879-0.474c-0.474-0.315-0.838-0.72-1.096-1.213    c-0.256-0.494-0.427-1.037-0.51-1.628c-0.084-0.593-0.126-1.164-0.126-1.717c0-0.72,0.062-1.418,0.185-2.095    c0.124-0.675,0.332-1.275,0.629-1.798c0.296-0.523,0.69-0.943,1.184-1.259c0.493-0.315,1.114-0.473,1.865-0.473    c0.869,0,1.558,0.229,2.072,0.687c0.512,0.46,0.809,1.124,0.888,1.992h-1.259C105.632,64.785,105.449,64.405,105.145,64.119z     M102.865,67.619c-0.267,0.124-0.494,0.292-0.681,0.503c-0.188,0.213-0.329,0.464-0.422,0.756c-0.095,0.29-0.141,0.599-0.141,0.925    c0,0.325,0.049,0.631,0.147,0.917c0.099,0.286,0.239,0.534,0.422,0.74c0.183,0.208,0.41,0.373,0.682,0.497    c0.271,0.124,0.579,0.184,0.925,0.184c0.344,0,0.648-0.06,0.909-0.184c0.262-0.124,0.481-0.294,0.658-0.511    c0.179-0.217,0.314-0.466,0.407-0.748c0.095-0.281,0.141-0.574,0.141-0.88c0-0.326-0.042-0.633-0.125-0.925    c-0.084-0.29-0.215-0.543-0.393-0.756c-0.177-0.212-0.399-0.381-0.666-0.51s-0.577-0.193-0.932-0.193    C103.442,67.434,103.131,67.496,102.865,67.619z" fill="#6B6B6B"/><path d="M115.92,73.074v-7.519h-2.724v-1.007c0.355,0,0.7-0.026,1.035-0.081c0.336-0.054,0.64-0.155,0.911-0.304    c0.272-0.148,0.501-0.351,0.689-0.607c0.188-0.256,0.315-0.582,0.385-0.976h0.962v10.494    C117.178,73.074,115.92,73.074,115.92,73.074z" fill="#6B6B6B"/><path d="M120.953,64.814c0.138-0.452,0.352-0.845,0.644-1.176c0.29-0.331,0.653-0.59,1.087-0.777    c0.435-0.188,0.928-0.281,1.481-0.281c0.453,0,0.88,0.066,1.28,0.2c0.399,0.133,0.748,0.325,1.043,0.577    c0.297,0.251,0.531,0.565,0.703,0.94c0.173,0.376,0.259,0.809,0.259,1.304c0,0.464-0.071,0.873-0.214,1.229    c-0.143,0.355-0.332,0.673-0.57,0.954c-0.237,0.281-0.507,0.536-0.813,0.762c-0.306,0.227-0.622,0.444-0.947,0.652    c-0.326,0.197-0.652,0.392-0.976,0.585c-0.326,0.192-0.624,0.397-0.896,0.614s-0.503,0.452-0.695,0.703    c-0.193,0.252-0.318,0.54-0.378,0.866h5.389v1.11h-6.854c0.05-0.622,0.16-1.152,0.334-1.591c0.172-0.439,0.392-0.821,0.658-1.147    c0.267-0.326,0.568-0.611,0.903-0.858s0.686-0.478,1.051-0.696c0.444-0.276,0.833-0.53,1.17-0.762    c0.335-0.231,0.614-0.465,0.836-0.703c0.222-0.237,0.39-0.493,0.503-0.769c0.113-0.277,0.171-0.598,0.171-0.963    c0-0.285-0.055-0.544-0.163-0.777c-0.109-0.233-0.255-0.432-0.438-0.599c-0.183-0.168-0.397-0.297-0.644-0.385    c-0.246-0.089-0.507-0.134-0.784-0.134c-0.364,0-0.678,0.078-0.94,0.23c-0.261,0.152-0.476,0.353-0.644,0.601    c-0.168,0.246-0.288,0.524-0.363,0.836c-0.074,0.31-0.106,0.624-0.096,0.94h-1.258C120.759,65.762,120.813,65.268,120.953,64.814z" fill="#6B6B6B"/><path d="M131.727,67.094c0.049,0,0.099,0,0.148,0h0.265c0.267,0,0.52-0.037,0.762-0.11    c0.242-0.074,0.455-0.183,0.637-0.326c0.183-0.143,0.327-0.323,0.436-0.54s0.163-0.464,0.163-0.74c0-0.564-0.177-0.984-0.533-1.267    c-0.355-0.281-0.799-0.422-1.331-0.422c-0.336,0-0.629,0.062-0.882,0.185c-0.251,0.124-0.459,0.289-0.622,0.497    c-0.163,0.206-0.284,0.448-0.363,0.725c-0.079,0.276-0.118,0.568-0.118,0.873h-1.258c0.02-0.503,0.101-0.962,0.244-1.376    c0.143-0.415,0.347-0.77,0.614-1.067c0.267-0.296,0.599-0.527,1-0.695c0.399-0.168,0.861-0.251,1.384-0.251    c0.453,0,0.875,0.057,1.265,0.17c0.389,0.114,0.727,0.284,1.013,0.511s0.511,0.518,0.674,0.873    c0.163,0.356,0.244,0.775,0.244,1.259c0,0.473-0.139,0.894-0.415,1.258c-0.276,0.365-0.622,0.643-1.035,0.829v0.03    c0.641,0.138,1.117,0.439,1.428,0.903c0.31,0.464,0.466,1.012,0.466,1.643c0,0.523-0.097,0.984-0.289,1.384    c-0.192,0.399-0.452,0.733-0.777,1c-0.326,0.265-0.708,0.465-1.147,0.599c-0.44,0.133-0.905,0.2-1.399,0.2    c-0.532,0-1.016-0.074-1.451-0.222c-0.434-0.148-0.804-0.368-1.109-0.658c-0.306-0.292-0.541-0.649-0.703-1.074    c-0.163-0.424-0.24-0.908-0.23-1.451h1.258c0.02,0.681,0.217,1.237,0.593,1.665c0.374,0.43,0.922,0.644,1.643,0.644    c0.306,0,0.597-0.046,0.874-0.141c0.276-0.093,0.518-0.226,0.725-0.399c0.206-0.172,0.372-0.385,0.495-0.636    c0.124-0.252,0.185-0.535,0.185-0.852c0-0.326-0.059-0.614-0.177-0.866c-0.118-0.251-0.277-0.464-0.474-0.636    c-0.197-0.172-0.431-0.301-0.703-0.385c-0.271-0.084-0.565-0.126-0.88-0.126c-0.267,0-0.518,0.016-0.754,0.045v-1.066    C131.642,67.09,131.687,67.094,131.727,67.094z" fill="#6B6B6B"/><path d="M144.219,69.506v1.11h-1.42v2.457h-1.185v-2.457h-4.603v-1.213l4.782-6.824h1.007v6.926L144.219,69.506    L144.219,69.506z M141.613,64.371h-0.029l-3.493,5.135h3.522V64.371z" fill="#6B6B6B"/><path d="M147.55,63.868l-0.562,3.02l0.029,0.029c0.227-0.256,0.52-0.447,0.88-0.569    c0.36-0.124,0.719-0.185,1.074-0.185c0.464,0,0.903,0.074,1.317,0.222c0.415,0.147,0.775,0.372,1.081,0.673    c0.305,0.301,0.547,0.677,0.725,1.125c0.177,0.449,0.265,0.975,0.265,1.577c0,0.444-0.076,0.875-0.229,1.294    c-0.154,0.421-0.382,0.792-0.689,1.118c-0.306,0.326-0.689,0.585-1.147,0.777c-0.459,0.193-0.995,0.289-1.606,0.289    c-0.455,0-0.88-0.067-1.28-0.2c-0.401-0.134-0.753-0.326-1.059-0.577c-0.306-0.252-0.548-0.565-0.725-0.941    c-0.177-0.374-0.271-0.799-0.281-1.272h1.259c0.02,0.265,0.085,0.515,0.2,0.746c0.113,0.233,0.265,0.435,0.459,0.607    c0.192,0.173,0.419,0.306,0.681,0.399c0.262,0.095,0.551,0.141,0.866,0.141c0.296,0,0.579-0.051,0.852-0.155    c0.271-0.104,0.507-0.259,0.71-0.466c0.202-0.206,0.363-0.466,0.481-0.777c0.12-0.311,0.179-0.674,0.179-1.088    c0-0.346-0.058-0.664-0.171-0.955c-0.113-0.29-0.273-0.541-0.481-0.754c-0.208-0.212-0.456-0.377-0.748-0.495    c-0.29-0.118-0.614-0.177-0.97-0.177c-0.414,0-0.782,0.091-1.102,0.273c-0.321,0.183-0.604,0.422-0.85,0.717l-1.081-0.059    l0.978-5.447h5.18v1.11L147.55,63.868L147.55,63.868z" fill="#6B6B6B"/></g><g><path d="M156.538,54.873v-3.881h-1.504v-0.914c0.21,0.006,0.414-0.01,0.611-0.047    c0.197-0.037,0.373-0.102,0.53-0.197c0.157-0.094,0.289-0.218,0.398-0.372s0.18-0.345,0.214-0.573h0.965v5.984    C157.752,54.873,156.538,54.873,156.538,54.873z" fill="#1F1F1F"/><path d="M159.59,50.236c0.091-0.294,0.228-0.55,0.411-0.77c0.182-0.219,0.412-0.39,0.688-0.513    c0.276-0.122,0.594-0.184,0.953-0.184c0.273,0,0.534,0.043,0.782,0.128s0.466,0.208,0.654,0.368    c0.188,0.159,0.338,0.356,0.449,0.59c0.111,0.234,0.166,0.496,0.166,0.787c0,0.302-0.049,0.561-0.145,0.778    c-0.097,0.217-0.225,0.409-0.385,0.577c-0.16,0.168-0.341,0.321-0.543,0.458c-0.203,0.137-0.406,0.272-0.612,0.406    c-0.205,0.134-0.404,0.278-0.598,0.431c-0.194,0.154-0.365,0.334-0.513,0.539h2.829v1.043h-4.393c0-0.348,0.049-0.65,0.15-0.906    c0.099-0.257,0.234-0.486,0.406-0.688c0.171-0.202,0.372-0.389,0.603-0.56s0.474-0.345,0.731-0.521    c0.131-0.091,0.27-0.184,0.419-0.278c0.148-0.094,0.283-0.198,0.406-0.312c0.122-0.114,0.225-0.242,0.307-0.384    c0.083-0.143,0.124-0.305,0.124-0.488c0-0.291-0.084-0.517-0.253-0.68c-0.168-0.162-0.383-0.244-0.645-0.244    c-0.177,0-0.326,0.042-0.449,0.124c-0.123,0.083-0.221,0.191-0.295,0.325s-0.127,0.282-0.158,0.445    c-0.032,0.162-0.047,0.323-0.047,0.483h-1.163C159.459,50.847,159.499,50.529,159.59,50.236z" fill="#1F1F1F"/><path d="M166.275,51.308c0.148-0.011,0.286-0.044,0.414-0.098s0.234-0.132,0.316-0.235    c0.083-0.102,0.124-0.239,0.124-0.41c0-0.257-0.086-0.453-0.257-0.59c-0.172-0.137-0.368-0.205-0.59-0.205    c-0.307,0-0.54,0.101-0.697,0.304c-0.156,0.202-0.232,0.457-0.226,0.765h-1.154c0.011-0.308,0.067-0.589,0.167-0.842    c0.099-0.253,0.239-0.472,0.419-0.654c0.179-0.182,0.395-0.323,0.645-0.423c0.251-0.099,0.53-0.149,0.838-0.149    c0.24,0,0.479,0.036,0.718,0.107c0.24,0.071,0.455,0.178,0.646,0.32c0.19,0.143,0.346,0.316,0.466,0.522    c0.119,0.205,0.179,0.442,0.179,0.709c0,0.291-0.07,0.547-0.209,0.77c-0.14,0.222-0.349,0.373-0.628,0.453v0.017    c0.331,0.074,0.59,0.234,0.778,0.479s0.282,0.538,0.282,0.88c0,0.313-0.061,0.593-0.184,0.838c-0.123,0.245-0.286,0.45-0.492,0.615    c-0.205,0.165-0.442,0.291-0.71,0.376s-0.547,0.128-0.838,0.128c-0.336,0-0.642-0.049-0.918-0.145    c-0.277-0.097-0.512-0.238-0.706-0.423s-0.343-0.412-0.449-0.68c-0.105-0.268-0.156-0.576-0.15-0.923h1.154    c0.006,0.159,0.032,0.312,0.077,0.457c0.046,0.145,0.111,0.271,0.197,0.376c0.085,0.105,0.192,0.19,0.32,0.252    c0.128,0.063,0.281,0.094,0.458,0.094c0.273,0,0.504-0.084,0.692-0.252s0.282-0.398,0.282-0.688c0-0.228-0.044-0.402-0.133-0.522    c-0.088-0.12-0.2-0.206-0.338-0.261c-0.137-0.054-0.286-0.085-0.448-0.094c-0.162-0.008-0.318-0.013-0.466-0.013v-0.855    C165.987,51.32,166.127,51.32,166.275,51.308z" fill="#1F1F1F"/><path d="M168.796,53.488v-1.111l2.598-3.488h1.086v3.599h0.795v1h-0.795v1.385h-1.154v-1.385H168.796z     M171.301,50.411l-1.547,2.077h1.572v-2.077H171.301z" fill="#1F1F1F"/></g><g><path d="M176.411,59.663h-24.513V44.091h24.513V59.663z M153.15,57.961h22.011V45.793H153.15V57.961z" fill="#E90000"/></g></svg>