<svg id="Layer_1" data-name="Layer 1" xmlns="http://www.w3.org/2000/svg" viewBox="0 0 300 185.22"><defs><style>.cls-1{fill:#fff;}.cls-2{fill:#c60039;}.cls-3{fill:#8f0c3e;}</style></defs><rect class="cls-1" width="300" height="185.22"/><path class="cls-2" d="M65.26,114.47H59.2v-13.3a6.66,6.66,0,0,0-1-4.13,3.51,3.51,0,0,0-2.94-1.34,4.61,4.61,0,0,0-1.71.36,6.73,6.73,0,0,0-1.72,1,8.86,8.86,0,0,0-1.49,1.56,6.11,6.11,0,0,0-1,2v13.84H43.24V80.72H49.3V95.16a9.11,9.11,0,0,1,3.55-3.55,10,10,0,0,1,4.95-1.24,7.73,7.73,0,0,1,3.75.79,6.06,6.06,0,0,1,2.27,2.1,8.93,8.93,0,0,1,1.13,3,18.47,18.47,0,0,1,.31,3.43Z"/><path class="cls-2" d="M80.42,114.52a13.05,13.05,0,0,1-5.07-1,11.82,11.82,0,0,1-3.87-2.6A11.62,11.62,0,0,1,69,107.14a12.42,12.42,0,0,1-.86-4.58A13,13,0,0,1,69,97.87,11.33,11.33,0,0,1,71.44,94a11.55,11.55,0,0,1,3.89-2.64,12.79,12.79,0,0,1,5.13-1,12.46,12.46,0,0,1,5.09,1A11.59,11.59,0,0,1,89.38,94a11.24,11.24,0,0,1,2.4,3.82,12.76,12.76,0,0,1,.82,4.54c0,.38,0,.76,0,1.11a4.89,4.89,0,0,1-.11.89h-18a6.92,6.92,0,0,0,.67,2.45,5.81,5.81,0,0,0,1.38,1.82,5.91,5.91,0,0,0,1.91,1.15,6.19,6.19,0,0,0,2.22.4A6.83,6.83,0,0,0,84,109.3,4.56,4.56,0,0,0,86.15,107l5.12,1.42a10.35,10.35,0,0,1-4.12,4.38A12.73,12.73,0,0,1,80.42,114.52Zm6-14a6.2,6.2,0,0,0-1.94-4.2,6.24,6.24,0,0,0-6.4-1.16,5.86,5.86,0,0,0-3.16,3,6.41,6.41,0,0,0-.6,2.35Z"/><path class="cls-2" d="M103,114.52a8.86,8.86,0,0,1-3.16-.55,7.49,7.49,0,0,1-2.53-1.56,7.17,7.17,0,0,1-1.67-2.34,7,7,0,0,1-.6-2.93,6.45,6.45,0,0,1,.73-3,7,7,0,0,1,2-2.38,10.15,10.15,0,0,1,3.13-1.53,13.73,13.73,0,0,1,4-.56,17,17,0,0,1,3,.27,12.23,12.23,0,0,1,2.65.75V99.31a4.7,4.7,0,0,0-1.31-3.56,5.46,5.46,0,0,0-3.89-1.25,10.39,10.39,0,0,0-3.65.67,17.22,17.22,0,0,0-3.65,2l-1.82-3.78a17.15,17.15,0,0,1,9.69-3q5,0,7.81,2.47t2.78,7.14v7.25a2,2,0,0,0,.34,1.33A1.44,1.44,0,0,0,118,109v5.07a13.93,13.93,0,0,1-2.63.31,3.93,3.93,0,0,1-2.6-.76,3.24,3.24,0,0,1-1.14-2l-.13-1.29a10.27,10.27,0,0,1-3.78,3.11A10.74,10.74,0,0,1,103,114.52Zm1.69-4.36a7.7,7.7,0,0,0,2.87-.53,5.27,5.27,0,0,0,2.11-1.42,2.16,2.16,0,0,0,1-1.69v-2.67a13.89,13.89,0,0,0-2.31-.65,12.68,12.68,0,0,0-2.4-.24,6.43,6.43,0,0,0-3.79,1,3.22,3.22,0,0,0-.31,5.16A4.18,4.18,0,0,0,104.67,110.16Z"/><path class="cls-2" d="M136,114.44a9.08,9.08,0,0,1-4.79-1.22,8.57,8.57,0,0,1-3.19-3.3v13.72H122V90.37h5.19v4.39a9.59,9.59,0,0,1,3.33-3.22,9.26,9.26,0,0,1,4.7-1.17,10,10,0,0,1,4.34.95A10.82,10.82,0,0,1,143,93.89a12.07,12.07,0,0,1,2.26,3.81,13.1,13.1,0,0,1,.82,4.64,14.71,14.71,0,0,1-.75,4.74,12.28,12.28,0,0,1-2.11,3.86,9.84,9.84,0,0,1-3.21,2.57A9.05,9.05,0,0,1,136,114.44Zm-2-5a5.25,5.25,0,0,0,2.46-.58,5.83,5.83,0,0,0,1.93-1.55A7.17,7.17,0,0,0,139.6,105a8,8,0,0,0,.45-2.66,7.61,7.61,0,0,0-.49-2.73,7,7,0,0,0-1.35-2.19,6.49,6.49,0,0,0-2-1.47,6.23,6.23,0,0,0-2.55-.53,5.6,5.6,0,0,0-1.73.29,6.15,6.15,0,0,0-1.64.82,7,7,0,0,0-1.36,1.24,5.15,5.15,0,0,0-.9,1.55v5.46a7.87,7.87,0,0,0,2.43,3.3A5.61,5.61,0,0,0,134,109.39Z"/><path class="cls-3" d="M166.44,86.21h-9.87v28.26h-6.19V86.21h-9.87V80.73h25.93Z"/><rect class="cls-3" x="163.19" y="90.38" width="6.06" height="24.09"/><path class="cls-3" d="M173.17,102.4a12.71,12.71,0,0,1,.84-4.62A11.35,11.35,0,0,1,176.45,94a12.14,12.14,0,0,1,3.86-2.62,12.79,12.79,0,0,1,5.11-1,12.28,12.28,0,0,1,6.5,1.64,10.53,10.53,0,0,1,4,4.31l-5.82,1.77a5.16,5.16,0,0,0-2-2,5.6,5.6,0,0,0-2.76-.69,5.67,5.67,0,0,0-2.39.51,5.76,5.76,0,0,0-1.93,1.42,6.56,6.56,0,0,0-1.29,2.2,8.29,8.29,0,0,0-.47,2.84,7.88,7.88,0,0,0,.49,2.84,7.16,7.16,0,0,0,1.31,2.22A5.78,5.78,0,0,0,183,108.9a5.58,5.58,0,0,0,2.35.51,5.67,5.67,0,0,0,3-.8,4.44,4.44,0,0,0,1.88-2l5.82,1.78a9.86,9.86,0,0,1-3.95,4.35,12.48,12.48,0,0,1-6.62,1.68,12.78,12.78,0,0,1-5.1-1A11.58,11.58,0,0,1,174,107,12.31,12.31,0,0,1,173.17,102.4Z"/><path class="cls-3" d="M215.23,114.47l-6.87-10.27-3.25,3.21v7.06h-6.06V80.72h6.06v20.77l9.49-11.07h6.47l-8.82,10.44,9.45,13.61Z"/><path class="cls-3" d="M233.37,114.48a12.86,12.86,0,0,1-5.06-1,11.41,11.41,0,0,1-6.33-6.41,12.42,12.42,0,0,1-.86-4.58,13,13,0,0,1,.84-4.68A11.42,11.42,0,0,1,224.4,94a11.82,11.82,0,0,1,3.89-2.65,12.93,12.93,0,0,1,5.13-1,12.61,12.61,0,0,1,5.08,1A11.85,11.85,0,0,1,242.32,94a11.24,11.24,0,0,1,2.4,3.82,12.66,12.66,0,0,1,.82,4.53c0,.39,0,.76,0,1.11a6,6,0,0,1-.11.89h-18a6.8,6.8,0,0,0,.67,2.44,5.81,5.81,0,0,0,1.38,1.82,5.89,5.89,0,0,0,1.9,1.16,6.51,6.51,0,0,0,2.23.4,6.83,6.83,0,0,0,3.35-.87A4.56,4.56,0,0,0,239.1,107l5.11,1.42a10.39,10.39,0,0,1-4.11,4.38A12.73,12.73,0,0,1,233.37,114.48Zm6-14a6.19,6.19,0,0,0-1.93-4.2,6.1,6.1,0,0,0-8.24,0,6.23,6.23,0,0,0-1.31,1.82,6.46,6.46,0,0,0-.6,2.36Z"/><path class="cls-3" d="M262.43,112.85a26.64,26.64,0,0,1-3,1.08,12.23,12.23,0,0,1-3.7.55,8.66,8.66,0,0,1-2.38-.32,5.16,5.16,0,0,1-1.94-1,5,5,0,0,1-1.34-1.81,6.53,6.53,0,0,1-.49-2.69V95h-3.12V90.38h3.12V80.76h6.06v9.62h5V95h-5v11.58a2.16,2.16,0,0,0,.65,1.79,2.55,2.55,0,0,0,1.61.52,5.58,5.58,0,0,0,1.85-.32c.6-.21,1.09-.39,1.45-.54Z"/><path class="cls-3" d="M275,114.44a18,18,0,0,1-5.72-.93,14,14,0,0,1-4.79-2.66l2.22-3.73a18.93,18.93,0,0,0,4.14,2.29,11.05,11.05,0,0,0,4,.77,5.11,5.11,0,0,0,2.8-.66,2.14,2.14,0,0,0,1-1.91,1.92,1.92,0,0,0-1.2-1.82,27.46,27.46,0,0,0-3.9-1.33c-1.51-.41-2.8-.81-3.86-1.19A10.06,10.06,0,0,1,267.1,102a4.57,4.57,0,0,1-1.42-1.68,5.35,5.35,0,0,1-.44-2.29,7.35,7.35,0,0,1,.68-3.19,7.09,7.09,0,0,1,1.93-2.42,9.17,9.17,0,0,1,2.91-1.53,11.93,11.93,0,0,1,3.61-.53,15.34,15.34,0,0,1,4.9.76,11.94,11.94,0,0,1,4.19,2.43l-2.4,3.6a14,14,0,0,0-3.43-2,9.48,9.48,0,0,0-3.3-.62,4.81,4.81,0,0,0-2.53.62,2.17,2.17,0,0,0-1,2,2,2,0,0,0,.24,1,2.09,2.09,0,0,0,.78.71,7.69,7.69,0,0,0,1.4.6c.57.19,1.29.39,2.15.6,1.59.41,3,.82,4.1,1.24a11,11,0,0,1,2.79,1.42,5,5,0,0,1,1.6,1.84,5.74,5.74,0,0,1,.51,2.5,6.49,6.49,0,0,1-2.53,5.39A10.94,10.94,0,0,1,275,114.44Z"/><path class="cls-2" d="M35.26,103.85a7.23,7.23,0,0,1-1.53,2.37,9,9,0,0,1-2.08,1.6,9.3,9.3,0,0,1-2.36.91,10.71,10.71,0,0,1-2.39.28,8.72,8.72,0,0,1-4-1,10.2,10.2,0,0,1-3.15-2.53,11.54,11.54,0,0,1-2-3.66A13.06,13.06,0,0,1,17,97.55a13.92,13.92,0,0,1,.62-4,11.72,11.72,0,0,1,1.84-3.63,9.43,9.43,0,0,1,3.06-2.6,8.9,8.9,0,0,1,4.32-1,10.51,10.51,0,0,1,2.34.27,9.19,9.19,0,0,1,2.3.83,8.26,8.26,0,0,1,2.05,1.56,8.35,8.35,0,0,1,1.62,2.41l5.07-3.49a13.13,13.13,0,0,0-5.09-5.35,14.54,14.54,0,0,0-5.57-1.89V76.84l-6.2,1.26v2.7a14.61,14.61,0,0,0-3.4,1.13,16.47,16.47,0,0,0-8.52,9.29,17.24,17.24,0,0,0,.09,12.51,18.4,18.4,0,0,0,3.39,5.59,17.31,17.31,0,0,0,5.19,4,14.16,14.16,0,0,0,3.25,1.17v2.7l6.2,1.27v-3.86c.46-.07.92-.16,1.39-.27a17.83,17.83,0,0,0,4-1.53,15.08,15.08,0,0,0,3.39-2.46A10.42,10.42,0,0,0,40.66,107Z"/><g id="R-Ball"><path class="cls-3" d="M287.64,90.38a2.27,2.27,0,0,1-.83-.15,1.92,1.92,0,0,1-.65-.42,1.79,1.79,0,0,1-.44-.63,2,2,0,0,1-.15-.79,2.09,2.09,0,0,1,.15-.79,1.84,1.84,0,0,1,.44-.62,1.92,1.92,0,0,1,.65-.42,2.37,2.37,0,0,1,1.66,0,2.06,2.06,0,0,1,.66.42,1.84,1.84,0,0,1,.44.62,2.1,2.1,0,0,1,.16.79,2,2,0,0,1-.16.79,1.79,1.79,0,0,1-.44.63,2.06,2.06,0,0,1-.66.42A2.27,2.27,0,0,1,287.64,90.38Zm0-.27a2,2,0,0,0,.7-.12,1.8,1.8,0,0,0,.56-.36,1.6,1.6,0,0,0,.38-.54,1.75,1.75,0,0,0,0-1.37,1.68,1.68,0,0,0-.37-.54,1.63,1.63,0,0,0-.56-.36,1.87,1.87,0,0,0-1.42,0,1.59,1.59,0,0,0-.55.36,1.58,1.58,0,0,0-.37.54,1.67,1.67,0,0,0-.13.67,1.72,1.72,0,0,0,.13.68,1.58,1.58,0,0,0,.37.54,1.62,1.62,0,0,0,.55.37A1.83,1.83,0,0,0,287.64,90.11Zm-.89-2.94h1.07a.68.68,0,0,1,.31.08.72.72,0,0,1,.24.18.8.8,0,0,1,.16.26.75.75,0,0,1,.06.29.82.82,0,0,1-.12.43.64.64,0,0,1-.32.27l.57.92h-.59l-.51-.82h-.35v.82h-.52Zm1,1.16a.26.26,0,0,0,.21-.09.35.35,0,0,0,.08-.26.36.36,0,0,0-.09-.26.32.32,0,0,0-.21-.08h-.5v.69Z"/></g></svg>