<svg id="Layer_1" data-name="Layer 1" xmlns="http://www.w3.org/2000/svg" viewBox="0 0 300 120"><defs><style>.cls-1{fill:#fff;}.cls-2{fill:#009de2;}</style></defs><rect class="cls-1" y="0.2" width="300" height="120"/><path class="cls-2" d="M57,52.64c-9.69,0-14.08,7.81-14.08,14.87,0,8.72,5.41,14.19,14.87,14.19A27.49,27.49,0,0,0,67.89,80l-1.14-5.87a24.58,24.58,0,0,1-7.69,1.14c-4.05,0-7.58-1.71-7.87-5.3h18a19.87,19.87,0,0,0,.29-3.42C69.43,59.64,66,52.64,57,52.64ZM51.14,64c.23-2.34,1.71-5.65,5.35-5.65,4,0,4.9,3.54,4.9,5.65Z"/><path class="cls-2" d="M89,52.64c-3.88,0-6.78,1.53-8.43,3.93h-.12V40.67H71.75V72.81c0,3.13-.12,6.5-.23,8.32h7.35l.34-3.87h.12a9.26,9.26,0,0,0,8.38,4.5c6.38,0,12.76-5,12.76-15C100.53,58.17,95.62,52.64,89,52.64ZM85.65,74.92a5.24,5.24,0,0,1-5.07-4.1,6.6,6.6,0,0,1-.17-1.54v-4.1a7.41,7.41,0,0,1,.17-1.6,5.37,5.37,0,0,1,5.07-4.27c4,0,6,3.42,6,7.75C91.63,72.07,89.35,74.92,85.65,74.92Z"/><path class="cls-2" d="M117.22,52.64c-8.94,0-14.87,5.76-14.87,14.76s6.27,14.36,14.42,14.36c7.46,0,14.7-4.67,14.7-14.88C131.47,58.51,125.77,52.64,117.22,52.64ZM117,75.55c-3.71,0-5.7-3.59-5.7-8.38,0-4.11,1.54-8.38,5.7-8.38,3.93,0,5.52,4.22,5.52,8.38C122.52,72.18,120.36,75.55,117,75.55Z"/><path class="cls-2" d="M148,52.64c-9,0-14.87,5.76-14.87,14.76s6.27,14.36,14.42,14.36c7.46,0,14.69-4.67,14.69-14.88C162.23,58.51,156.54,52.64,148,52.64Zm-.23,22.91c-3.7,0-5.7-3.59-5.7-8.38,0-4.11,1.54-8.38,5.7-8.38,3.93,0,5.53,4.22,5.53,8.38C153.29,72.18,151.12,75.55,147.76,75.55Z"/><path class="cls-2" d="M190.85,53.27H180.42l-5.64,8.37c-.69,1.08-1.37,2.22-2,3.36h-.11V40.67H164V81.13h8.67V72.41l2.22-2.73,6.72,11.45h10.66l-11.4-16.58Z"/><path class="cls-2" d="M203.35,52.64c-9.69,0-14.08,7.81-14.08,14.87,0,8.72,5.41,14.19,14.87,14.19A27.49,27.49,0,0,0,214.23,80l-1.14-5.87a24.53,24.53,0,0,1-7.69,1.14c-4.05,0-7.58-1.71-7.87-5.3h17.95a19.87,19.87,0,0,0,.29-3.42C215.77,59.64,212.35,52.64,203.35,52.64ZM197.48,64c.23-2.34,1.71-5.65,5.35-5.65,4,0,4.91,3.54,4.91,5.65Z"/><path class="cls-2" d="M226.18,58.39H226l-.28-5.12H218.2c.11,2.39.23,5.07.23,9.17V81.13h8.66V67a9.73,9.73,0,0,1,.17-1.94c.57-2.68,2.74-4.39,5.92-4.39a12.61,12.61,0,0,1,2.34.23V52.75a9.16,9.16,0,0,0-1.82-.11A8.19,8.19,0,0,0,226.18,58.39Z"/><path class="cls-2" d="M250.31,64.09c-3.42-1.19-4.5-1.88-4.5-3.19s1.19-2.28,3.3-2.28a13.72,13.72,0,0,1,6,1.6l1.54-6a18.75,18.75,0,0,0-7.86-1.59c-6.9,0-11.34,3.93-11.34,9.12-.06,3.3,2.16,6.44,7.92,8.37,3.24,1.09,4.1,1.77,4.1,3.19s-1.08,2.34-3.7,2.34a16.93,16.93,0,0,1-7.47-2.11l-1.54,6.21a19.75,19.75,0,0,0,9,1.94c8,0,12.07-3.81,12.07-9C257.83,68.59,255.61,65.92,250.31,64.09Z"/></svg>