<svg xmlns="http://www.w3.org/2000/svg" width="567" height="239" viewBox="0 0 567 239">
    <path fill="#FFF" fill-rule="evenodd" d="M158.4 113.9c0-14.8-13.6-36.1-39.8-36.1-23.7 0-39.8 20.3-39.8 41.3 0 25 17.3 42.8 46.9 42.8h56.1c-13.3 20.7-36.4 33.9-62.9 33.9-41.9 0-75.8-34.2-75.8-76.1 0-41.9 33.9-76.1 75.8-76.1S195 77.8 195 119.7c0 8.3-1.5 16.3-3.7 23.7h-84.8v-8.3l29.9-.9c15.2-.6 22-8.3 22-20.3zm17.474 75.809v.747h-2.114v5.525h-.862v-5.525h-2.113v-.747h5.089zm.755 0h1.217l1.802 5.302 1.789-5.302h1.204v6.272h-.807v-3.702c0-.128.003-.34.008-.636.006-.296.009-.614.009-.952l-1.789 5.29h-.841l-1.802-5.29v.192c0 .154.004.388.011.702.007.315.01.546.01.694v3.702h-.81v-6.272zM259.4 81.4c0-4.3-4-10.6-11.7-10.6-7 0-11.7 6-11.7 12.1 0 7.3 5.1 12.6 13.7 12.6h16.5c-3.9 6.1-10.7 9.9-18.4 9.9-12.3 0-22.2-10-22.2-22.3s9.9-22.3 22.2-22.3c12.3 0 22.3 10 22.3 22.3 0 2.4-.5 4.8-1.1 7h-24.9v-2.4l8.8-.3c4.5-.2 6.5-2.5 6.5-6zm29.2-6.8l8.5-12.5h11.8l-14.5 20.2 15.7 21.8h-12.5l-9.3-13.6-9.4 13.6h-11.8l15.4-21.3-14.9-20.7h12.5l8.5 12.5zm34.4-4.2c3.1-6.5 8.6-9.4 14.2-9.4 10.1 0 19.3 8.6 19.3 22.1 0 13.6-9.2 22.1-19.3 22.1-5.6 0-11.1-2.9-14.2-9.4-.2-.4-.5-.3-.5.1v25.4h-10.8V62.1h10.8v8.1c0 .4.3.5.5.2zm11.2 25.9c6.3 0 11.8-5.5 11.8-13.2 0-7.7-5.5-13.2-11.8-13.2-6.2 0-11.8 5.5-11.8 13.2 0 7.7 5.6 13.2 11.8 13.2zm59.7-14.9c0-4.3-4-10.6-11.7-10.6-7 0-11.7 6-11.7 12.1 0 7.3 5.1 12.6 13.7 12.6h16.5c-3.9 6.1-10.7 9.9-18.4 9.9-12.3 0-22.2-10-22.2-22.3s9.9-22.3 22.2-22.3c12.3 0 22.3 10 22.3 22.3 0 2.4-.5 4.8-1.1 7h-24.9v-2.4l8.8-.3c4.5-.2 6.5-2.5 6.5-6zm47.8 14.4c-3.1 6.5-8.6 9.4-14.2 9.4-10.1 0-19.3-8.6-19.3-22.1 0-13.6 9.2-22.1 19.3-22.1 5.6 0 11.1 2.9 14.2 9.4.2.4.5.3.5-.1V44H453v60.1h-10.8V96c0-.4-.3-.5-.5-.2zm-11.2-25.9c-6.3 0-11.8 5.5-11.8 13.2 0 7.7 5.5 13.2 11.8 13.2 6.2 0 11.8-5.5 11.8-13.2 0-7.7-5.6-13.2-11.8-13.2zm29.4-20c0-3.4 2.9-6.3 6.3-6.3s6.3 2.9 6.3 6.3-2.9 6.3-6.3 6.3-6.3-2.8-6.3-6.3zm11.7 12.2V104h-10.8V62.1h10.8zm39 33.7c-3.1 6.5-8.6 9.4-14.2 9.4-10.1 0-19.3-8.6-19.3-22.1 0-13.6 9.2-22.1 19.3-22.1 5.6 0 11.1 2.9 14.2 9.4.2.4.5.3.5-.1v-8.1h10.8v41.9H511V96c0-.4-.2-.5-.4-.2zm-11.2-25.9c-6.3 0-11.8 5.5-11.8 13.2 0 7.7 5.5 13.2 11.8 13.2 6.2 0 11.8-5.5 11.8-13.2 0-7.7-5.6-13.2-11.8-13.2zM262.9 170.2c0-.4-.3-.5-.5-.1-3.1 6.5-8.5 9.4-14 9.4-10 0-19.2-8.5-19.2-22s9.1-22 19.2-22c5.5 0 10.9 2.9 14 9.4.2.4.5.3.5-.1v-8.1h10.8v39.5c0 11.7-8 20.7-22 20.7-7.8 0-14.6-2.7-19.5-7.3l6.5-7.1c4.3 3.4 7.8 5.2 12.8 5.2 8 0 11.3-5.6 11.3-12.6v-4.9h.1zm-11.4-25.7c-6.2 0-11.7 5.4-11.7 13s5.4 13 11.7 13c6.1 0 11.7-5.4 11.7-13-.1-7.6-5.6-13-11.7-13zm40.9-7.8v9.1c0 .2.2.3.3 0 1.4-7.5 4.7-10.3 10.3-10.3h1v11.4h-4.9c-4.4 0-6.7 3.4-6.7 8.3v23.4h-10.8v-41.9h10.8zm34.6-1.3c12.2 0 22.2 10 22.2 22.3S339.2 180 327 180c-12.4 0-22.4-10-22.4-22.3s10-22.3 22.4-22.3zm-.1 9.8c-6.5 0-11.8 5.4-11.8 12.5s5.3 12.5 11.8 12.5c6.5 0 11.8-5.4 11.8-12.5.1-7.1-5.2-12.5-11.8-12.5zm44.9 34.8c-10.6 0-17.4-6.4-17.4-15.8v-27.5h10.8v26.7c0 4.2 2.7 6.9 6.8 6.9 3.7 0 6.5-2.8 6.5-6.8v-26.8h10.8v27.5c.1 9.4-7.2 15.8-17.5 15.8zm36.4-35.1c3.1-6.5 8.6-9.4 14.2-9.4 10.1 0 19.3 8.6 19.3 22.1 0 13.6-9.2 22.1-19.3 22.1-5.6 0-11.1-2.9-14.2-9.4-.2-.4-.5-.3-.5.1v25.4h-10.8v-59.2h10.8v8.1c.1.5.3.6.5.2zm11.2 26c6.3 0 11.8-5.5 11.8-13.2 0-7.7-5.5-13.2-11.8-13.2-6.2 0-11.8 5.5-11.8 13.2 0 7.7 5.6 13.2 11.8 13.2zm33.54-34.218v.748h-2.115v5.527h-.863v-5.527h-2.115v-.748h5.092zm.755 0h1.218l1.802 5.306 1.79-5.306h1.205v6.275h-.807v-3.703c0-.129.002-.34.008-.637.006-.296.009-.614.009-.953l-1.79 5.293h-.842l-1.802-5.293v.193c0 .153.003.388.01.702.007.315.01.546.01.695v3.703h-.81v-6.275z"/>
</svg>
