<svg id="Layer_1" data-name="Layer 1" xmlns="http://www.w3.org/2000/svg" viewBox="0 0 300 120"><defs><style>.cls-1{fill:#fff;}.cls-2,.cls-4{fill:#202843;}.cls-3{fill:#ffc94c;}.cls-4{fill-rule:evenodd;}</style></defs><rect class="cls-1" y="0.2" width="300" height="120"/><circle class="cls-2" cx="48.66" cy="62.79" r="26.21" transform="translate(-15.35 109.84) rotate(-88.55)"/><path class="cls-3" d="M26.46,76.74c4.08-1.95,18-8.76,20.7-10.37l5.6-3.24L54.18,66l2.16,14.25,1.66-1,1.1-19.92c3.34-2.09,6.29-4.12,9.38-6.25L72,50.77q-.57-1.1-1.23-2.13l-3.81,1.81c-3.38,1.61-6.62,3.14-10.1,5l-17.8-9-1.65,1,11.26,9,1.79,2.67h0L44.81,62.3c-2.76,1.57-15.6,10.19-19.32,12.75C25.79,75.62,26.12,76.19,26.46,76.74Z"/><path class="cls-4" d="M257.29,62.1a8.56,8.56,0,0,0-7.23-3.69c-4.61,0-7.79,3.91-7.79,8.79s3.06,8.91,7.79,8.91A8.66,8.66,0,0,0,257.29,72Zm.35-5.14V54.08h5.07V80.29h-5.22v-3a10.3,10.3,0,0,1-8.26,3.6C241.78,80.92,237,75,237,67.2s4.79-13.71,12.24-13.71A11.33,11.33,0,0,1,257.64,57Z"/><path class="cls-2" d="M226.49,47.33A3.67,3.67,0,1,1,230.18,51,3.66,3.66,0,0,1,226.49,47.33Z"/><rect class="cls-2" x="227.44" y="54.08" width="5.42" height="26.21"/><path class="cls-4" d="M216.73,62.1a8.56,8.56,0,0,0-7.23-3.69c-4.61,0-7.79,3.91-7.79,8.79s3.06,8.91,7.79,8.91A8.66,8.66,0,0,0,216.73,72Zm.12-17.74h5.3V80.29h-5.22v-3a10.3,10.3,0,0,1-8.26,3.6c-7.45,0-12.24-5.94-12.24-13.72s4.79-13.71,12.24-13.71a11.43,11.43,0,0,1,8.18,3.22Z"/><path class="cls-4" d="M173.31,64.54h14.8a7.33,7.33,0,0,0-7.37-6.37,7.44,7.44,0,0,0-5,2.08A7.79,7.79,0,0,0,173.31,64.54ZM181.16,81a15.52,15.52,0,0,0,6.44-1.33,15.07,15.07,0,0,0,5.11-3.83l-3.23-3.45h0a13.81,13.81,0,0,1-3.63,2.72,10.08,10.08,0,0,1-4.58,1A8.19,8.19,0,0,1,173.18,69h20.39c0-.06,0-.12,0-.18,0-.62.07-1.25.07-1.88,0-7.48-5.37-13.56-12.8-13.56s-13.13,5.91-13.13,13.78S173.35,81,181.16,81Z"/><path class="cls-4" d="M144.83,72.27a8.53,8.53,0,0,0,7.22,3.7c4.62,0,7.8-3.91,7.8-8.8s-3.07-8.9-7.8-8.9a8.64,8.64,0,0,0-7.22,4.13Zm-.12,5.4V90h-5.3V54.08h5.21v3a10.29,10.29,0,0,1,8.27-3.6c7.45,0,12.24,5.94,12.24,13.71s-4.79,13.72-12.24,13.72A11.43,11.43,0,0,1,144.71,77.67Z"/><polygon class="cls-2" points="120.59 66.82 111.35 54.08 117.89 54.08 124.06 62.77 130.23 54.08 136.69 54.08 127.4 66.87 137.12 80.29 130.56 80.29 123.99 71.02 117.42 80.29 110.84 80.29 120.59 66.82"/><polygon class="cls-2" points="93.88 64.92 107.5 64.92 107.5 59.77 93.88 59.77 93.88 50.43 108.68 50.43 108.68 45.29 87.96 45.29 87.96 80.29 108.78 80.29 108.78 75.15 93.88 75.15 93.88 64.92"/><path class="cls-2" d="M267,78.06a.25.25,0,0,1-.28.25h-.24v-.49h.24A.25.25,0,0,1,267,78.06Zm.41,0a.6.6,0,0,0-.67-.59H266v1.89h.4v-.68h.15l.43.68h.47l-.5-.75A.58.58,0,0,0,267.36,78.05Zm.73.35a1.45,1.45,0,1,1-1.44-1.51A1.48,1.48,0,0,1,268.09,78.4Zm.42,0a1.86,1.86,0,1,0-1.86,1.9A1.88,1.88,0,0,0,268.51,78.4Z"/></svg>