<svg id="Layer_1" data-name="Layer 1" xmlns="http://www.w3.org/2000/svg" viewBox="0 0 300 185.22"><defs><style>.cls-1{fill:#fff;}.cls-2{fill:#e62e45;}</style></defs><rect class="cls-1" width="300" height="185.22"/><path class="cls-2" d="M288.56,85.18a.49.49,0,0,1-.48-.49V81.43h-.94a.43.43,0,0,1,0-.85H290a.43.43,0,1,1,0,.85H289v3.26a.49.49,0,0,1-.47.49Zm7,0a.49.49,0,0,1-.48-.49V81.85L293.84,85a.27.27,0,0,1-.25.18.28.28,0,0,1-.25-.18l-1.22-3.15v2.84a.48.48,0,1,1-.95,0V81.32a.78.78,0,0,1,1.51-.28l.91,2.38.92-2.38a.78.78,0,0,1,.72-.51.79.79,0,0,1,.79.79v3.37a.5.5,0,0,1-.48.49Z"/><path class="cls-2" d="M40.32,79.14a7.79,7.79,0,0,1,1.36-4.39,6.21,6.21,0,0,0-4.48,6v5l3.12.16V79.14Z"/><path class="cls-2" d="M37.2,113.44a6.22,6.22,0,0,0,4.48,6,7.82,7.82,0,0,1-1.36-4.4v-9.35H37.2v7.79Z"/><path class="cls-2" d="M45,105.65H41.88V115a6.22,6.22,0,0,0,4.48,6,7.75,7.75,0,0,1-1.37-4.4V105.65Z"/><path class="cls-2" d="M45,77.58a7.72,7.72,0,0,1,1.37-4.39,6.21,6.21,0,0,0-4.48,6v6.78l3.11.16v-8.5Z"/><path class="cls-2" d="M9.84,75.59A7.75,7.75,0,0,0,6,82.26v29.62a7.77,7.77,0,0,0,3.82,6.68,9.37,9.37,0,0,1-.7-3.56V79.14a9.29,9.29,0,0,1,.7-3.55Z"/><path class="cls-2" d="M13.81,76a9.37,9.37,0,0,1,.71-3.55,7.76,7.76,0,0,0-3.83,6.67V115a7.78,7.78,0,0,0,5.1,7.29,9.27,9.27,0,0,1-2-5.73V76Z"/><path class="cls-2" d="M52.79,71.35a6.23,6.23,0,0,0-6.23,6.23V87.72L31,86.94V76a7.8,7.8,0,0,0-15.6,0v40.54a7.8,7.8,0,1,0,15.6,0V104.09H46.56v12.47a6.24,6.24,0,1,0,12.47,0v-39a6.23,6.23,0,0,0-6.24-6.23Z"/><path class="cls-2" d="M106.62,109.32V97.77H89.78v11.55a2.28,2.28,0,0,1-2.24,2.28,2.33,2.33,0,0,1-2.32-2.28V83A2.32,2.32,0,0,1,87.5,80.7,2.29,2.29,0,0,1,89.78,83V93.71h16.84V83a2.29,2.29,0,0,1,4.57,0v26.34a2.29,2.29,0,0,1-4.57,0Z"/><path class="cls-2" d="M114.41,100.33c0-6.35,4.29-11.55,11.14-11.55s11.13,5.2,11.13,11.55-4.24,11.59-11.13,11.59-11.14-5.2-11.14-11.59Zm18,0c0-4.16-2.43-7.9-6.85-7.9s-6.85,3.74-6.85,7.9,2.47,7.94,6.85,7.94,6.85-3.74,6.85-7.94Z"/><path class="cls-2" d="M160.56,88.78c6.62,0,10.73,5.16,10.73,11,0,1.24-.87,2-2.42,2h-15a7.23,7.23,0,0,0,7.48,6.84,9.4,9.4,0,0,0,5.48-1.78,1.47,1.47,0,0,1,.92-.23,1.64,1.64,0,0,1,1.64,1.65,1.61,1.61,0,0,1-.73,1.37,12.82,12.82,0,0,1-7.71,2.37c-6.58,0-11.42-4.66-11.42-11.59,0-6.39,4.61-11.55,11.05-11.55Zm-6.75,10h13.46a6.52,6.52,0,0,0-6.71-6.57c-4.43,0-6.53,3.56-6.75,6.57Z"/><path class="cls-2" d="M173.9,109.55V82.75a2,2,0,0,1,2-2,2.07,2.07,0,0,1,2.06,2v26.8a2.07,2.07,0,0,1-2.06,2,2,2,0,0,1-2-2Z"/><path class="cls-2" d="M180.65,108a1.75,1.75,0,0,1,1.78-1.78,1.88,1.88,0,0,1,1,.32,10.64,10.64,0,0,0,6.21,2.1c3.11,0,4.75-1.28,4.75-3.15,0-2.19-2.51-2.92-5.34-3.56-3.75-.86-8.13-1.87-8.13-6.61,0-3.52,3-6.53,8.4-6.53a12.14,12.14,0,0,1,7.35,2.28,1.68,1.68,0,0,1-1,3.06,1.59,1.59,0,0,1-.91-.32,9.16,9.16,0,0,0-5.43-1.69c-2.79,0-4.52,1.1-4.52,2.88s2.37,2.55,5.11,3.19c3.83.87,8.4,1.92,8.4,7,0,3.79-3.11,6.76-8.9,6.76a13,13,0,0,1-8-2.47,1.82,1.82,0,0,1-.77-1.46Z"/><path class="cls-2" d="M203.75,106.17a2.88,2.88,0,0,1,2.87,2.83,2.92,2.92,0,0,1-2.87,2.87,2.87,2.87,0,0,1-2.83-2.87,2.84,2.84,0,0,1,2.83-2.83Z"/><path class="cls-2" d="M227.94,100.33c0-6.35,4.3-11.55,11.14-11.55s11.14,5.2,11.14,11.55-4.25,11.59-11.14,11.59-11.14-5.2-11.14-11.59Zm18,0c0-4.16-2.42-7.9-6.85-7.9s-6.84,3.74-6.84,7.9,2.46,7.94,6.84,7.94,6.85-3.74,6.85-7.94Z"/><path class="cls-2" d="M284.2,95.44v14.11a2.08,2.08,0,0,1-2.1,2,2,2,0,0,1-2-2V96.67c0-2.55-1.14-3.78-3.83-3.78-2.24,0-4.43,2.51-5.48,4.11v12.55a2,2,0,0,1-2,2,2.07,2.07,0,0,1-2.06-2V96.67c0-2.55-1.09-3.78-3.88-3.78-2.14,0-4.28,2.66-5.38,4.26v12.4a2.07,2.07,0,0,1-2.05,2,2,2,0,0,1-2.06-2V91.15a2,2,0,0,1,2-2.05,2.08,2.08,0,0,1,2.1,2.05v1.28a9.53,9.53,0,0,1,7.12-3.65c3.33,0,5.29,1.73,6,4.11a9.34,9.34,0,0,1,7.5-4.11c4.06,0,6.19,2.24,6.19,6.66Z"/><path class="cls-2" d="M218.93,88.78a9.8,9.8,0,0,1,7,2.56,1.93,1.93,0,0,1,.64,1.36,1.85,1.85,0,0,1-1.83,1.88,1.88,1.88,0,0,1-1.23-.46,6.11,6.11,0,0,0-4.43-1.69c-4.33,0-7.12,3.33-7.12,7.9s2.79,7.79,7.12,7.94c2.93.1,5.88-2,8.24-5.76.3-.47.73-1.33,1.08-1.78.67-.85,1.15-.44,1.54,0a3.49,3.49,0,0,1,.25,3.44A17.69,17.69,0,0,1,226.5,109a10.79,10.79,0,0,1-7.57,2.9c-6.66,0-11.23-5-11.23-11.59s4.57-11.55,11.23-11.55Z"/><path class="cls-2" d="M152.45,108c0,.78-2.23,2.52-3.82,3.29a6.78,6.78,0,0,1-3.15.64c-3.47,0-5.25-2-5.25-5.43V92.93h-2.1a1.8,1.8,0,1,1,0-3.6h2.1v-4.2a2,2,0,0,1,2.05-2.06,2.08,2.08,0,0,1,2.06,2.06v4.2h2.87a1.8,1.8,0,1,1,0,3.6h-2.87v12.65c0,1.55.73,2.69,2.14,2.69,2.52,0,4.49-3.91,5.6-3.91s.37,2.63.37,3.63Z"/></svg>