<svg id="Layer_1" data-name="Layer 1" xmlns="http://www.w3.org/2000/svg" viewBox="0 0 300 185.22"><defs><style>.cls-1{fill:#fff;}.cls-2{fill:#19171b;}.cls-3{fill:#e5363a;}</style></defs><rect class="cls-1" width="300" height="185.22"/><path class="cls-2" d="M191.94,81.44a3.31,3.31,0,0,1-3.32-3.32,3.36,3.36,0,0,1,3.32-3.38,3.41,3.41,0,0,1,3.38,3.38A3.36,3.36,0,0,1,191.94,81.44Z"/><path class="cls-3" d="M116.7,99.86a14.53,14.53,0,1,1-14.53-14.53A14.54,14.54,0,0,1,116.7,99.86Z"/><path class="cls-2" d="M57.12,75.26h6.25V89.79h.11a9.12,9.12,0,0,1,3.43-3.21A10.19,10.19,0,0,1,72,85.3a10.59,10.59,0,0,1,7.35,2.41Q82,90.13,82,95v19.47H75.77V96.59a7.73,7.73,0,0,0-1.43-4.85,5.17,5.17,0,0,0-4.11-1.51,6.7,6.7,0,0,0-2.86.58,6.15,6.15,0,0,0-2.14,1.59,7.53,7.53,0,0,0-1.37,2.38,8.55,8.55,0,0,0-.49,2.91v16.73H57.12Z"/><path class="cls-2" d="M121.05,86.06h4.72v-8.5H132v8.5h5.65v4.67H132v15.13a16.3,16.3,0,0,0,.08,1.7,2.88,2.88,0,0,0,.39,1.21,1.8,1.8,0,0,0,.9.74,4.33,4.33,0,0,0,1.65.25l1.31,0a6.67,6.67,0,0,0,1.32-.19v4.82l-2,.22a16.92,16.92,0,0,1-2,.11,13.92,13.92,0,0,1-4-.46,5.39,5.39,0,0,1-2.36-1.37,4.8,4.8,0,0,1-1.15-2.28,16.7,16.7,0,0,1-.35-3.13V90.73h-4.72Z"/><path class="cls-2" d="M141.51,86.06h6.63l5.54,21.17h.11l5.32-21.17h6.31l5.1,21.17h.11l5.76-21.17h6.36l-8.88,28.36h-6.42l-5.26-21.06h-.11l-5.21,21.06h-6.59Z"/><path class="cls-2" d="M188.84,86.06h6.25v28.36h-6.25Z"/><path class="cls-2" d="M203.82,86.06h5.86v5.49h.11a6.44,6.44,0,0,1,1.07-2.25,10.34,10.34,0,0,1,1.92-2,9.59,9.59,0,0,1,2.5-1.46,7.54,7.54,0,0,1,2.8-.54,12.88,12.88,0,0,1,1.5,0l.85.11v6l-1.34-.19a12.34,12.34,0,0,0-1.34-.08,7.19,7.19,0,0,0-3,.63,6.77,6.77,0,0,0-2.44,1.86,9.08,9.08,0,0,0-1.65,3.05,13.28,13.28,0,0,0-.6,4.17v13.49h-6.25Z"/><path class="cls-2" d="M229,102a11,11,0,0,0,.47,3.19,7.88,7.88,0,0,0,1.4,2.7,6.7,6.7,0,0,0,2.37,1.84,7.77,7.77,0,0,0,3.41.69,7.51,7.51,0,0,0,4.42-1.19,7,7,0,0,0,2.5-3.54h5.94a11.92,11.92,0,0,1-1.7,4.12,11.79,11.79,0,0,1-2.92,3,12.36,12.36,0,0,1-3.82,1.87,15.43,15.43,0,0,1-4.42.63,15.09,15.09,0,0,1-5.94-1.09,12.41,12.41,0,0,1-4.38-3.08,13,13,0,0,1-2.69-4.73,19.39,19.39,0,0,1-.91-6,16.94,16.94,0,0,1,1-5.75,14.51,14.51,0,0,1,2.75-4.78,12.91,12.91,0,0,1,4.31-3.27,13,13,0,0,1,5.72-1.21,12.67,12.67,0,0,1,6,1.4,13.21,13.21,0,0,1,4.43,3.71,15,15,0,0,1,2.55,5.31,16.4,16.4,0,0,1,.42,6.18Zm14.63-4.12A10.68,10.68,0,0,0,243,95a7.72,7.72,0,0,0-1.43-2.39,7.11,7.11,0,0,0-2.2-1.65,6.52,6.52,0,0,0-2.89-.63,7.64,7.64,0,0,0-3,.57,6.88,6.88,0,0,0-2.31,1.6,8,8,0,0,0-1.54,2.39,8.56,8.56,0,0,0-.63,3Z"/><path class="cls-2" d="M250.5,84.36a2.39,2.39,0,1,1-2.41,2.37A2.37,2.37,0,0,1,250.5,84.36Zm0,4.42a2,2,0,1,0-2-2A2,2,0,0,0,250.5,88.78Zm-.94-3.43h1.08c.67,0,1,.26,1,.8a.72.72,0,0,1-.73.76l.79,1.23h-.46l-.76-1.2H250v1.2h-.44Zm.44,1.24h.45c.38,0,.74,0,.74-.46s-.32-.43-.62-.43H250Z"/></svg>