<svg id="Layer_1" data-name="Layer 1" xmlns="http://www.w3.org/2000/svg" viewBox="0 0 300 120"><defs><style>.cls-1{fill:#fff;}.cls-2{fill:#02405f;}.cls-3{fill:#0cb7df;}</style></defs><rect class="cls-1" y="0.2" width="300" height="120"/><path class="cls-2" d="M169.76,79.92,185.59,44.1a.67.67,0,0,0-.66-1H173.85a1.81,1.81,0,0,0-1.54,1L156.68,79.92a.68.68,0,0,0,.67,1h10.87A1.83,1.83,0,0,0,169.76,79.92Z"/><polygon class="cls-2" points="226.5 70.27 251.06 43.1 222.34 43.1 215.84 53.57 227.11 53.57 202.15 80.93 232.54 80.93 243.86 70.27 226.5 70.27 226.5 70.27"/><path class="cls-2" d="M121.39,43.1h-19a3.2,3.2,0,0,0-2.7,1.76l-15,34.31a1.16,1.16,0,0,0,1.16,1.76h9.42A3.18,3.18,0,0,0,98,79.17l4.26-9.72h4.43c1.38-.08,2,.42,1.21,2l-3.29,7.69a1.18,1.18,0,0,0,1.17,1.77h9.43a3.2,3.2,0,0,0,2.7-1.77l4.28-9.9c1.34-3.21-.6-5.7-3.43-5.84a11.35,11.35,0,0,0,5.84-5.63l2.22-5.23C129.5,46.5,127.6,43,121.39,43.1Zm-5.55,10.82-2.34,5.16a1.89,1.89,0,0,1-2.1,1.3h-5.3l3.54-8h5.08C116,52.41,116.28,52.87,115.84,53.92Z"/><path class="cls-2" d="M158.4,43.09H138.25a2.29,2.29,0,0,0-1.92,1.26l-15.4,35.31a.84.84,0,0,0,.83,1.26h21.56c6.84-.1,10.76-1.62,13.88-8.86l2.22-4.82c1.75-4.13,0-5.92-3.23-6.45a9.64,9.64,0,0,0,5.64-5.63l1.81-3.83C165.85,46.22,164,43,158.4,43.09Zm-9.87,23.69-1.37,2.74A3.34,3.34,0,0,1,143.6,72h-6.31l3-7.12h6.31C148.4,65,149.1,65.43,148.53,66.78Zm3.62-12.68-1,2.17-.14.29A2.19,2.19,0,0,1,148.85,58h-5.48l2.51-5.76h5.57C152.46,52.32,152.61,53,152.15,54.1Z"/><path class="cls-2" d="M189.08,43.1l-4.69,10.47h6.68a.49.49,0,0,1,.49.75L179.88,80.18a.49.49,0,0,0,.48.75h11.91a1.36,1.36,0,0,0,1.16-.76l11.22-25.85a1.36,1.36,0,0,1,1.15-.75h6.86l6.45-10.47Z"/><path class="cls-2" d="M90.35,56l1.47-3.23c3-6.8,1-9.73-4.83-9.65H72.91c-5.78-.08-10.62,3.19-13.29,9.25L55.26,64.63H51.17L59,75.24,72,64.63h-3.3l3.81-8.85a3.25,3.25,0,0,1,2.83-2.21h2.21a1.51,1.51,0,0,1,1.09.41l6.89-5.78Z"/><path class="cls-3" d="M58.73,78.35,53,71l-.3.64c-2.69,6.11-2.24,9.16,3.55,9.25H70.09c5.75-.09,10.78-3.14,13.48-9.25l4.11-9.46h3.71L85.08,51.61,72.2,62.22h3.54l-2.61,6a3.15,3.15,0,0,1-2.61,2H68.68Z"/><path class="cls-2" d="M255.64,42.88a1.84,1.84,0,0,1,1.3,3.14,1.84,1.84,0,1,1-2.61-2.6A1.79,1.79,0,0,1,255.64,42.88Zm0,3.35a1.47,1.47,0,0,0,1.07-.45,1.42,1.42,0,0,0,.44-1.06,1.44,1.44,0,0,0-.44-1.07,1.46,1.46,0,0,0-1.07-.44,1.5,1.5,0,0,0-1.51,1.51,1.5,1.5,0,0,0,1.51,1.51Zm.94-.53h-.44l-.52-.78h-.24v.78H255v-2h.63a.82.82,0,0,1,.51.16.52.52,0,0,1,.21.43.53.53,0,0,1-.38.52Zm-1.2-1.1h.21c.25,0,.37-.1.37-.29s-.12-.27-.35-.27h-.23Z"/></svg>