<svg width="60" height="48" viewBox="0 0 60 48" fill="none" xmlns="http://www.w3.org/2000/svg">
<g clip-path="url(#clip0)">
<path d="M16.2448 17.2408H10.1039V23.2919H16.2448V17.2408Z" fill="#57DEB7"/>
<path d="M25.9079 17.2408H19.767V23.2919H25.9079V17.2408Z" fill="#57DEB7"/>
<path d="M35.5709 17.2408H29.4299V23.2919H35.5709V17.2408Z" fill="#57DEB7"/>
<path d="M40.0078 27.0871V11.1841H5.68994V46.6901H48.7619" stroke="#000F9F" stroke-width="1.5" stroke-miterlimit="10" stroke-linecap="square"/>
<path d="M33.9121 7.84229H3.95715" stroke="#000F9F" stroke-width="1.5" stroke-miterlimit="10" stroke-linecap="square"/>
<path d="M1.83826 10.3445L10.1038 0.598999H35.5709L43.3253 9.9583" stroke="#000F9F" stroke-width="1.5" stroke-miterlimit="10" stroke-linecap="square"/>
<path d="M51.1308 8.71556C49.9448 8.71689 48.7763 8.99706 47.7223 9.53282C48.5016 9.66149 49.247 9.94219 49.9148 10.3584C50.5826 10.7747 51.1594 11.3181 51.6113 11.9569C52.0631 12.5956 52.381 13.3169 52.5463 14.0783C52.7116 14.8397 52.721 15.6259 52.5739 16.3909C52.4268 17.156 52.1262 17.8843 51.6897 18.5334C51.2531 19.1824 50.6895 19.7391 50.0318 20.1706C49.3741 20.6022 48.6356 20.9001 47.8595 21.0468C47.0835 21.1935 46.2855 21.186 45.5125 21.0248C46.3446 21.951 47.399 22.657 48.5794 23.0784C49.7597 23.4998 51.0283 23.6232 52.2695 23.4372C53.5106 23.2513 54.6847 22.7619 55.6846 22.0138C56.6844 21.2657 57.4782 20.2828 57.9934 19.1547C58.5085 18.0266 58.7287 16.7894 58.6338 15.5559C58.5389 14.3224 58.132 13.1319 57.4501 12.0933C56.7682 11.0546 55.8332 10.2008 54.7303 9.60981C53.6274 9.01881 52.3919 8.70944 51.1365 8.70996L51.1308 8.71556Z" fill="#57DEB7"/>
<path d="M14.5803 46.6902V30.6249H19.7669V46.6902" stroke="#000F9F" stroke-width="1.5" stroke-miterlimit="10" stroke-linecap="square"/>
<path d="M58.2205 32.808H53.0339V46.6902H58.2205V32.808Z" stroke="#000F9F" stroke-width="1.5" stroke-miterlimit="10" stroke-linecap="square"/>
<path d="M53.0338 37.8123H19.767V42.6262H53.0338V37.8123Z" stroke="#000F9F" stroke-width="1.5" stroke-miterlimit="10" stroke-linecap="square"/>
<path d="M34.7189 35.9202C34.7189 35.9202 41.4393 32.7407 50.7615 35.9202" stroke="#000F9F" stroke-width="1.5" stroke-miterlimit="10" stroke-linecap="square"/>
<path d="M32.9351 36.0714C33.5543 35.1534 32.8442 33.2334 32.6965 32.8527C30.2595 26.6953 23.1243 27.5685 22.1586 28.9959C21.5337 29.9195 22.2438 31.8395 22.3915 32.2146C24.8229 38.3664 31.958 37.5044 32.9351 36.0714Z" fill="#57DEB7"/>
</g>
<defs>
<clipPath id="clip0">
<rect width="60" height="48" fill="white"/>
</clipPath>
</defs>
</svg>
