<?xml version="1.0" encoding="UTF-8"?>
<svg width="161px" height="20px" viewBox="0 0 161 20" version="1.1" xmlns="http://www.w3.org/2000/svg" xmlns:xlink="http://www.w3.org/1999/xlink">
    <title>horizontal mark_dark_v3.6_S_16px</title>
    <defs>
        <polygon id="path-1" points="0 0 24.9863673 0 24.9863673 16.0052683 0 16.0052683"></polygon>
    </defs>
    <g id="Page-1" stroke="none" stroke-width="1" fill="none" fill-rule="evenodd">
        <g id="Trigger-assets" transform="translate(-1576.000000, -1224.000000)">
            <g id="horizontal-mark_dark_v3.6_S_16px" transform="translate(1576.000000, 1224.000000)">
                <g id="SRC_icon_black" transform="translate(0.000000, 1.500000)">
                    <mask id="mask-2" fill="white">
                        <use xlink:href="#path-1"></use>
                    </mask>
                    <g id="path-1"></g>
                    <path d="M24.7812069,7.4910439 L18.7946169,0.366068293 C18.6683716,0.15484878 18.4401149,0.0137756098 18.1795785,0.0137756098 C17.7822605,0.0137756098 17.4601341,0.34177561 17.4601341,0.746556098 C17.4601341,0.95982439 17.5496935,1.15182439 17.6925096,1.28577561 L23.1158812,7.98236098 L17.7527586,14.5517268 L17.1679885,14.5517268 L15.4359004,14.5517268 L20.5042912,8.54499512 C20.5075479,8.5412878 20.5105172,8.53758049 20.5136782,8.53387317 L20.5147318,8.53426341 C20.6559195,8.37621463 20.7187548,8.19153171 20.7154023,8.00948293 C20.7187548,7.82753171 20.6559195,7.64284878 20.5147318,7.4848 L20.5136782,7.48509268 C20.5105172,7.48138537 20.5075479,7.47767805 20.5042912,7.47406829 L14.4519923,0.377678049 C14.4506513,0.376019512 14.4493103,0.374360976 14.4478736,0.372702439 C14.3225862,0.15777561 14.092318,0.0137756098 13.8291954,0.0137756098 L9.5785249,0.0137756098 C9.1812069,0.0137756098 8.85908046,0.34177561 8.85908046,0.746556098 C8.85908046,0.869385366 8.87555556,0.997092683 8.94145594,1.08694634 L14.5745019,8.03670244 L9.77354406,13.9033366 C9.745,13.9324098 9.33130268,14.5328976 8.60390805,14.5328976 L2.87009579,14.5328976 C2.09030651,14.5328976 1.443659,13.9130927 1.443659,13.0897756 L1.443659,2.92011707 C1.443659,2.20343415 2.09030651,1.46733659 2.88772031,1.46733659 L6.4548659,1.46733659 C6.87536398,1.46733659 7.17431034,1.17484878 7.17431034,0.746556098 C7.17431034,0.318263415 6.87536398,-7.80487805e-05 6.4548659,-7.80487805e-05 L2.85275862,0.0144585366 C1.146341,0.0144585366 -1.91570881e-05,1.44792195 -1.91570881e-05,2.90519024 L-1.91570881e-05,13.0897756 C-1.91570881e-05,14.6588488 1.35812261,15.9953366 2.85275862,15.9953366 L8.58494253,15.9953366 C8.87402299,15.9953366 9.13848659,15.9522146 9.3766092,15.8831415 C9.41061303,15.8732878 9.44413793,15.8628488 9.47699234,15.8520195 C10.267318,15.5911415 10.7443295,15.0551415 10.8366667,14.9415805 L16.2397318,8.52792195 C16.4952874,8.23260488 16.5292912,7.8043122 16.2439464,7.4848 L16.2428927,7.48509268 C16.2397318,7.48138537 16.2367625,7.47767805 16.2336015,7.47406829 L11.1227778,1.46733659 L12.8972989,1.46733659 L13.482069,1.46733659 L18.8230651,8.00958049 L13.2026628,14.9148488 C13.2008429,14.9168976 13.2042912,14.9228488 13.2122414,14.9321171 C13.159751,15.0338732 13.1298659,15.1495805 13.1298659,15.2725073 C13.1298659,15.6771902 13.4519923,16.0052878 13.8492146,16.0052878 L18.0998851,16.0052878 C18.3631034,16.0052878 18.5931801,15.8610927 18.718659,15.6462634 C18.72,15.6446049 18.721341,15.6429463 18.722682,15.6413854 L24.7750766,8.54499512 C24.7782375,8.5412878 24.7812069,8.53758049 24.7843678,8.53387317 L24.7854215,8.53426341 C25.0706705,8.21465366 25.0367625,7.78636098 24.7812069,7.4910439" id="Fill-1" fill="#000000" fill-rule="nonzero" mask="url(#mask-2)"></path>
                </g>
                <g id="Group" transform="translate(131.000000, 4.500000)" fill="#1A1F71" fill-rule="nonzero">
                    <g id="Visa-Brand-Mark-Blue">
                        <path d="M11.3626728,0.242253521 L7.45299539,9.74507042 L4.90230415,9.74507042 L2.97926267,2.16056338 C2.86175115,1.69295775 2.76082949,1.52253521 2.40552995,1.32535211 C1.82626728,1.00422535 0.868202765,0.704225352 0.0248847926,0.516901408 L0.0829493088,0.24084507 L4.18894009,0.24084507 C4.71152074,0.24084507 5.18294931,0.595774648 5.30184332,1.20985915 L6.31797235,6.70985915 L8.82857143,0.242253521 L11.3626728,0.242253521 Z M21.356682,6.64225352 C21.3663594,4.13380282 17.9516129,3.99577465 17.9751152,2.87605634 C17.9820276,2.53521127 18.3013825,2.17323944 18.9981567,2.08028169 C19.3437788,2.03380282 20.2963134,1.99859155 21.3774194,2.5056338 L21.8004608,0.490140845 C21.2198157,0.274647887 20.4732719,0.0690140845 19.5428571,0.0690140845 C17.1580645,0.0690140845 15.4797235,1.36056338 15.4645161,3.21126761 C15.4493088,4.57887324 16.6631336,5.34225352 17.5769585,5.7971831 C18.5170507,6.26338028 18.8322581,6.56197183 18.8281106,6.97746479 C18.8225806,7.61549296 18.0788018,7.89577465 17.3847926,7.90704225 C16.1709677,7.92676056 15.4672811,7.57323944 14.9059908,7.30704225 L14.4691244,9.38873239 C15.0331797,9.65211268 16.0728111,9.88169014 17.1525346,9.89295775 C19.6907834,9.89295775 21.3483871,8.61690141 21.356682,6.64225352 L21.356682,6.64225352 Z M27.6539171,9.74507042 L29.8852535,9.74507042 L27.9373272,0.242253521 L25.8774194,0.242253521 C25.4142857,0.242253521 25.024424,0.516901408 24.8502304,0.93943662 L21.2308756,9.74507042 L23.764977,9.74507042 L24.2682028,8.32535211 L27.3635945,8.32535211 L27.6539171,9.74507042 Z M24.962212,6.37746479 L26.2327189,2.8084507 L26.9640553,6.37746479 L24.962212,6.37746479 Z M14.8105991,0.242253521 L12.8156682,9.74507042 L10.4032258,9.74507042 L12.3995392,0.242253521 L14.8105991,0.242253521 Z" id="Shape"></path>
                    </g>
                </g>
                <g id="Group" transform="translate(106.000000, 0.000000)" fill-rule="nonzero">
                    <g id="Amex-500x500@1x">
                        <rect id="Rectangle" fill="#FFFFFF" x="0" y="0" width="19" height="19"></rect>
                        <path d="M0,0 L0,19 L19,19 L19,15.989374 L16.707802,15.989374 L15.527674,14.684454 L14.34158,15.989374 L6.784026,15.989374 L6.784026,9.907626 L4.344768,9.907626 L7.370404,3.06033 L10.288348,3.06033 L11.329966,5.406108 L11.329966,3.06033 L14.941828,3.06033 L15.568942,4.827976 L16.20016,3.06033 L19,3.06033 L19,0 L0,0 Z M16.766702,3.821812 L15.574072,7.133626 L14.389118,3.821812 L12.117896,3.821812 L12.117896,9.139076 L13.553536,9.139076 L13.553536,5.416976 L14.920928,9.139076 L16.196968,9.139076 L17.564246,5.4093 L17.564246,9.139076 L19,9.139076 L19,3.821812 L16.766702,3.821812 Z M7.902176,3.821812 L5.554878,9.139076 L7.15008,9.139076 L7.590728,8.075608 L10.036598,8.075608 L10.48477,9.139076 L12.117896,9.139076 L9.770864,3.821812 L7.902176,3.821812 Z M8.813682,5.14349 L9.53534,6.882978 L8.091986,6.882978 L8.813682,5.14349 Z M17.124244,9.910666 L15.567118,11.61223 L14.024964,9.910666 L12.118428,9.910666 L14.625098,12.569336 L12.118428,15.227968 L13.971878,15.227968 L15.53668,13.511204 L17.09392,15.227968 L19,15.227968 L16.478624,12.554098 L19,9.910666 L17.124244,9.910666 Z M7.591108,9.910666 L7.591108,15.227968 L12.118314,15.227968 L12.118314,13.997376 L9.042024,13.997376 L9.042024,13.169394 L12.04239,13.169394 L12.04239,11.969126 L9.042024,11.969126 L9.042024,11.141296 L12.118314,11.141296 L12.118314,9.910666 L7.591108,9.910666 Z M17.53985,12.55634 L19,14.109742 L19,11.015896 L17.53985,12.55634 Z" id="500x500" fill="#006FCF"></path>
                    </g>
                </g>
                <rect id="Pipe" fill="#000000" x="31" y="1.5" width="1" height="16" rx="0.5"></rect>
                <g id="Group" transform="translate(38.000000, 0.500000)" fill-rule="nonzero">
                    <g id="mc_symbol">
                        <rect id="Rectangle" fill="#FF5F00" x="9.90051282" y="2.00712329" width="8.29470084" height="13.9586301"></rect>
                        <path d="M10.7548718,8.98767121 C10.7527891,6.26424691 11.9661969,3.69107968 14.0454701,2.00958904 C10.5131122,-0.850672165 5.44050465,-0.434050384 2.39253966,2.96666379 C-0.655425321,6.36737796 -0.655425321,11.6104302 2.39253966,15.0111444 C5.44050465,18.4118586 10.5131122,18.8284804 14.0454701,15.9682192 C11.9655353,14.2861945 10.7520533,11.7119608 10.7548718,8.98767121 Z" id="Path" fill="#EB001B"></path>
                        <polygon id="Path" fill="#F79E1B" points="27.0023517 14.5863871 27.0023517 14.2877696 27.1209958 14.2877696 27.1209958 14.238 26.83625 14.238 26.83625 14.2877696 26.954894 14.2877696 26.954894 14.5863871"></polygon>
                        <polygon id="Path" fill="#F79E1B" points="27.548411 14.238 27.4534958 14.238 27.3585805 14.4868479 27.2636653 14.238 27.16875 14.238 27.16875 14.5863871 27.2399365 14.5863871 27.2399365 14.3126544 27.3188362 14.5366175 27.4060381 14.5366175 27.4823513 14.3126544 27.4823513 14.5863871 27.548411 14.5863871"></polygon>
                        <path d="M27.985641,8.98767121 C27.985641,12.386313 26.1020837,15.4865713 23.1351209,16.9717546 C20.1681582,18.456938 16.6386027,18.0663028 14.0454701,15.9657534 C16.123836,14.2828353 17.3373351,11.7100101 17.3373351,8.98643835 C17.3373351,6.26286663 16.123836,3.69004147 14.0454701,2.00712329 C16.6386027,-0.0934261213 20.1681582,-0.484061283 23.1351209,1.00112206 C26.1020837,2.4863054 27.985641,5.58656374 27.985641,8.98520548 L27.985641,8.98767121 Z" id="Path" fill="#F79E1B"></path>
                    </g>
                </g>
                <g id="Group" transform="translate(72.000000, 0.500000)" fill-rule="nonzero">
                    <g id="Discover_26x16">
                        <rect id="Rectangle" fill="#FFFFFF" x="0" y="0" width="28" height="18"></rect>
                        <path d="M27.8208,10.00125 C27.8208,10.00125 20.216,15.39 6.2944,17.7975 L27.8208,17.7975 L27.8208,10.00125 Z" id="Path" fill="#F68C1E"></path>
                        <path d="M27.8992403,0 L0,0 L0,18 L28,18 L28,0 L27.8992403,0 Z M27.7984806,0.2025 L27.7984806,17.7975 L0.201519392,17.7975 C0.201519392,17.595 0.201519392,0.405 0.201519392,0.2025 C0.403038784,0.2025 27.5969612,0.2025 27.7984806,0.2025" id="Shape" fill="#000105"></path>
                        <path d="M2.4528,5.5125 L1.288,5.5125 L1.288,9.585 L2.4416,9.585 C3.0576,9.585 3.4944,9.43875 3.8864,9.1125 C4.3456,8.73 4.6256,8.145 4.6256,7.54875 C4.6256,6.345 3.7296,5.5125 2.4528,5.5125 M3.3712,8.5725 C3.1248,8.7975 2.8,8.8875 2.296,8.8875 L2.0832,8.8875 L2.0832,6.19875 L2.296,6.19875 C2.8112,6.19875 3.1136,6.28875 3.3824,6.525 C3.6512,6.7725 3.808,7.155 3.808,7.5375 C3.808,7.93125 3.6512,8.325 3.3712,8.5725" id="Shape" fill="#000105"></path>
                        <rect id="Rectangle" fill="#000105" x="4.9952" y="5.5125" width="1" height="4.0725"></rect>
                        <path d="M7.7168,7.065 C7.2352,6.89625 7.1008,6.7725 7.1008,6.55875 C7.1008,6.3 7.3472,6.10875 7.6944,6.10875 C7.9296,6.10875 8.1312,6.21 8.3328,6.435 L8.736,5.895 C8.4,5.59125 7.9856,5.445 7.5488,5.445 C6.832,5.445 6.2832,5.94 6.2832,6.615 C6.2832,7.1775 6.5408,7.45875 7.28,7.72875 C7.5936,7.84125 7.7504,7.90875 7.8288,7.965 C7.9856,8.055 8.064,8.20125 8.064,8.38125 C8.064,8.7075 7.8064,8.955 7.448,8.955 C7.0672,8.955 6.7648,8.76375 6.5856,8.415 L6.0816,8.89875 C6.44,9.43875 6.8768,9.675 7.4816,9.675 C8.2992,9.675 8.8816,9.12375 8.8816,8.33625 C8.8816,7.695 8.6128,7.4025 7.7168,7.065" id="Path" fill="#000105"></path>
                        <path d="M9.128,7.54875 C9.128,8.74125 10.0688,9.675 11.2672,9.675 C11.6032,9.675 11.8944,9.6075 12.264,9.43875 L12.264,8.505 C11.9504,8.82 11.6704,8.955 11.312,8.955 C10.5168,8.955 9.9456,8.37 9.9456,7.54875 C9.9456,6.76125 10.528,6.15375 11.2672,6.15375 C11.648,6.15375 11.928,6.28875 12.264,6.615 L12.264,5.67 C11.9168,5.49 11.6368,5.4225 11.2896,5.4225 C10.0912,5.41125 9.128,6.3675 9.128,7.54875" id="Path" fill="#000105"></path>
                        <polygon id="Path" fill="#000105" points="18.536 8.24625 17.4496 5.5125 16.5872 5.5125 18.312 9.68625 18.7376 9.68625 20.4848 5.5125 19.6224 5.5125"></polygon>
                        <polygon id="Path" fill="#000105" points="20.8432 9.585 23.0832 9.585 23.0832 8.8875 21.6272 8.8875 21.6272 7.79625 23.0272 7.79625 23.0272 7.09875 21.6272 7.09875 21.6272 6.19875 23.0832 6.19875 23.0832 5.5125 20.8432 5.5125"></polygon>
                        <path d="M26.2192,6.705 C26.2192,5.94 25.6928,5.50125 24.7856,5.50125 L23.6096,5.50125 L23.6096,9.57375 L24.4048,9.57375 L24.4048,7.9425 L24.5056,7.9425 L25.6032,9.57375 L26.5776,9.57375 L25.3008,7.86375 C25.8832,7.74 26.2192,7.335 26.2192,6.705 M24.6288,7.38 L24.3936,7.38 L24.3936,6.1425 L24.64,6.1425 C25.1328,6.1425 25.4016,6.345 25.4016,6.75 C25.4016,7.16625 25.1328,7.38 24.6288,7.38" id="Shape" fill="#000105"></path>
                        <path d="M16.8224,7.54875 C16.8224,8.74125 15.8592,9.70875 14.672,9.70875 C13.4848,9.70875 12.5216,8.74125 12.5216,7.54875 C12.5216,6.35625 13.4848,5.38875 14.672,5.38875 C15.8592,5.3775 16.8224,6.35625 16.8224,7.54875" id="Path" fill="#F68C1E"></path>
                        <path d="M26.6336,5.59125 C26.6336,5.52375 26.5888,5.47875 26.4992,5.47875 L26.3872,5.47875 L26.3872,5.83875 L26.4768,5.83875 L26.4768,5.6925 L26.5776,5.8275 L26.6784,5.8275 L26.5664,5.68125 C26.6112,5.67 26.6336,5.63625 26.6336,5.59125" id="Shape" fill="#231F20"></path>
                        <path d="M26.5216,5.34375 C26.3536,5.34375 26.208,5.47875 26.208,5.65875 C26.208,5.8275 26.3424,5.97375 26.5216,5.97375 C26.6896,5.97375 26.824,5.83875 26.824,5.65875 C26.824,5.49 26.6896,5.34375 26.5216,5.34375 M26.5216,5.9175 C26.3872,5.9175 26.2752,5.805 26.2752,5.65875 C26.2752,5.5125 26.3872,5.4 26.5216,5.4 C26.656,5.4 26.768,5.5125 26.768,5.65875 C26.768,5.79375 26.656,5.9175 26.5216,5.9175" id="Shape" fill="#231F20"></path>
                    </g>
                </g>
            </g>
        </g>
    </g>
</svg>