<svg id="Layer_1" data-name="Layer 1" xmlns="http://www.w3.org/2000/svg" viewBox="0 0 300 185.22"><defs><style>.cls-1{fill:#fff;}.cls-2{fill:#133c64;}.cls-3{fill:#e44123;}.cls-4{fill:#89b1d7;}</style></defs><rect class="cls-1" width="300" height="185.22"/><path class="cls-2" d="M100.07,88h3.6V92.3h.09c1.73-2.94,3.6-4.6,7.33-4.6v3a6.68,6.68,0,0,0-4.62,1.85,9,9,0,0,0-2.8,5.88V109.6h-3.6Z"/><path class="cls-2" d="M114.13,92.18c1.43-2.49,4.69-4.57,8.94-4.57,3.82,0,8.29,1.75,8.29,6.47V105a16.16,16.16,0,0,0,.52,4.65h-3.69l-.34-3a10.32,10.32,0,0,1-7.47,3.4c-3.47,0-6.9-2-6.9-5.93,0-4.73,4.26-7.09,14.28-8.79V94.13c0-2.86-2-3.94-4.65-3.94-3.46,0-5.16,1.9-5.76,3.36Zm13.63,5.76c-7.16,1.2-10.67,3.19-10.67,6.18,0,2,2,3.32,3.73,3.32,2.25,0,5.12-1.57,6.94-3.57Z"/><path class="cls-2" d="M145.81,109.6h-4.64L134.22,88h3.66l5.72,17.84h.09L149.42,88h3.16Z"/><path class="cls-2" d="M182.54,79.06V109.6H178.9v-29Z"/><path class="cls-2" d="M196.53,110c-6.16,0-9.72-5-9.72-11.19s3.56-11.21,9.72-11.21,9.72,5,9.72,11.21S202.69,110,196.53,110Zm0-19.82c-3.73,0-6.12,3.07-6.12,8.63s2.39,8.62,6.12,8.62,6.11-3.07,6.11-8.62S200.26,90.19,196.53,90.19Z"/><path class="cls-2" d="M224.22,94.46c-.87-2.61-2.65-4.27-5.33-4.27-3.86,0-6.12,3.15-6.12,8.63s2.26,8.62,6.12,8.62c2.86,0,4.46-.91,6.2-4l3,1.07c-2.26,3.65-4.74,5.48-9.2,5.48-5.65,0-9.73-4.23-9.73-11.19s4.08-11.21,9.73-11.21a8.86,8.86,0,0,1,8.72,5.85Z"/><path class="cls-2" d="M231.88,88h3.61V109.6h-3.61Z"/><path class="cls-2" d="M92,107.44c-1.82,0-2.56-.5-2.56-1.49V90.6h4.51l.7-2.57H89.4V80.35l-3.61,1.54V88H82.47V90.6h3.32v15.84c.37,2.74,1.92,3.57,5.3,3.57a16.61,16.61,0,0,0,3.37-.3l.68-2.54A20,20,0,0,1,92,107.44Z"/><path class="cls-2" d="M274.38,88l-7.94,23.47c-1.77,4.81-5.2,6.17-8.15,6.17a25.11,25.11,0,0,1-3-.25l.77-2.56a16.65,16.65,0,0,0,1.7.12c1.9,0,4.81-.41,5.9-5.14L255.85,88h3.29l6.07,16.46h.09L270.6,88Z"/><path class="cls-2" d="M249.93,107.44c-1.83,0-2.56-.5-2.56-1.49V90.6h4.51l.7-2.57h-5.21V80.35l-3.61,1.54V88h-3.32V90.6h3.32v15.84c.37,2.74,1.92,3.57,5.3,3.57a16.61,16.61,0,0,0,3.37-.3l.68-2.54A20,20,0,0,1,249.93,107.44Z"/><path class="cls-2" d="M171.57,103.9a7,7,0,0,1-6.18,3.54c-3.73,0-6.67-3.32-6.67-8h15.14v-2c0-6.89-4.39-9.79-9.07-9.79-5.56,0-9.68,4.24-9.68,11.21,0,7.87,5.25,11.19,10.28,11.19,4.31,0,5.8-.38,8.44-3.94Zm-6.7-13.71c3.39,0,5.38,2.65,5.38,6.63H158.8C159.06,92.84,161.1,90.19,164.87,90.19Z"/><rect class="cls-2" x="231.88" y="80.75" width="3.61" height="3.57"/><path class="cls-3" d="M23.69,75.09c.54-.22,1.09-.28,1.65-.47a23.2,23.2,0,0,1-2.5-2.8c-.22-.29-.11-.45.07-.51s.05-.35.16-.5c.37-.13.33-.48.53-.72,0-.08,0-.35.06-.43a.4.4,0,0,1,.45,0,10.92,10.92,0,0,0,2.27,1.89,20.06,20.06,0,0,1,2.79,2c.08,0,.33.13.35,0a7.32,7.32,0,0,1,.77-2.34,3.58,3.58,0,0,1,.37-.83A3.25,3.25,0,0,1,32,69.16c.76-.42,1.67,0,2.19-.65.2-.15.53,0,.7,0,.49.24,1.21.08,1.59.48a42.71,42.71,0,0,0-1.17,4.65c-.05.34-.29.83-.05,1A6.88,6.88,0,0,0,38,74.48a11.36,11.36,0,0,1,3,.25,4.71,4.71,0,0,1,2,1c1.11.86,1.08,2.34,1,3.64,0,.09-.51.54-.69.52s-.12-.37-.21-.38a9.4,9.4,0,0,1-1.46,1.11c-.09,0-.63-.53-.87-.65a4.07,4.07,0,0,0-2.85-.31,10.76,10.76,0,0,0-3.38.4c.42.76,1.15,1.12,1.77,1.73,1,1,2,1.78,3.12,2.72a8.45,8.45,0,0,1,1.81,2.09c-.28.13,0,.27-.13.43s-.16-.21-.34-.24-.29.23-.23.41-.16.55-.35.61-.5.33-.65.3-.62-.23-.57-.17c.2.22.34.61.29.68a1.37,1.37,0,0,1-1-.42c-1.41-1.16-2.64-2.38-4.13-3.64A12.83,12.83,0,0,0,32.65,83c-1,2.3-1.73,4-2.76,6.27-.24.4-.37,1.48-.59,1.61s-.79-.78-1.1-1.41a31.79,31.79,0,0,1,.26-3.39l0-.25c.09-1.92.68-3.58.6-5.52,0-.17-.24-.21-.49-.24-2.59-.28-5.09-.54-7.66-.9a6.23,6.23,0,0,1-1.8-.34,1.12,1.12,0,0,0-.49-.24c-.07-.1-.07-.1-.15-.11a11.59,11.59,0,0,1,3.32-2.66C22.18,75.65,23.23,75.29,23.69,75.09Z"/><path class="cls-2" d="M47.63,88.46c-.15,0-.07-.21-.07-.28.14-.28.49-.21.69-.21.69-.2,1.45,0,2.14-.2.14-.07.28-.27.35-.27A13.81,13.81,0,0,1,52.33,87c.14-.06.48-.27.35-.48a5.85,5.85,0,0,1-1.52-2c-.21-.42-.55-.76-.55-1.18s.42-.41.76-.27A13,13,0,0,1,55,86.47c.21.28.42-.35.49-.55A33,33,0,0,1,57,82.53c.13-.34.41-.75.76-.82A4.92,4.92,0,0,0,59,81c.34-.13.62,0,1-.2s.48.27.76.14c.41-.28.76-.07,1.17,0a.57.57,0,0,1,.27.69,17.85,17.85,0,0,1-1.24,3c-.49.75-.9,1.44-1.46,2.2,0,.07-.07.21.07.28a4.75,4.75,0,0,1,1,.14,23.06,23.06,0,0,0,3.17.42c.55.14.55.9,1,1.31.28.21-.21.42-.48.49-.76.2-1.52-.07-2.28.13-1.31.27-2.55,0-3.8.48.41.41.83.76,1.17,1.17l1,1.46a5.5,5.5,0,0,1,.68,1.65,2.2,2.2,0,0,1,.07,1c-.14-.07-.14-.35-.28-.42s-.27.28-.48.21a.58.58,0,0,1-.34-.35,2.83,2.83,0,0,1-.62-1,7.06,7.06,0,0,0-2.35-2.42,32.47,32.47,0,0,1-2.63,5.1c-.07.14-.28.14-.48.14s-.21.14-.28.2c-.07-.14-.21-.2-.28-.27-.34-.28-.82-.56-1-1a2.53,2.53,0,0,1-.34-1.18c0-.06-.14-.2-.14-.27.14-.28.14-.62.28-.83a1.93,1.93,0,0,0,.55-.76A10.29,10.29,0,0,0,54,90.12c-1.66-.27-3.38-.14-5-.76a7.12,7.12,0,0,1-1.1-.49C47.77,88.73,47.84,88.52,47.63,88.46Z"/><path class="cls-4" d="M49.6,62.77c.5-1.2,1.33-2,1.47-3.35C48.34,58,45,58.81,43,55.35c-.48-.72,0-4.24.29-4.64.62-1.28,1.81-1.27,2.95-.38a3.57,3.57,0,0,1,1.15.25,10.66,10.66,0,0,1,3.49.51c1.56.18,2.85.75,4.27.6a1,1,0,0,0,.23-.8c-.34-2.08-.83-3.85-1.36-6a8,8,0,0,1-.3-1.68c-.1-1.2-1-3.13-.17-3.68.11-.08.26.24.37.16s.38-.48.56-.4c2.69,1.71,4.92,4.37,7.27,6.95.77.73.91-1.28,1.51-1.91.16-.32,0-1,.14-1.36.57-1,.71-2.4,1.17-3.35.91-1.28,1.42-3.11,2.81-3.66a2.89,2.89,0,0,1,2.81,1c.18.08.6,0,.85.25,1,.81,1.76,1.94,2.79,2.9a1.73,1.73,0,0,1,.35,1.45C74,43,72.65,43,71.89,44l-4.46,6.93c-.16.32-.58,1-.25,1.44a49.38,49.38,0,0,0,6.21,5.58c1.44.89,3,.82,4.32,2a10.72,10.72,0,0,1,2.07,3.62c-5.23,3.24-11.17-2.1-16.76-2-.41.08-.31.64-.35.88.3,2.33.71,4.57.94,6.74.13,1.6,1,3.13,1.19,4.65.11.56.64,2.09-.14,2A2.68,2.68,0,0,1,62,74.33a44.25,44.25,0,0,1-2.15-5.46,3.07,3.07,0,0,1-.12-1.61A5.58,5.58,0,0,0,59,64.85c-.15-.32-.53.16-.75.32a30.94,30.94,0,0,0-2.21,3,10.92,10.92,0,0,1-4.48,3.57c-1.27.47-3.21.77-4.08-1.16.41-.07.76-.95.5-1.2C46,66.59,48.75,64.85,49.6,62.77Z"/><path class="cls-2" d="M276.8,86.72a2.56,2.56,0,0,1,1.41-1.36,2.46,2.46,0,0,1,1-.2,2.43,2.43,0,0,1,1,.2,2.63,2.63,0,0,1,.84.54,2.77,2.77,0,0,1,.56.82,2.52,2.52,0,0,1,.21,1,2.59,2.59,0,0,1-.21,1.05,2.77,2.77,0,0,1-.56.82,2.5,2.5,0,0,1-.84.55,2.59,2.59,0,0,1-1,.19,2.63,2.63,0,0,1-1-.19,2.5,2.5,0,0,1-.84-.55,2.63,2.63,0,0,1-.57-.82,2.59,2.59,0,0,1-.21-1.05A2.52,2.52,0,0,1,276.8,86.72Zm.43,1.91a2.15,2.15,0,0,0,1.14,1.18,2.19,2.19,0,0,0,.85.17,2.14,2.14,0,0,0,.84-.17,2.15,2.15,0,0,0,1.14-1.18,2.47,2.47,0,0,0,0-1.75,2.08,2.08,0,0,0-.46-.7,2.18,2.18,0,0,0-.68-.47,2.14,2.14,0,0,0-.84-.17,2.09,2.09,0,0,0-1.53.64,2.08,2.08,0,0,0-.46.7,2.47,2.47,0,0,0,0,1.75Zm2.15-2.39a1.27,1.27,0,0,1,.81.21.77.77,0,0,1,.26.65.7.7,0,0,1-.23.6,1,1,0,0,1-.57.23l.87,1.35H280L279.18,88h-.5v1.31h-.48v-3Zm-.2,1.34h.3a.51.51,0,0,0,.25-.06.38.38,0,0,0,.18-.15.51.51,0,0,0,.06-.27.55.55,0,0,0-.05-.25.34.34,0,0,0-.16-.13.48.48,0,0,0-.21-.07l-.24,0h-.63v1Z"/><path class="cls-2" d="M276.8,86.72a2.56,2.56,0,0,1,1.41-1.36,2.46,2.46,0,0,1,1-.2,2.43,2.43,0,0,1,1,.2,2.63,2.63,0,0,1,.84.54,2.77,2.77,0,0,1,.56.82,2.52,2.52,0,0,1,.21,1,2.59,2.59,0,0,1-.21,1.05,2.77,2.77,0,0,1-.56.82,2.5,2.5,0,0,1-.84.55,2.59,2.59,0,0,1-1,.19,2.63,2.63,0,0,1-1-.19,2.5,2.5,0,0,1-.84-.55,2.63,2.63,0,0,1-.57-.82,2.59,2.59,0,0,1-.21-1.05A2.52,2.52,0,0,1,276.8,86.72Zm.43,1.91a2.15,2.15,0,0,0,1.14,1.18,2.19,2.19,0,0,0,.85.17,2.14,2.14,0,0,0,.84-.17,2.15,2.15,0,0,0,1.14-1.18,2.47,2.47,0,0,0,0-1.75,2.08,2.08,0,0,0-.46-.7,2.18,2.18,0,0,0-.68-.47,2.14,2.14,0,0,0-.84-.17,2.09,2.09,0,0,0-1.53.64,2.08,2.08,0,0,0-.46.7,2.47,2.47,0,0,0,0,1.75Zm2.15-2.39a1.27,1.27,0,0,1,.81.21.77.77,0,0,1,.26.65.7.7,0,0,1-.23.6,1,1,0,0,1-.57.23l.87,1.35H280L279.18,88h-.5v1.31h-.48v-3Zm-.2,1.34h.3a.51.51,0,0,0,.25-.06.38.38,0,0,0,.18-.15.51.51,0,0,0,.06-.27.55.55,0,0,0-.05-.25.34.34,0,0,0-.16-.13.48.48,0,0,0-.21-.07l-.24,0h-.63v1Z"/></svg>