<svg id="Layer_1" data-name="Layer 1" xmlns="http://www.w3.org/2000/svg" viewBox="0 0 300 185.22"><defs><style>.cls-1{fill:#fff;}.cls-2{fill:#0e214b;}</style></defs><rect class="cls-1" width="300" height="185.22"/><path class="cls-2" d="M236.25,83.14v2H236v-2h-.86v-.28h2v.28Zm3.35,2-.06-1.9h0l-.7,1.87h-.34l-.63-1.87h0l-.06,1.9h-.28l.09-2.24H238l.6,1.89h0l.66-1.89h.46l.08,2.24Zm0,0"/><path class="cls-2" d="M205.66,119.64a27.58,27.58,0,0,0,25.72-26.88c.08-4.26-2.93-11.25-12.71-12l0,.08c8.1.85,11,6.76,10.9,10.62-.23,13-10.29,26.75-23.84,28.14Zm0,0"/><path class="cls-2" d="M205.92,119.08l0,.09c8.77-1.26,17.79-19.64,18-31.89.05-2.67-1.47-5.41-5.43-6.06l0,.09a4.29,4.29,0,0,1,3.54,4.63c-.21,12-9,31.82-16,33.14Zm0,0"/><path class="cls-2" d="M205.77,119.4c12-1.24,21.61-16.64,21.83-29.39.06-3.46-2.2-8.29-9-9.06l0,.09c5.38.82,7.29,4.56,7.22,7.64-.22,12.49-9.61,29.25-19.93,30.64Zm0,0"/><path class="cls-2" d="M218.78,80.49l0,.08c11.27,1,14.5,9,14.42,13.61-.24,13.47-10.67,24.35-27.59,25.63l0,.08c18.52-1.11,29.34-10.67,29.58-24.39.08-5-3.59-14.29-16.33-15Zm0,0"/><path class="cls-2" d="M189.29,106.08c.23-13.39,11.77-24.36,27.6-25.63l0-.08c-17.73,1.1-29.34,10.66-29.59,24.3-.08,5,3.6,14.37,16.33,15.11l0-.08c-11.19-.8-14.52-9-14.42-13.62Zm0,0"/><path class="cls-2" d="M200.44,114.32c.2-11.52,9.28-31.77,16.11-33.14l0-.09c-8.46,1.25-17.8,20-18,31.81a5.72,5.72,0,0,0,5.44,6.16l0-.09c-2.82-.47-3.67-2.38-3.63-4.65Zm0,0"/><path class="cls-2" d="M193,108.83c.22-12.76,10.61-26.76,23.77-28.14l0-.08c-14.74,1.12-25.52,13.72-25.75,26.81-.07,4.25,2.93,11.48,12.72,12.12l0-.08c-8.48-.77-10.89-6.77-10.82-10.63Zm0,0"/><path class="cls-2" d="M196.72,111.57c.21-12.18,10-29.26,19.94-30.64l.05-.08c-11.65,1.23-21.63,16.87-21.84,29.31-.06,3.47,2.27,8.58,9,9.15l0-.09c-5.39-.67-7.28-4.57-7.23-7.65Zm0,0"/><path class="cls-2" d="M152.88,119.28l0,.09c13.82-1.64,24-18.4,25-29.23.33-3.56-1.31-5.46-3.73-5.79-3.68-.51-8.27,2-11.1,5.93l.08.1c2.7-3.49,6.46-5.58,9.43-5.15,2.11.29,3.39,1.89,3.12,4.78-.92,9.83-10.3,26.66-22.8,29.27Zm0,0"/><path class="cls-2" d="M153,119l-.06.12c10.15-2.74,19.68-20.44,20.48-29.12.21-2.23-.78-3.54-2.42-3.77-2.42-.33-5.52,1.51-7.77,4.38l.07.09c1.87-2.25,4.4-3.83,6.19-3.58,1.18.16,1.95,1.19,1.8,2.84-.71,7.6-9.49,25.25-18.29,29Zm0,0"/><path class="cls-2" d="M182.23,90.23c.45-4.79-1.72-7.29-5.06-7.71-4.85-.67-10.75,2.29-14.32,7.5l.07.09c3.27-4.5,8.52-7.29,12.74-6.71,2.89.39,4.83,2.57,4.44,6.81-1.12,12-12.55,28.46-27.35,29.37l0,.08c16.47-.1,28.3-16.36,29.52-29.43Zm0,0"/><path class="cls-2" d="M180.43,80.67c-6.1-.86-13.49,2.75-17.64,9l.07.09c3.94-5.65,10.59-9,16.07-8.26,3.67.5,6.18,3.28,5.67,8.74-1.28,13.91-13,29.59-31.81,29.51l0,.11c19.49.74,32.68-14.58,34.07-29.59.57-6-2.23-9.09-6.38-9.65Zm0,0"/><path class="cls-2" d="M151.43,109c-.69,1.72-2.19,5.42-2.29,7.47a2.75,2.75,0,0,0,1.52,2.36,3.25,3.25,0,0,0,.43.18l.06-.13a1.76,1.76,0,0,1-.48-1.57c.18-2,1.78-5.72,2.49-7.52L172,61.62l-2.57.52c.14.63-5,13.2-5.19,13.82Zm0,0"/><path class="cls-2" d="M152,76.2l-11,28.34a23.16,23.16,0,0,0-1.82,6.33c-.41,4.65,3.64,8.46,11.61,8.76l0-.08c-6.72-.37-10.37-3.56-10-7.74a24.54,24.54,0,0,1,1.91-6.48l11.37-29.16c1-2.67,4-9.21,2.41-11.41l-2.58.53v.14c1.73,2.45-.74,7.8-1.93,10.77Zm0,0"/><path class="cls-2" d="M156.32,75.57,144.49,106a27.84,27.84,0,0,0-2,6.71c-.32,3.72,2.73,6.28,8.43,6.68l0-.07a15.29,15.29,0,0,1-3.46-.82c-2.34-.85-3.49-2.48-3.29-4.77a28.82,28.82,0,0,1,2-7l12.13-31.17c.62-1.65,4.08-9.53,3.25-11.94l-2.51.51v.14c1.31,1.88-2,9.17-2.77,11.21Zm0,0"/><path class="cls-2" d="M148,107.52a32.44,32.44,0,0,0-2.14,7.19c-.23,2.63,2.07,4.05,5.14,4.53l0-.08c-2.11-.38-3.75-1.4-3.56-3.51s1.61-5.7,2.22-7.34L162.3,75.88c.31-.85,5.1-12.47,4.42-13.21l-2.58.52v.15c.1,2.83-3.18,10.57-3.86,12.39Zm0,0"/><path class="cls-2" d="M150.73,119.79c-9-.39-13.63-4.81-13.18-9.94a21.38,21.38,0,0,1,1.72-6l10.47-27.1c1.32-3.37,3.76-8.48,1.83-11l-2.37.5v.14c2,2.28.15,6-1.23,9.79l-10.44,26.88a19.51,19.51,0,0,0-1.62,5.85c-.49,5.57,4.48,10.65,14.78,11Zm0,0"/><path class="cls-2" d="M138.8,85.63c-.19-3.6-2.31-5.25-4.9-5.25-4.72,0-8.81,3.72-11.3,8.76,0-.57,0-1.17,0-1.78-.2-3.92-2.87-7-7.72-7-10.19,0-15.24,6.73-16.91,14.34H98c1.76-7.13,6.51-13.54,15.71-13.54,4.38,0,6.8,2.74,7,6.27.24,4.62-1.29,8.23-2.88,12.38l-7.46,19.44h2.06L119.81,100c.5-1.33,1-2.58,1.39-3.76,1.48-3.06,3.27-6.2,4.21-6.2.71,0,.92.6,1,1.14a16.39,16.39,0,0,1-2.2,8.27l.09.07c1.87-1.64,4-6.58,3.83-9.16-.06-1-.49-1.72-1.51-1.72-1.59,0-3.6,3.26-5.1,6.71.18-.55.33-1.09.47-1.65,1.59-3.43,3.8-6.39,5.89-6.39,1.26,0,2,.86,2.09,2.27C130.11,93,127,98,124.43,99.67l.09.08c3.52-1.57,7.4-6.74,7.18-11-.1-1.89-1.1-2.9-2.67-2.9-2.57,0-5.1,3-6.83,6.75.06-.29.11-.59.16-.89,1.93-4,4.78-7.2,7.94-7.2,1.71,0,3,1.18,3.16,3.43.26,5-4.47,10.35-8.78,11.92l.08.08c5.26-1.34,10.77-7,10.46-12.78-.14-2.74-1.71-4.07-3.74-4.07-3.63,0-6.86,3.29-9,7.63,0-.24,0-.48,0-.72,2.32-4.68,6-8.23,10.17-8.23,2.27,0,4.16,1.5,4.32,4.63.35,6.66-5.86,12.3-12.13,13.72l.09.08c7.38-1.1,14.2-7.14,13.8-14.6Zm0,0"/><path class="cls-2" d="M111.56,88a3.05,3.05,0,0,0-3.3-3.06c-4.43,0-7.86,4.76-9.52,9.79h.1c1.74-4.49,4.72-9,8.28-9a2.32,2.32,0,0,1,2.57,2.35c.13,2.43-2.32,7.92-3.49,11l-8.12,20.21h2l8-20.06c1.32-3.22,3.63-8.47,3.49-11.21Zm0,0"/><path class="cls-2" d="M107.89,88.23a1.7,1.7,0,0,0-1.83-1.8c-2.57,0-5.35,4.07-7,8.3h.12c1.69-3.76,4.29-7.52,5.79-7.52.63,0,1,.32,1.08,1.1.09,1.65-2.65,7.84-3.76,10.5L94,119.27h2L104.21,99c1.18-2.9,3.78-8.78,3.68-10.74Zm0,0"/><path class="cls-2" d="M118.9,87.61c-.16-3.22-2.34-5.73-6.26-5.73-8.15,0-12.81,6.05-14.46,12.87h.11c1.82-6.33,6-12.07,13.23-12.07,3.43,0,5.37,2.12,5.52,5,.2,3.86-1.62,8.07-3.06,11.91l-7.66,19.67h2l7.51-19.53c1.58-4,3.25-8,3-12.14Zm0,0"/><path class="cls-2" d="M115.23,87.78a4.43,4.43,0,0,0-4.78-4.39c-6.39,0-10.29,5.52-12,11.36h.09c1.79-5.44,5.47-10.57,10.77-10.57a3.73,3.73,0,0,1,4,3.76c.17,3-1.92,8-3.31,11.44l-7.87,19.89h2.12L112,99.44c1.37-3.6,3.4-8.15,3.22-11.66Zm0,0"/><path class="cls-2" d="M85.58,105.54l1.32-2.75-4.45-22.7c-1.23-6.38.24-9.17,5.26-10.13v-.08H83.08c-1.35.66-4.18,2.68-2.58,10.25Zm0,0"/><path class="cls-2" d="M83,111l1.31-2.74L78.4,80c-1.09-5.49-.63-8.36,1.2-10v-.08H76.48c-1,2-1.26,4.1-.15,9.54Zm0,0"/><path class="cls-2" d="M68.48,69.88H65.2V70c1.48,1.77,1.9,4,3.06,8.73L77,119.27H79L70.2,78.57a77.62,77.62,0,0,1-1.72-8.69Zm0,0"/><path class="cls-2" d="M80.34,116.48l1.29-2.7L74.34,79.34c-1.28-5.34-1-7.79-.47-9.46H71a30.48,30.48,0,0,0,1.11,8.57Zm0,0"/><path class="cls-2" d="M61.92,69.88H58.41V70c3.21,1.26,4.79,3.71,6,9.4l8.64,39.91h2L66.37,79c-1.5-6.89-3.07-8.17-4.45-9.16Zm0,0"/><path class="cls-2" d="M94.57,87.64l.13.09C99.58,76.14,100.86,73,102.88,70v-.08h-4V70c.41,4.61-1.19,8.86-4.34,17.64Zm0,0"/><path class="cls-2" d="M106.62,69.88c-4.13,2.41-6.59,6.89-11.79,17.93l.13.09c6-11.15,9.36-15.62,17.06-17.94v-.08Zm0,0"/><path class="cls-2" d="M94.31,87.47l.13.08c3.11-10.32,4.11-14.9,1.36-17.67H91.91V70c4.34,1.52,5.32,6,2.4,17.51Zm0,0"/></svg>